<?xml version="1.0" encoding="utf-8"?>
<!-- Generator: Adobe Illustrator 16.0.0, SVG Export Plug-In . SVG Version: 6.00 Build 0)  -->
<!DOCTYPE svg PUBLIC "-//W3C//DTD SVG 1.1//EN" "http://www.w3.org/Graphics/SVG/1.1/DTD/svg11.dtd">
<?xml-stylesheet type="text/css" href="../main.css"?>
<svg version="1.1" id="cmafest" xmlns="http://www.w3.org/2000/svg" xmlns:xlink="http://www.w3.org/1999/xlink" x="0px" y="0px"
	 width="300px" height="300px" viewBox="0 0 300 300" style="enable-background:new 0 0 300 300;" xml:space="preserve">
       <a xlink:href="http://www.cmaworld.com/cma-music-festival/" target="_blank">
<path id="border" style="fill:#F16649;" d="M12.853,127.375c-0.039-0.418-0.078-0.836-0.117-1.253
	c-0.167-0.698,0.312-0.955,0.815-1.199c1.055-0.36,2.15-0.293,3.24-0.312c1.46-0.082,2.921-0.04,4.381-0.026
	c3.024-0.428,6.182,0.732,9.101-0.792c1.077-1.306,0.68-2.857,0.679-4.304c-0.009-22.916,0.106-45.833-0.096-68.749
	c-0.017-1.796-0.161-3.612,0.34-5.375c0.555-1.478,1.877-1.472,3.135-1.611c6.411-0.713,10.048-4.134,11.191-10.506
	c0.201-1.121,0.087-2.347,1.038-3.229c28-0.015,56.001-0.051,84.001,0.001c2.201,0.004,3.532-0.442,4.799-2.521
	c6.328-10.381,21.318-10.379,27.879,0.007c1.293,2.046,2.616,2.516,4.819,2.513c28-0.043,56,0.001,84,0.023
	c1.113,0.771,1.047,1.997,1.224,3.137c0.882,5.764,4.728,9.607,10.391,10.396c3.792,0.528,4.112,0.867,4.128,4.91
	c0.064,19.083-0.018,38.167,0.016,57.25c0.009,4.983,0.082,9.965,0.104,14.948c0.016,3.487,0.341,3.749,3.854,3.821
	c1.908,0.038,3.817-0.073,5.725,0.066c1.895-0.057,3.792-0.062,5.688-0.005c3.854,0.116,4.405,0.871,3.489,4.663
	c-0.124,0.512-0.282,1.016-0.45,1.509c-3.604,11.829-6.492,23.865-10.041,35.716c-1.021,3.408,1.959,4.265,3.547,6.025
	c2.486,1.918,4.562,4.314,7.132,6.142c0.505,0.36,0.952,0.791,1.386,1.231c2.428,2.479,2.396,2.912-0.355,5.355
	c-1.569,0.969-2.707,2.422-4.051,3.643c-0.833,0.707-1.812,1.226-2.588,2.01c-0.921,0.826-1.734,1.772-2.732,2.517
	c-1.012,0.67-2.002,1.358-2.635,2.433c-0.378,0.799-0.035,1.541,0.195,2.289c0.37,1.111,0.6,2.26,0.955,3.373
	c0.339,1.508,0.788,2.983,1.297,4.443c1.085,3.869,2.1,7.756,3.092,11.646c0.229,0.756,0.432,1.521,0.678,2.27
	c0.334,1.533,0.785,3.033,1.308,4.512c0.795,3.088,1.728,6.141,2.5,9.235c0.239,0.794,0.471,1.59,0.729,2.381
	c0.14,1.175,0.91,2.431-0.435,3.417c-2.795,0.766-5.649,0.254-8.478,0.376c-1.682,0.073-3.373-0.067-5.053,0.058
	c-4.291,0.322-4.791,0.881-4.797,5.18c-0.004,2.104-0.02,4.21-0.102,6.314c-0.057,0.94-0.215,1.842-1.006,2.48
	c-0.602,0.386-1.277,0.505-1.972,0.556c-1.069,0.05-2.118,0.248-3.157,0.502c-1.271,0.169-2.349,0.781-3.358,1.53
	c-0.709,0.438-1.407,0.888-1.951,1.538c-0.608,0.688-1.013,1.513-1.522,2.269c-0.996,1.784-1.547,3.7-1.672,5.729
	c-0.137,2.234-1.367,3.085-3.519,3.143c-3.052,0.079-6.117-0.32-9.152,0.307c-0.368,0.096-0.739,0.14-1.116,0.153
	c-0.588,0.021-1.16-0.055-1.725-0.218c-10.62-0.496-21.245-0.088-31.865-0.208c-5.891,0.017-11.779,0.075-17.668-0.002
	c-3.346-0.022-6.691-0.01-10.037-0.005c-3.938,0.016-7.879-0.117-11.812,0.076c-0.926,0.188-1.506,0.828-2.016,1.562
	c-0.494,0.642-0.974,1.296-1.396,1.987c-0.224,0.341-0.479,0.648-0.757,0.945c-0.665,0.666-1.311,1.355-2.012,1.987
	c-0.974,0.783-2.123,1.267-3.2,1.868c-0.509,0.271-1.021,0.533-1.538,0.789c-0.836,0.408-1.701,0.717-2.63,0.834
	c-0.32,0.053-0.642,0.071-0.966,0.077c-1.637,0.002-3.275,0.055-4.913-0.035c-2.061-0.338-4.029-0.96-5.873-1.95
	c-0.744-0.49-1.486-0.99-2.188-1.545c-0.339-0.27-0.65-0.57-0.955-0.879c-0.889-0.934-1.852-1.799-2.651-2.82
	c-0.851-1.115-1.82-2.097-3.092-2.744c-11.925-0.356-23.841-0.086-35.754-0.123c-1.475-0.006-2.95-0.076-4.427-0.024
	c-2.014-0.015-4.027-0.015-6.041,0c-11.375-0.015-22.75,0.005-34.124-0.013c-1.47,0-2.951,0.121-4.4-0.225
	c-1.337-0.447-1.536-1.598-1.612-2.767c-0.138-2.147-0.921-4.054-2.046-5.843c-0.604-1.114-1.078-2.33-2.245-3.032
	c-0.627-0.476-1.252-0.955-1.955-1.321c-0.457-0.236-0.915-0.47-1.385-0.68c-0.604-0.258-1.235-0.438-1.865-0.619
	c-0.546-0.161-1.104-0.236-1.674-0.26c-0.644-0.016-1.283-0.031-1.912-0.19c-0.524-0.161-0.959-0.436-1.227-0.937
	c-0.745-2.865-0.312-5.786-0.432-8.684c-0.059-1.408,0.463-2.938-0.694-4.164c-1.983-1.096-4.125-0.432-6.186-0.572
	c-3.648-0.25-7.334,0.438-10.961-0.424c-1.381-1.021-0.609-2.293-0.409-3.498c1.202-4.287,2.429-8.568,3.561-12.877
	c0.036-0.483,0.119-0.963,0.201-1.438c1.032-2.649,1.798-5.385,2.527-8.13c0.357-1,0.603-2.034,0.874-3.062
	c0.221-0.711,0.454-1.418,0.663-2.132c0.389-1.274,0.691-2.567,0.991-3.864c0.197-0.867,0.496-1.705,0.75-2.558
	c0.43-1.231,0.681-2.517,1.036-3.769c0.77-2.108-0.419-3.325-1.997-4.362c-0.93-0.64-1.75-1.421-2.69-2.046
	c-2.222-2.213-4.533-4.324-6.975-6.292c-1.625-1.274-3.362-2.525-1.201-4.759c1.291-1.277,2.537-2.611,4.021-3.683
	c2.602-1.998,4.979-4.267,7.545-6.303c1.235-0.979,1.688-2.074,1.243-3.592c-2.112-7.2-3.665-14.56-6.148-21.653
	c-1.51-3.66-1.957-7.587-2.896-11.391c-0.073-0.515,0.021-0.997,0.285-1.445C13.953,130.79,13.403,129.083,12.853,127.375z"/>
<path id="border" style="fill:#EE6549;" d="M11.536,147.772c-0.345-2.638-1.216-5.134-2.081-7.629
	c-0.425-1.487-0.85-2.973-1.274-4.459c0.231-2.117-0.026-4.339,1.336-6.213c0.08,1.96,0.863,3.74,1.433,5.575
	c0.906,0.558,1.294,1.43,1.477,2.427c1.111,3.394,1.971,6.862,3.033,10.272c1.585,5.68,3.278,11.331,4.848,17.014
	c0.251,0.911,0.61,1.819,0.484,2.783c-0.165,1.261-0.897,2.224-2.091,2.524c-1.477,0.373-1.683-1.006-1.977-1.93
	c-0.924-2.91-1.692-5.867-2.598-8.783C13.517,155.438,11.253,151.887,11.536,147.772z"/>
<path style="fill:#FEFEFE;" d="M149.102,125.614c-34.279,0-68.561-0.038-102.841,0.067c-2.92,0.009-3.67-0.759-3.653-3.666
	c0.126-21.757,0.096-43.515,0.026-65.271c-0.007-2.034,0.461-3.2,2.413-4.175c4.185-2.091,7.323-5.431,9.421-9.616
	c0.782-1.56,1.727-2.057,3.448-2.055c60.813,0.045,121.627,0.045,182.441,0c1.944-0.001,3.045,0.57,3.941,2.361
	c2.049,4.087,5.229,7.229,9.27,9.344c1.716,0.898,2.451,1.885,2.445,3.889c-0.072,22.075-0.104,44.151,0.026,66.225
	c0.019,2.921-1.336,2.924-3.458,2.922C218.089,125.604,183.596,125.614,149.102,125.614z"/>
<path style="fill:#FEFEFE;" d="M149.396,239.268c34.288,0,68.572-0.013,102.856,0.043c1.268,0.002,3.284-0.977,3.634,1.291
	c0.317,2.053,0.441,4.008-2.229,5.213c-4.058,1.828-7.125,5.019-9.161,8.984c-0.996,1.94-2.157,2.625-4.374,2.623
	c-60.608-0.066-121.218-0.062-181.828-0.021c-1.87,0-3.066-0.318-3.996-2.191c-2.131-4.297-5.473-7.628-9.794-9.674
	c-2.669-1.264-1.874-3.34-1.707-5.143c0.178-1.918,2.025-1.086,3.107-1.086C80.401,239.258,114.899,239.268,149.396,239.268z"/>
<path style="fill:#FEFEFE;" d="M149.21,38.983c-30.574,0-61.149,0.022-91.724-0.045c-2.25-0.005-3.61,0.379-4.625,2.695
	c-1.932,4.406-5.311,7.729-9.702,9.69c-2.057,0.918-2.439,2.088-2.435,4.099c0.062,22.293-0.033,44.588,0.123,66.882
	c0.021,3.048-1.045,3.605-3.63,3.34c-1.22-0.126-1.712-0.565-1.645-1.749c0.036-0.634,0-1.273,0-1.91
	c0-23.25,0.036-46.5-0.054-69.749c-0.008-2.43,0.438-3.657,3.061-4.372c5.621-1.531,9.428-5.438,10.902-11.012
	c0.731-2.765,2.003-3.071,4.39-3.065c26.54,0.068,53.081,0.026,79.621,0.075c2.092,0.004,3.344-0.3,4.275-2.604
	c1.957-4.842,5.945-7.458,11.164-7.601c5.211-0.143,9.451,2.166,11.545,6.963c1.229,2.813,2.826,3.269,5.513,3.259
	c26.329-0.083,52.657-0.009,78.985-0.116c2.452-0.009,3.416,0.645,4.072,3.025c1.621,5.868,5.652,9.666,11.475,11.277
	c2.015,0.558,2.631,1.271,2.623,3.364c-0.082,23.78-0.062,47.561-0.027,71.341c0.002,1.801-0.084,2.942-2.463,2.927
	c-2.291-0.016-2.813-0.778-2.807-2.944c0.07-22.293-0.004-44.589,0.105-66.882c0.012-2.475-0.659-3.763-2.949-4.794
	c-4.191-1.886-7.4-5.083-9.202-9.309c-1.036-2.435-2.511-2.836-4.868-2.83C210.359,39.007,179.785,38.983,149.21,38.983z"/>
<path style="fill:#FEFEFE;" d="M205.029,264.45c-13.379,0-26.754,0.044-40.129-0.05c-2.112-0.017-3.096,0.59-3.977,2.605
	c-2.072,4.745-5.859,7.442-11.167,7.612c-5.421,0.172-9.589-2.197-11.784-7.079c-1.188-2.643-2.66-3.157-5.288-3.15
	c-26.327,0.096-52.654,0.033-78.982,0.104c-2.292,0.007-3.464-0.344-4.189-2.921c-1.629-5.798-5.595-9.677-11.495-11.247
	c-1.845-0.491-2.697-1.231-2.48-3.217c0.171-1.574,0.102-3.186,0.017-4.771c-0.101-1.887,0-3.162,2.579-3.16
	c2.485,0,2.975,1.1,2.607,3.062c-0.523,2.789,0.784,4.08,3.202,5.253c4.113,1.998,7.168,5.286,9.052,9.489
	c0.738,1.649,1.59,2.371,3.537,2.367c61.891-0.059,123.781-0.059,185.672-0.002c1.822,0,2.555-0.697,3.264-2.225
	c1.983-4.257,5.036-7.713,9.303-9.68c2.543-1.17,3.591-2.623,3.131-5.312c-0.373-2.172,0.514-2.923,2.781-2.942
	c2.422-0.019,2.553,1.231,2.414,2.984c-0.018,0.212-0.026,0.43,0,0.639c0.586,4.297-0.108,7.226-5.246,8.674
	c-4.754,1.339-7.707,5.539-8.908,10.465c-0.504,2.072-1.44,2.562-3.469,2.548C231.992,264.402,218.511,264.45,205.029,264.45z"/>
<path id="music" style="fill:#FEFEFE;" d="M256.025,179.51c0,5.658,0,10.719,0,16.029c-2.405-0.918-4.637-0.545-6.942-0.249
	c-4.202,0.54-8.444,0.733-12.658-0.188c-7.206-1.58-12.241-5.826-14.786-12.668c-3.727-10.023-3.695-20.205,0.229-30.158
	c3.616-9.168,13.204-13.841,24.432-12.545c3.187,0.368,6.379,1.838,9.732,0.058c0,5.403,0,10.559,0,16.333
	c-3.435-4.234-7.679-5.28-12.392-5.201c-5.311,0.089-8.824,2.441-10.514,7.57c-1.939,5.896-1.98,11.949-0.246,17.863
	c2.493,8.498,13.852,11.271,20.918,5.266C254.43,181.083,255.002,180.482,256.025,179.51z"/>
<path id="music" style="fill:#FEFEFE;" d="M210.805,194.812c-5.472,0-10.334,0-14.73,0c1.093-18.002,0.928-35.935,0.109-53.982
	c4.207,0,9.158,0,14.455,0c-2.01,3.602-1.578,7.328-1.582,10.999c-0.012,11.231,0.014,22.466-0.016,33.696
	C209.033,188.6,208.908,191.665,210.805,194.812z"/>
<path id="music" style="fill:#FEFEFE;" d="M150.577,177.868c5.136,5.11,10.581,7.017,16.807,6.885
	c1.521-0.032,2.937-0.362,4.282-1.045c1.771-0.897,2.713-2.354,2.764-4.322c0.047-1.893-0.908-3.294-2.561-4.069
	c-1.719-0.81-3.525-1.445-5.32-2.074c-3.604-1.268-7.236-2.471-10.398-4.695c-7.815-5.494-8.666-16.732-1.653-23.238
	c5.874-5.452,12.925-6.312,20.503-4.852c2.751,0.53,5.51,1.826,8.414-0.257c0,5.33,0,10.134,0,15.343
	c-3.684-2.118-6.999-4.16-10.945-4.828c-2.177-0.368-4.242-0.215-6.277,0.389c-1.894,0.561-3.53,1.564-3.797,3.809
	c-0.252,2.091,0.994,3.365,2.549,4.426c1.688,1.148,3.641,1.709,5.539,2.369c2.102,0.729,4.231,1.378,6.326,2.122
	c6.148,2.185,10.021,6.206,10.428,13.008c0.42,7.004-2.354,12.447-8.293,16.078c-5.846,3.571-12.235,3.874-18.744,2.217
	c-2.801-0.712-5.52-1.649-8.297,0.006c-1.021,0.606-1.322,0.005-1.323-0.917C150.573,189.061,150.577,183.896,150.577,177.868z"/>
<path id="music" style="fill:#FEFEFE;" d="M141.862,140.712c-1.768,3.304-1.671,6.479-1.659,9.663
	c0.035,9.126,0.012,18.253,0.013,27.382c0,0.741-0.03,1.484,0.01,2.228c0.119,2.193,1.395,4.217-0.466,6.576
	c-2.62,3.312-5.183,6.561-9.36,7.776c-9.23,2.688-20.617,2.04-26.504-8.424c-0.726-1.291-1.157-2.38-0.556-3.843
	c0.349-0.848,0.41-1.86,0.412-2.799c0.026-10.72-0.017-21.438,0.043-32.157c0.011-2.18-0.761-4.122-1.504-6.26
	c5.045,0,9.89,0,14.541,0c-1.425,12.794-0.595,25.505-0.597,38.191c0,4.299,2.439,6.441,5.991,6.332
	c3.311-0.105,5.555-2.395,5.602-6.457c0.127-11.037,0.033-22.074,0.025-33.111c0-0.105-0.022-0.211-0.021-0.317
	c0.002-1.569-1.733-3.64-0.704-4.366c1.232-0.869,3.451-0.383,5.244-0.405C135.413,140.686,138.456,140.712,141.862,140.712z"/>
<path id="music" style="fill:#FEFEFE;" d="M93.185,194.766c-5.584,0-10.539,0-15.514,0c2.51-7.967,0.677-16.012,0.705-24.143
	c-3.729,7.988-7.459,15.98-11.539,24.72c-4.012-8.624-7.757-16.673-11.503-24.723c-0.023,7.608-1.752,15.176,0.357,22.612
	c0.402,1.418,0.086,1.658-1.172,1.653c-4.452-0.021-8.902-0.01-13.628-0.01c2.24-6.118,1.102-12.265,1.218-18.321
	c0.179-9.229,0.049-18.463,0.045-27.695c-0.002-2.639,0.241-5.317-1.697-8.136c4.731,0,8.919,0.023,13.107-0.012
	c1.583-0.014,1.825,1.26,2.293,2.263c3.233,6.914,6.426,13.845,9.639,20.765c0.342,0.736,0.739,1.447,1.406,2.746
	c1.677-3.621,3.119-6.754,4.575-9.877c2.06-4.422,4.282-8.773,6.128-13.282c0.896-2.185,2.152-2.751,4.326-2.657
	c3.564,0.154,7.14,0.042,11.112,0.042c-1.666,2.904-1.538,5.669-1.537,8.419c0.005,12.415,0.002,24.828,0.003,37.244
	C91.507,189.124,91.337,191.9,93.185,194.766z"/>
<path id="festival" style="fill:#FEFEFE;" d="M115.665,203.162c1.803-0.002,3.605-0.002,5.408-0.002
	c3.904,0.002,5.588,2.508,4.201,6.133c-0.371,0.971-1.098,0.99-1.776,0.864c-1.301-0.244-3.063,0.909-3.817-1.011
	c-0.289-0.736-0.366-1.432-1.333-1.427c-3.073,0.021-6.153-0.062-9.217,0.112c-1.4,0.079-2.184,1.027-2.087,2.637
	c0.102,1.704,1.208,1.742,2.422,1.775c4.614,0.126,9.294-0.615,13.673,1.82c1.639,0.91,2.255,1.802,2.25,3.643
	c-0.018,6.021-2.914,9.018-9.07,9.061c-4.135,0.026-8.282-0.186-12.402,0.071c-2.771,0.172-2.782-1.235-2.745-3.237
	c0.074-3.983,0.544-4.474,4.28-3.842c0.399,0.069,0.938,0.115,1.141,0.379c0.562,0.731,0.149,2.219,1.811,2.082
	c3.254-0.269,6.562,0.527,9.78-0.479c1.249-0.39,1.451-1.336,1.44-2.503c-0.013-1.389-0.921-1.932-1.998-2.035
	c-1.892-0.184-3.807-0.146-5.712-0.184c-1.271-0.022-2.553,0.084-3.814-0.039c-5.503-0.523-8.982-5.683-6.553-10.395
	c1.177-2.279,4.127-3.173,6.806-3.385C110.774,203.014,113.226,203.162,115.665,203.162z"/>
<path id="festival" style="fill:#FEFEFE;" d="M83.605,203.162c3.286,0,6.575,0.088,9.856-0.031
	c1.851-0.07,2.499,0.646,2.31,2.403c-0.079,0.733,0.088,1.5-0.035,2.222c-0.199,1.159,0.837,3.188-1.532,3.016
	c-1.534-0.114-4.028,1.475-4.273-1.971c-0.126-1.773-1.859-1.152-2.82-1.037c-2.623,0.312-5.748-1.371-7.773,0.859
	c-1.562,1.727,0.063,4.031,2.508,4.064c1.59,0.021,3.188,0.108,4.768-0.022c1.906-0.159,2.581,0.457,2.578,2.471
	c-0.003,2.079-1.044,2.185-2.583,2.115c-1.481-0.065-2.967,0-4.451-0.019c-1.592-0.019-3.125-0.346-3.108,2.254
	c0.016,2.355,0.934,2.912,3.035,2.763c2.004-0.142,4.026-0.022,6.04-0.037c0.834-0.008,1.937,0.119,1.993-1.035
	c0.167-3.356,2.674-1.993,4.222-1.998c2.288-0.008,1.365,2.009,1.375,3.152c0.044,5.168,0.548,4.394-4.299,4.431
	c-5.936,0.043-11.873,0.03-17.809-0.015c-0.831-0.004-2.167,0.519-2.25-0.955c-0.065-1.162-0.77-2.877,0.642-3.401
	c1.59-0.592,1.416-1.604,1.422-2.731c0.017-3.181,0.026-6.359-0.006-9.539c-0.01-0.992,0.253-1.987-1.239-2.511
	c-1.782-0.625-0.88-2.387-0.768-3.588c0.129-1.383,1.502-0.816,2.339-0.832C77.032,203.122,80.319,203.162,83.605,203.162z"/>
<path id="festival" style="fill:#FEFDFD;" d="M221.396,221.066c-3.828,0-7.658,0-11.483,0c-0.104,1.504,1.117,0.89,1.538,1.379
	c0.867,1.02,0.511,2.233,0.39,3.337c-0.161,1.442-1.434,0.944-2.29,0.97c-2.015,0.062-4.035,0.083-6.05-0.005
	c-1.015-0.044-2.627,0.625-2.59-1.32c0.022-1.27-0.904-3.186,1.688-3.255c1.344-0.035,1.536-1.299,1.957-2.234
	c2.139-4.736,4.479-9.401,6.299-14.262c1.18-3.152,3.479-2.344,5.691-2.543c2.059-0.188,3.276,0.378,4.096,2.477
	c1.738,4.44,3.748,8.779,5.748,13.115c0.701,1.521,0.898,3.42,3.379,3.68c1.479,0.154,0.649,1.955,0.773,3.018
	c0.141,1.188-0.705,1.355-1.645,1.352c-1.91-0.01-3.834,0.133-5.727-0.047c-1.179-0.111-3.025,1.008-3.402-1.125
	C219.493,224.027,219.218,222.188,221.396,221.066z"/>
<path id="festival" style="fill:#FEFEFE;" d="M181.02,203.162c1.06,0,2.125-0.059,3.179,0.02c0.86,0.062,2.214-0.462,2.317,0.912
	c0.094,1.196,1.033,2.911-0.865,3.551c-1.448,0.489-0.781,1.238-0.452,1.924c1.151,2.386,2.368,4.738,3.552,7.109
	c0.754,1.51,1.4,1.307,2.08-0.07c1.171-2.377,2.406-4.724,3.562-7.106c0.324-0.667,1.063-1.414-0.457-1.869
	c-1.949-0.584-0.979-2.328-0.9-3.516c0.09-1.371,1.443-0.911,2.305-0.933c2.33-0.059,4.664-0.014,6.997-0.019
	c0.91,0,1.851,0.104,1.664,1.301c-0.171,1.099,0.94,2.877-1.007,3.138c-1.645,0.223-2.023,1.34-2.59,2.435
	c-2.527,4.896-5.068,9.788-7.517,14.726c-0.683,1.379-1.448,2.086-3.12,2.074c-1.647-0.01-2.438-0.646-3.123-2.053
	c-2.414-4.954-4.936-9.857-7.451-14.762c-0.418-0.82-0.616-2.162-1.648-2.168c-2.802-0.013-2.334-1.918-2.141-3.5
	c0.25-2.045,1.992-0.948,3.076-1.162C179.296,203.033,180.17,203.16,181.02,203.162z"/>
<path id="festival" style="fill:#FEFEFE;" d="M54.828,203.162c3.287,0,6.577,0.068,9.862-0.027
	c1.716-0.052,2.625,0.409,2.415,2.292c-0.094,0.839,0.065,1.704-0.034,2.541c-0.131,1.104,0.654,2.964-1.458,2.776
	c-1.535-0.135-4.099,1.508-4.306-1.898c-0.09-1.466-1.327-1.205-2.18-1.109c-2.851,0.315-6.182-1.243-8.452,0.846
	c-1.707,1.57,0.08,4.188,2.608,4.216c0.955,0.013,1.916,0.074,2.863-0.013c1.655-0.149,1.94,0.746,1.904,2.13
	c-0.035,1.338,0.08,2.625-1.893,2.474c-1.054-0.08-2.122-0.047-3.18,0.002c-0.994,0.045-2.422-0.334-2.43,1.244
	c-0.006,1.264-1.031,3.022,1.268,3.641c1.88,0.503,0.825,2.128,0.951,3.232c0.171,1.49-1.086,1.243-1.993,1.256
	c-2.014,0.026-4.031,0.047-6.043-0.011c-0.757-0.021-1.929,0.406-2.038-0.843c-0.104-1.188-0.778-3.001,0.515-3.464
	c1.793-0.644,1.495-1.789,1.505-2.991c0.028-3.182,0.028-6.363-0.004-9.544c-0.01-0.892,0.24-1.833-1.123-2.263
	c-1.92-0.604-0.93-2.338-0.886-3.532c0.052-1.431,1.429-0.915,2.267-0.931C48.252,203.128,51.541,203.162,54.828,203.162z"/>
<path id="festival" style="fill:#FEFDFD;" d="M143.022,203.16c3.604,0.002,7.213,0.104,10.813-0.038
	c1.983-0.076,2.701,0.642,2.474,2.548c-0.086,0.732,0.077,1.499-0.033,2.223c-0.172,1.088,0.726,3.008-1.37,2.832
	c-1.509-0.127-4.078,1.64-4.38-1.779c-0.168-1.896-1.717-1.077-2.728-1.219c-1.268-0.178-1.669,0.586-1.667,1.719
	c0.004,3.605-0.001,7.212-0.009,10.813c-0.002,1.038,0.277,1.657,1.441,2.082c1.596,0.583,0.815,2.2,0.795,3.347
	c-0.025,1.465-1.335,1.043-2.199,1.067c-1.906,0.058-3.818,0.056-5.724,0c-0.867-0.022-2.173,0.381-2.168-1.097
	c0.001-1.146-0.829-2.766,0.831-3.332c1.448-0.496,1.275-1.488,1.28-2.516c0.018-3.181,0.037-6.36-0.011-9.541
	c-0.016-1.06,0.448-2.642-1.442-2.508c-1.337,0.098-3.27-1.063-3.682,1.635c-0.419,2.75-2.706,1.139-4.121,1.354
	c-1.657,0.252-1.316-1.237-1.362-2.229c-0.249-5.361-0.242-5.361,4.992-5.361C137.508,203.16,140.266,203.16,143.022,203.16z"/>
<path id="festival" style="fill:#FEFEFE;" d="M246.283,226.771c-3.182,0-6.364,0.035-9.545-0.021
	c-0.853-0.016-2.202,0.479-2.328-0.891c-0.114-1.204-0.988-2.938,0.88-3.562c1.537-0.513,1.11-1.623,1.126-2.578
	c0.055-3.182,0.031-6.364,0.016-9.544c-0.006-1.119,0.204-2.119-1.432-2.688c-1.421-0.495-0.711-2.241-0.604-3.416
	c0.111-1.201,1.26-0.877,2.041-0.896c1.801-0.046,3.606-0.076,5.406,0.012c0.939,0.043,2.455-0.576,2.54,1.016
	c0.066,1.224,1.152,3.135-1.317,3.531c-1.047,0.17-0.914,1.023-0.916,1.738c-0.016,3.604-0.019,7.211,0.006,10.817
	c0.004,0.505,0.021,1.137,0.304,1.495c1.021,1.285,9.079,0.267,9.874-1.225c1.039-1.951,2.807-0.818,4.229-0.979
	c1.635-0.182,1.41,1.178,1.432,2.212c0.02,0.849-0.092,1.709,0.023,2.543c0.28,2.017-0.59,2.56-2.509,2.472
	C252.439,226.668,249.359,226.771,246.283,226.771z"/>
<path id="festival" style="fill:#FEFDFD;" d="M166.089,226.773c-0.953-0.002-1.909,0.052-2.856-0.017
	c-0.856-0.062-2.157,0.415-2.188-1.062c-0.022-1.148-0.698-2.553,0.758-3.4c0.177-0.104,0.454-0.066,0.601-0.191
	c1.478-1.28,1.076-13.289-0.584-14.418c-1.422-0.966-0.775-2.26-0.775-3.398c0-1.465,1.285-1.087,2.155-1.11
	c1.901-0.049,3.808-0.049,5.713-0.002c0.874,0.021,2.192-0.36,2.2,1.06c0.007,1.188,0.998,2.945-1.06,3.438
	c-1.382,0.329-1.186,1.279-1.19,2.189c-0.021,3.384-0.023,6.771,0.004,10.156c0.006,0.793-0.281,1.873,0.865,2.104
	c2.375,0.476,1.478,2.313,1.379,3.553c-0.146,1.792-1.786,0.916-2.801,1.077C167.584,226.867,166.829,226.773,166.089,226.773z"/>
<path style="fill:#FDF5F4;" d="M274.055,185.216c-1.63-0.391-2.762-1.278-2.606-3.036c0.147-1.713,1.28-2.648,3.002-2.498
	c1.579,0.142,2.515,1.269,2.467,2.766C276.861,184.109,275.714,185.029,274.055,185.216z"/>
<path style="fill:#FDF8F6;" d="M28.053,182.198c-0.097,1.821-1.085,2.907-2.73,2.942c-1.677,0.034-2.785-1.121-2.779-2.789
	c0.006-1.496,0.964-2.588,2.551-2.678C26.835,179.575,27.763,180.605,28.053,182.198z"/>
<path style="fill:#F48E79;" d="M264.446,224.924c-0.082,0.82,0.006,1.768-1.228,1.786c-0.531,0.01-1.301-0.074-1.211-0.649
	c0.126-0.801-1.494-2.015,0.479-2.42C263.109,224.113,264.055,224.093,264.446,224.924z"/>
<path style="fill:#F6A291;" d="M264.446,224.924c-0.857-0.117-1.919,0.079-1.96-1.283c0.628-0.27,1.197-0.967,1.959-0.26
	C264.999,223.896,265.098,224.409,264.446,224.924z"/>
<path id="cma_2_" style="fill:#0066A3;" d="M161.203,83.471c-2.023,5.448-3.51,11.105-6.391,16.22
	c-2.295,4.079-5.036,7.802-8.304,11.173c-1.734,1.788-3.017,1.673-4.749,0c-5.213-5.034-8.896-10.991-11.245-17.808
	c-1.033-2.995-2.016-6.008-3.022-9.012c-0.71-0.606-0.672-1.628-1.18-2.346c0.429,0.642,0.388,1.209-0.163,1.756
	c-0.403,5.073-0.805,10.146-1.211,15.22c-0.665,8.311-8.041,15.708-16.355,16.519c-1.982,0.193-1.41-0.994-1.292-1.976
	c0.986-8.211,1.984-16.42,2.982-24.629c1.279-10.525,2.642-21.041,3.784-31.581c0.286-2.634,1.098-3.62,3.883-3.432
	c4.119,0.277,8.275,0.202,12.405,0.02c2.197-0.098,3.147,0.611,3.777,2.746c2.911,9.867,6.008,19.678,9.046,29.507
	c0.213,0.688,0.24,1.488,1.039,1.961c1.004-0.75,1.011-1.986,1.351-3.01c3.137-9.464,6.279-18.926,9.266-28.438
	c0.653-2.081,1.581-2.87,3.802-2.767c4.129,0.189,8.275,0.146,12.408,0.014c1.965-0.063,2.791,0.489,3.038,2.559
	c1.161,9.688,2.485,19.356,3.755,29.032c0.18,1.372,0.222,2.68-0.309,4.051c-2.828,7.32-5.563,14.677-8.352,22.015
	c-0.254,0.668-0.268,1.682-1.068,1.825c-0.992,0.177-1.332-0.884-1.766-1.544c-1.675-2.547-2.389-5.432-2.604-8.424
	c-0.461-6.347-0.844-12.699-1.258-19.049C161.967,84.049,162.271,82.308,161.203,83.471z"/>
<path id="cma_1_" style="fill:#0066A3;" d="M204.688,73.106c-1.734,4.783-3.136,8.628-4.521,12.478
	c-2.299,6.387-4.51,12.807-6.902,19.159c-3.722,9.88-11.578,11.992-19.731,11.725c-2.429-0.08-1.071-1.567-0.761-2.394
	c3.109-8.239,6.293-16.449,9.449-24.671c4.215-10.993,8.481-21.967,12.581-33.005c0.804-2.164,1.89-2.906,4.162-2.803
	c4.13,0.188,8.277,0.123,12.413,0.02c1.635-0.041,2.457,0.503,3.037,2.057c7.264,19.464,14.577,38.911,21.926,58.343
	c0.696,1.842,0.659,2.612-1.673,2.509c-4.024-0.176-8.065-0.155-12.094-0.004c-2.015,0.075-2.996-0.575-3.698-2.51
	c-2.082-5.729-2.174-5.697-8.344-5.697c-3.928,0-7.854-0.051-11.778,0.023c-1.66,0.031-2.013-0.417-1.396-2.009
	c1.492-3.855,2.932-7.739,4.199-11.673c0.596-1.849,1.868-1.644,3.244-1.657c6.521-0.058,6.521-0.066,4.486-6.144
	C207.859,82.583,206.43,78.313,204.688,73.106z"/>
<path id="cma" style="fill:#0066A3;" d="M108.095,71.275c-10.596-5.428-18.205-5.126-23.919,0.769
	c-5.217,5.381-6.358,14.557-2.649,21.308c3.994,7.271,10.581,9.227,22.988,6.606c-0.664,5.346-1.272,10.561-1.987,15.761
	c-0.192,1.394-1.577,1.244-2.554,1.392c-15.995,2.407-32.573-8.498-36.526-23.995c-4.28-16.776,4.502-33.712,20.541-39.622
	c8.119-2.993,16.19-2.583,24.26,0.246c1.435,0.503,1.964,1.184,1.728,2.781C109.267,61.34,108.73,66.186,108.095,71.275z"/>
<path style="fill:#97C1DA;" d="M161.203,83.471c-0.062-0.817-0.062-1.609,0.994-2.174c0.604,0.9,0.541,1.82,0.277,2.776
	C162.051,83.873,161.626,83.672,161.203,83.471z"/>
<path style="fill:#B8D4E5;" d="M126.151,83.455c-0.233-0.71-0.193-1.388,0.246-2.051c0.992,0.633,1.114,1.607,1.097,2.641
	C127.046,83.848,126.599,83.651,126.151,83.455z"/>
<path style="fill:#F1684B;" d="M142.165,33.805c1.484-3.454,3.781-4.887,6.812-5.077c2.701-0.17,4.91,0.969,6.5,3.188
	c0.789,1.099,0.931,1.916-0.879,1.9C150.607,33.783,146.617,33.805,142.165,33.805z"/>
<path style="fill:#F16B4F;" d="M149.246,269.533c-1.062-0.006-2.104-0.088-3.066-0.612c-1.59-0.864-3.706-1.894-3.355-3.72
	c0.311-1.619,2.547-0.604,3.903-0.691c2.519-0.162,5.057-0.06,7.586-0.031c0.584,0.004,1.361-0.25,1.643,0.521
	c0.242,0.664-0.258,1.195-0.65,1.68C153.742,268.59,151.732,269.575,149.246,269.533z"/>
<path id="border" style="fill:#ED6549;" d="M290.361,129.384c1.062,3.569,0.688,6.989-0.4,10.564
	c-3.008,9.887-5.711,19.866-8.564,29.909c-2.266-0.941-2.119-2.475-1.615-4.235c2.062-7.213,4.078-14.44,6.111-21.662
	C287.382,139.101,288.872,134.242,290.361,129.384z"/>
<path id="festival" style="fill:#F16B50;" d="M215.654,207.838c1.309,2.911,2.335,5.198,3.484,7.758
	c-2.035,0.81-4,0.36-5.902,0.398c-0.891,0.02-1.031-0.559-0.711-1.274C213.467,212.625,214.426,210.537,215.654,207.838z"/>
<path id="border" style="fill:#EF6649;" d="M280.718,194.91c0.649-0.639,1.298-1.276,1.945-1.914
	c0.915-0.841,1.83-1.684,2.745-2.525c1.02-0.844,2.039-1.688,3.06-2.533c1.009,2.187-0.198,3.941-1.11,5.756
	c-0.616,0.675-1.33,1.236-2.084,1.748c-1.058,0.701-2.027,1.483-2.584,2.672c-0.095,3.304,1.543,6.191,2.197,9.313
	c0.256,1.472,0.889,2.841,1.198,4.296c0.144,0.709,0.322,1.41,0.549,2.1c0.209,0.68,0.438,1.354,0.614,2.046
	c0.158,0.687,0.312,1.375,0.553,2.045c0.229,0.685,0.461,1.368,0.68,2.058c0.328,1.451,0.756,2.874,1.25,4.277
	c0.354,1.759,0.992,3.443,1.42,5.184c0.125,0.563,0.252,1.129,0.429,1.683c0.144,0.409,0.266,0.825,0.386,1.241
	c0.217,0.709,0.436,1.418,0.609,2.14c0.277,1.394,0.898,2.729,0.693,4.207c-0.17,0.323-0.42,0.55-0.76,0.688
	c-1.822,0.231-3.566,0.373-2.713-2.406c-0.227-0.854-0.452-1.709-0.679-2.564c-0.399-1.273-0.8-2.548-1.201-3.82
	c-1.06-3.61-2.118-7.219-3.179-10.828c0.113-0.937-0.227-1.752-0.662-2.543c-0.621-1.914-1.243-3.826-1.865-5.74
	c-0.129-1.58-0.41-3.118-1.263-4.496c-0.136-1.567-0.452-3.08-1.281-4.448c-0.433-1.485-0.864-2.972-1.296-4.456
	C278.45,196.505,280.146,196.123,280.718,194.91z"/>
<path id="border" style="fill:#F06649;" d="M6.447,237.72c0.81-1.188,1.173-2.515,1.22-3.94
	c1.375-3.283,2.204-6.732,3.069-10.172c-0.845-1.982,0.635-3.625,0.795-5.459c0.219-0.719,0.472-1.429,0.699-2.145
	c0.295-0.816,0.458-1.67,0.687-2.503c0.206-0.683,0.421-1.36,0.627-2.041c0.275-0.801,0.413-1.64,0.645-2.455
	c0.309-0.937,0.658-1.86,0.885-2.823c0.078-0.424,0.177-0.837,0.288-1.25c0.236-0.822,0.497-1.638,0.732-2.459
	c0.355-1.359,0.869-2.688,0.737-4.132c-0.805-1.731-2.608-2.421-3.846-3.696c-1.203-1.242-2.397-2.441-1.808-4.399
	c0.067-0.621,0.017-1.349,1.018-1.104c1.03,0.868,2.061,1.736,3.09,2.604c0.752,1,1.588,1.91,2.706,2.518
	c0.849,1.408,2.815,1.918,3.067,3.807c-0.641,1.441-1.254,2.889-1.301,4.5c-0.234,0.844-0.468,1.688-0.704,2.533
	c-0.641,0.504-0.562,1.229-0.587,1.92c-0.806,0.688-0.565,1.662-0.693,2.535c-0.779,1.162-1.144,2.453-1.189,3.842
	c-0.82,2.265-1.975,4.435-1.947,6.938c-1.733,4.125-2.797,8.452-3.796,12.797c-0.863,1.354-1.054,2.915-1.384,4.438
	c-0.666,1.268-1.722,1.609-3.057,1.291C6.415,238.479,6.431,238.102,6.447,237.72z"/>
<path style="fill:#E16247;" d="M12.195,189.139c-0.59,0.305-0.7,0.867-0.774,1.446c-0.271,0.192-0.446,0.127-0.525-0.196
	c0.344-0.865-0.843-1.701-0.048-2.578C11.296,188.254,11.746,188.695,12.195,189.139z"/>
      <filter id="borderBlur">
        <feGaussianBlur stdDeviation="2"/>
    </filter>
    </a>
</svg>
