<?xml version="1.0" encoding="utf-8"?>
<!-- Generator: Adobe Illustrator 16.0.0, SVG Export Plug-In . SVG Version: 6.00 Build 0)  -->
<!DOCTYPE svg PUBLIC "-//W3C//DTD SVG 1.1//EN" "http://www.w3.org/Graphics/SVG/1.1/DTD/svg11.dtd">
<svg version="1.1" id="riverfront" xmlns="http://www.w3.org/2000/svg" xmlns:xlink="http://www.w3.org/1999/xlink" x="0px" y="0px"
	 width="286px" height="137.3px" viewBox="0 0 286 137.3" enable-background="new 0 0 286 137.3" xml:space="preserve">
<g id="riverfront_1_">
	<path fill="none" d="M191.6,118.6L191.6,118.6L191.6,118.6L191.6,118.6L191.6,118.6L191.6,118.6z"/>
	<path fill="none" d="M47.5,20.8L47.5,20.8L47.5,20.8z"/>
	<path fill="none" d="M48.9,120.9c0.1,0,0.2-0.1,0.2-0.1C49,120.8,48.9,120.8,48.9,120.9z"/>
	<path fill="none" d="M-26.3,96.701L-26.3,96.701L-26.3,96.701z"/>
	<path fill="none" d="M191.6,118.6L191.6,118.6L191.6,118.6z"/>
	<path fill="none" d="M19.8,59.3c0.3-0.1,0.6-0.3,0.9-0.1c4.1,2,8.1-0.1,12.1-0.5c-4.4-0.2-8.9,0.2-13.3-0.4
		C19.7,58.5,19.9,58.9,19.8,59.3z"/>
	<path fill="none" d="M230.4,125.701c-0.301,0-0.5-0.101-0.801-0.201C229.9,125.6,230.1,125.701,230.4,125.701z"/>
	<path fill="none" d="M-18.8,55.5L-18.8,55.5L-18.8,55.5z"/>
	<path fill="none" d="M204,99.4L204,99.4L204,99.4z"/>
	<path fill="none" d="M129.8,87L129.8,87L129.8,87z"/>
	<path fill="none" d="M175.1,104.9c-0.699,0.1-1.399,0.2-2.1,0.2C173.7,105.201,174.4,105.201,175.1,104.9z"/>
	<path fill="none" d="M198.4,42.7L198.4,42.7C198.4,42.7,198.4,42.6,198.4,42.7C198.4,42.6,198.4,42.6,198.4,42.7L198.4,42.7
		L198.4,42.7z"/>
	<path fill="none" d="M238.7,78.9L238.7,78.9L238.7,78.9z"/>
	<path fill="none" d="M244.6,105.8L244.6,105.8C244.6,105.8,244.6,105.701,244.6,105.8C244.6,105.701,244.6,105.8,244.6,105.8
		L244.6,105.8z"/>
	<path fill="none" d="M54.8,128.201L54.8,128.201L54.8,128.201L54.8,128.201L54.8,128.201z"/>
	<path fill="none" d="M237,110v0.101V110L237,110z"/>
	<path fill="none" d="M188.3,125.701c0.7,0,1.4,0.199,2-0.201C189.6,125.6,188.9,125.701,188.3,125.701
		C188.2,125.701,188.3,125.701,188.3,125.701z"/>
	<path fill="none" d="M173.1,125.701C172.4,125.6,171.7,125.6,170.9,125.5C171.7,125.8,172.4,125.8,173.1,125.701z"/>
	<path fill="none" d="M191.6,118.6L191.6,118.6L191.6,118.6L191.6,118.6z"/>
	<path fill="#935D49" d="M176.3,94.8L176.3,94.8c-0.2-0.1-0.3-0.2-0.5-0.301c0.4-0.399,0.9-0.1,1.4-0.199l0,0l0,0
		c0-0.1,0-0.301,0-0.5c-0.5,0-1,0.1-1.4-0.5c-0.5-0.9-1.7-0.1-2.3-0.801l0,0l0,0c-2.1,0.601-4.5,0.801-6.1,2.101
		c-1.601,1.101-3,1.399-4.7,1.5c-0.7,0-1.4-0.101-2,0.2c-3.5,1.6-6.9,3.3-10.7,4.199c-3.5,0.801-6.4,3.101-9.9,4
		c-2.9,0.701-5.2,2.701-8.3,3.301c-1.4,0.3-3,0.199-4.3,1c-2.4,1.5-5.2,2-7.9,2.3c-1,0.101-1.5,0.601-1.9,1.399l0,0l0,0
		c-0.6,0.801-1.6,0.4-2.4,0.5l0,0l0,0c-3.1,1.301-6.5,2-9.3,4c-0.5,0.4-1.2,0.601-1.9,0.601c-2.4,0-4.6,0.101-6.8,1.3
		c-1.6,0.9-3.5,1.2-5.4,1.4c-4,0.5-7.9,1.9-11.8,2.8c-2.7,0.601-5.6,1-8.3,2.3l0,0l0,0c-0.7,0.6-1.6,0.301-2.3,0.4l0,0l0,0
		c-0.1,0-0.3,0-0.4,0.1c-1.3,0.9-2.7,0.9-4.1,0.801l0,0c-1.4,0.1-2.8-0.101-4.1,0.899c-1.5,1.2-3.3-0.101-5,0.3
		c-6.3,1.5-12.6,3.301-19.2,3l0,0c-0.4,0.7-1,0.9-1.8,1l0,0c-1.7,0.801-3.7-0.199-5.3,0.5c-1.9,0.801-1.6-0.4-1.5-1.4
		c-1.4-0.1-1.7,1.201-2.7,1.701c-1.5,0.899-3-0.201-4.4,0c-3.4,0.5-6.9,0.699-10.3,0.399c-2.5-0.2-1.8,1.5-1.9,2.8
		c-0.2,2.301,1.4,0.6,2.1,0.9c0.2,0.1,0.4,0,0.7,0c0-0.2,0-0.5,0-0.7c0-0.601-1.1-0.7-0.5-1.5c0.1-0.101,0.4-0.2,0.6-0.2
		c0.9,0.2,1,0.801,0.9,1.6l0,0l0,0c0.5,0.601,1.2,0.801,2,0.9c3,0.301,5.9-0.199,8.9-0.3c5.2-0.3,10.3-1.399,15.5-2.2
		c-0.2-0.6-0.7-0.699-1.2-0.699S36.9,133.5,37,132.9s0.6-0.6,1-0.6s0.7,0,1.1,0.1c2.1,0.5,4.1,1.4,6.2-0.1c1-0.7,2.4-0.4,3.5,0.3
		c1.4-1,2.8-0.2,4.2,0.101c0.7-0.801,1.5-0.4,2.3-0.4l0,0l0,0c1.3,0.199,2.5-0.7,3.7-0.801c5.3-0.5,10.4-1.5,15.5-2.899
		c5-1.399,10.3-2,15.1-4l0,0l0,0c0-0.3,0-0.601,0-1l0,0c0.4-1.5,1.6-0.899,2.5-0.899c17,0,34,0,50.9,0c17.6,0,35.2,0,52.8,0l0,0
		c0.4,0.1,1.101,0.299,0.4,0.799c-0.5,0.301-1.3,0.201-2,0.201c-32.8,0-65.7,0-98.5,0c-0.8,0-1.7,0.299-2.4-0.4l0,0
		c-1.1,0.199-2.2-0.4-3.2,0.4l0,0c0.6,0.1,1.3-0.201,1.8,0.5l0,0c1.8,0,3.6,0,5.5,0l0,0l0,0c3.4,0,6.7,0,10.1,0l0,0
		c3.9,0,7.9,0,11.8,0l0,0c2.2,0,4.3,0,6.5,0l0,0l0,0c1.5,0,3,0,4.5,0l0,0c0.9,0,1.9,0,2.8,0l0,0l0,0c25.9,0,51.8,0,77.7,0l0,0
		c1.101,0,2.2,0,3.2,0l0,0c9.6,0,19.2-0.101,28.7-0.101c1.6-0.601,3.1-0.7,4.7,0c0.699,0,1.399,0.101,2,0.101
		c2.8-0.301,5.699,0.399,8.5-0.4c0.1-0.5-0.2-1.301,0.699-1.301c0.7,0,0.601,0.701,0.601,1.201l0,0v0.1l0,0
		c0.899,0.1,1.899-0.4,2.8,0.4l0,0c1,0,2.1,0,3.1-0.101l0,0c0.101-0.3,0.301-0.7,0.4-1c0.2-0.399,0.5-0.899,1-0.601
		c0.5,0.301,0,0.801,0.1,1.201c0.5,0.199,1.101,1.199,1.4-0.201c0.1-0.799,0.5-1.199,1.4-1l0,0c0.8,0.301,0.199,1.4,1,1.701l0,0
		c0.1-0.101,0.199-0.301,0.399-0.4l0,0c0-0.6-0.2-1.4,0.8-1.2c0.7,0.101,0.5,0.8,0.5,1.3l0,0c0.301,0.7,0.9,0.4,1.4,0.4
		c0.4,0.1,0.7-0.7,1.2-0.301c1.7,1.301,3.6,0.701,5.399,0.801c1,0.1,1.801-0.4,1.801-1.6c0-1.101-0.4-2-1.601-2.101
		c-1-0.101-2.1-0.601-3.1,0c-1.2,0-2.4,0-3.7,0l0,0l0,0c-2.6,0.7-5.2,0.8-7.8,0.3c-0.3,0-0.5-0.1-0.8-0.199H264.8l0,0l0,0
		c-3.3,0-6.6,0-10,0l0,0l0,0c-1.6,0.6-3.1,0.699-4.7,0l0,0l0,0c-1.899,0.5-3.699,0.699-5.5-0.4l0,0l0,0c-4.899,1.1-9.8,0.8-14.8,0.9
		c-1.399,0-2-1.101-3-1.5c-0.399,0.299-0.899,0.699-1.3,1l0,0l0,0l0,0c-0.6,0.399-1.3,0.199-2,0.199l0,0c-5,0.4-10.1,0.4-15.1,0
		c-0.7,0.1-1.4,0-2.2-0.199l0,0l0,0l0,0c-0.9,0-1.7,0-2.601,0l0,0l0,0c-1.3,0.899-2.8,0.299-4.1,0.399l0,0l0,0c-1.1,0-2.2,0-3.301,0
		c0.101-0.3,0.301-0.399,0.5-0.399c-0.1,0-0.299-0.101-0.399-0.101C195.4,121,194.5,121,193.6,121c-7.1,0-14.199,0-21.199,0
		c-1.101,0-2.301,0.201-2.9-1.199c-0.3-0.801-1.1-0.5-1.5,0c-1.3,1.8-2.3,0.699-3.4-0.2c-1.5-1.2-2-3.2-3.699-4.3
		c-0.601-1.9-3-2.4-3.101-4.6l0,0l0,0c-1.2-0.801-2-1.801-0.899-3.301l0,0l0,0c0-0.9,0.699-1.4,1.3-1.8c0.899-0.5,1.399-1.399,2-2.2
		c1.399-2.1,3.3-3.4,5.899-3.8c2.101-0.3,4.101-1.101,5.9-2.3c0.6-0.301,1.2-0.6,1.8-0.9l0,0c0.5-0.8,1.2-0.4,1.9-0.4l0,0l0,0
		c0.3-0.1,0.8,0,0.899-0.5l0,0C176.3,95.201,176.3,95,176.3,94.8z M14.5,135.8c-0.3-0.301-1.1,0-1.1-0.801
		c0.1-0.5,0.6-0.399,0.9-0.399c0.4,0,1,0,0.9,0.601C15.2,135.701,15,136,14.5,135.8z M17.5,135.5c-0.1,0.4-0.5,0.5-0.9,0.4
		s-0.6-0.5-0.5-0.9c0.1-0.5,0.5-0.399,0.9-0.399C17.5,134.701,17.5,135.1,17.5,135.5z M19.8,135.1c-0.1,0.601-0.3,1-0.9,0.8
		c-0.7-0.199-0.4-0.8-0.5-1.199l0,0l0,0c0.6-0.9,1.4-0.801,2-0.201C20.7,134.8,20.1,135,19.8,135.1z M118.1,115.701
		c-0.2,0-0.4-0.201-0.5-0.4c-0.1-0.301,0.2-0.4,0.4-0.301c0.2,0,0.3,0.201,0.5,0.301C118.4,115.6,118.3,115.8,118.1,115.701z
		 M141.7,122.201c-0.2,0-0.4-0.201-0.5-0.301c-0.1-0.3,0.1-0.6,0.4-0.699c0.3-0.101,0.5,0.199,0.6,0.5
		C142.3,122.1,142,122.3,141.7,122.201z M219.9,123.3c6.3,0,12.6,0,18.899,0c0,0.1,0,0.1,0,0.199c-6.3,0-12.7,0-19,0
		C219.8,123.4,219.8,123.3,219.9,123.3z M153.6,105.9c0.301,0,0.601,0.2,0.5,0.5c-0.1,0.2-0.399,0.5-0.6,0.6
		c-0.3,0.101-0.5-0.199-0.5-0.6C153,106.1,153.2,105.9,153.6,105.9z M153.6,111.201c-0.6-0.101-1-0.301-1.1-0.9s0.3-0.801,0.8-0.801
		c0.601,0.101,0.9,0.4,1,0.9C154.3,111,154,111.3,153.6,111.201z M155.1,115.8c-0.5,0.1-0.699-0.2-0.699-0.7
		c0-0.399,0.3-0.5,0.6-0.399c0.3,0.1,0.7,0.199,0.8,0.799C155.6,115.6,155.3,115.8,155.1,115.8z"/>
	<path fill="#935C4A" d="M41.3,57.3L41.3,57.3L41.3,57.3z"/>
	<path fill="#935C4A" d="M41.3,57.3L41.3,57.3L41.3,57.3z"/>
	<path fill="#935C4A" d="M12.5,60.1L12.5,60.1L12.5,60.1z"/>
	<path fill="#935C4A" d="M8.9,64.8c0.5-0.2,1.2-0.2,1.8-0.1c2.8,0.5,4.8,2.2,6.8,4.1c0.3,0.3,0.6,0.5,0.9,0.3
		c0.2-0.1,0.3-0.5,0.4-0.7c0.1-0.7,0-1.3-0.5-1.9l0,0c-0.5-0.3-1.1-0.6-1-1.3c0.1-0.5,0.6-0.5,1.1-0.5l0,0c2,0,3.9-0.1,5.9-0.1l0,0
		c1-0.7,2.2-0.3,3.2-0.4l0,0c0.7-0.1,1.3-0.2,2-0.2c4.7-0.3,9.2-1.9,13.9-2.1l0,0c1.1-0.7,2.4-0.2,3.5-0.5l0,0
		c0.4-0.5,1-0.4,1.5-0.4c3.1,0.3,6.2-0.5,9.1-1.2c4.2-1,8.4-2.5,12.8-3c2.2-0.2,4.3-1.2,6.5-1.8l0,0c0.7-0.6,1.5-0.3,2.3-0.4l0,0
		c6.4-0.9,12.5-3.5,18.9-4.5c4.9-0.8,9.4-3.1,14.2-4.5c5.6-1.5,11.2-3.4,16.7-5.5c4.2-1.6,8.5-3.1,12.7-4.6
		c3.9-1.4,7.7-3.1,11.7-4.4c5.5-1.7,10.7-4.1,16.3-5.5l0,0c0.301-0.5,0.9-0.4,1.301-0.5l0,0l0,0c4.5-2.2,9.399-3.1,14-4.8
		c1.199-0.4,2.1-1.4,3.399-1.4c3-0.1,5.7-1,8.3-2.4c-0.3-0.7-1-1.6,0.601-1.8l0,0l0,0c0.3,0,0.8-0.1,0.899,0.1
		c0.801,1.7,1.5,1.5,3,0.6c0.801-0.5,1.9-1.1,2.9-1.2c5.5-0.2,10.6-2.3,16-3.1c6.1-0.9,11.9-3.7,18.2-3c0.3,0,0.7-0.5,1-0.8l0,0
		c2-0.6,4-0.7,6-0.9l0,0c0.899,0,1.8,0,2.7-0.4c0.699-0.4,1.899,0.5,2.199-0.6c0.7-2.9,3.7-1.2,5.2-2.6c0.101-0.1,2.5-0.3,3,0.6
		c1.3,2.2,2.8,0.5,4.2,0.5c0.3-0.5-0.6-2.5,1.2-0.7c1,0.9,2.6,0.2,3.899,0.4l0,0c4.301,0.1,8.5-0.8,12.801-0.4
		c1.399,0.1,0.6-1.2,1-1.8c0.5-1-0.301-1.3-0.801-1.3c-1.6-0.1-3.3-0.4-4.8,0c-4.5,1.1-9.1,0-13.7,1c-3.5,0.8-7.3,0.9-10.899,1.2
		l0,0l0,0c-1,0.7-2.2,0.3-3.2,0.4l0,0l0,0c-1.5,0.3-3.1,0.6-4.7,0.5c-0.6-0.1-1.1-0.5-1.7,0c-1.199,1.2-2.699,0.8-4,0.9
		C234.5,4.5,231.4,4.9,228.4,6l0,0l0,0c-0.7,0.6-1.601,0.3-2.301,0.4l0,0l0,0c-1,0.1-2.1,0-3.1,0.3c-4.7,1.2-9.5,2-14.2,3.5
		c-2.7,0.8-5.5,1.1-8.2,2c-2.5,0.8-5.1,1.6-7.899,1.2c-0.9-0.1-1.7-0.5-2.8-0.3c-4,0.7-8.101,1.1-12.101,1.6l0,0l0,0
		c-0.8,0-1.6,0.2-2.3-0.4l0,0l0,0c-0.5,0-1.4-0.1-1.5,0.1c-0.8,1.6-2.2,1.2-3.5,1.3l0,0l0,0c-1.3,0.9-2.8,0.2-4.1,0.4l0,0
		c-0.801,0-1.601,0-2.4,0l0,0l0,0c-0.3,0.3-0.6,0.6-0.9,0.9c0.301,0.5,0.601,0.9,0.9,1.4l0,0l0,0c-0.2,2.5-0.8,3.1-3.2,3.2
		c-2.899,0.1-5.7-0.2-8.6-0.6l0,0l0,0c-0.7,0.3-1.2-0.5-1.8-0.5c-4.601-0.4-9.101-1.6-13.7-1.4l0,0l0,0c-0.9,0-1.9,0-2.8,0l0,0l0,0
		c-4,0.2-7.9,0.4-11.9,0.5c-1.7,0-1.7,0.7-1,1.9l0,0c0.8,0,1.6,0,2.4,0l0,0c0.1,0,0.3,0,0.4-0.1l0,0c1.8-0.8,3.7-0.3,5.5-0.3l0,0
		c2.9-0.4,5.9,0.9,8.8,0c0.4-0.1,0.9-0.1,1.2,0.4l0,0c0.7,0,1.5,0.1,2.2,0.1l0,0c2.2-0.4,4.3,0.5,6.4,0.9l0,0c0.6,0,1.3-0.2,1.8,0.3
		l0,0c3.399,0.3,6.8,0.5,10.1,0.7c0.5,0,1.101-0.2,1.5-0.1c0.5,0.2,1.3,0.3,1.101,1.1c-0.101,0.8-0.801,0.5-1.301,0.6
		c-0.899,0.1-2.3-0.2-2.6,0.2c-1.2,1.5-2.7,1.2-4.2,1.1c-4.7-0.2-9.3-1.4-14.1-1.6c-5.9-0.3-11.7-0.3-17.6-0.1c-0.9,0-1.6,0.8-2-0.7
		c-0.1-0.5-1.4-0.5-1.5,0c-0.5,2.7-2.9,1.4-4.2,2.1l0,0l0,0c-1,0.8-2.1,0.2-3.1,0.4l0,0l0,0c-2.6,0.9-5.2,0.3-7.8,0.4
		c-1.3,0.1-2.5,0.1-2.3,1.9c0.3,2,1.6-0.4,2.2,0.4l0,0c1.1,0,2.1-0.1,3.2-0.1l0,0c5.1-0.1,10.1-1.5,15.2-1.8l0,0
		c1-0.7,2.1-0.3,3.2-0.4l0,0c2.4-0.2,4.8-0.6,7.2-0.4c5.4,0.4,10.8,0.5,16.2,1.3c0.5,0.1,1.199-0.3,1.3,0.5c0.1,0.8-0.4,1.2-1.2,1.3
		c-2.4,0.4-4.8,1.8-7.4,0.9l0,0l0,0c-0.9-0.1-1.9,0.3-2.8-0.4l0,0c-2.3-0.2-4.7,0-7-0.4c-1.3-0.2-2.7-0.5-4,0.4
		c0,0.8-0.2,1.7,0.9,1.8l0,0c3.5-0.3,7,0.8,10.4,0l0,0l0,0c0.5,0,1,0,1.1,0.5c0.1,0.7-0.5,0.7-1,0.9l0,0c-3.4,1.2-6.8,2.3-10.5,1.7
		c-0.3,0.5-0.6,1.2-1.4,0.6l0,0c-2.5-0.3-4.9,0.7-7.3,0.5l0,0c-0.8,0.6-1.8,0.3-2.6,0.5l0,0c-1.6,0.6-3.3,0.9-5,0.8
		c-1.2-0.1-1.4,0.8-1.4,1.6c-0.1,1,0.8,0.6,1.3,0.6l0,0c0.9-0.7,1.9-0.3,2.8-0.4l0,0c2.6-0.4,5.3-0.8,7.9-1.6
		c0.6-0.2,1.4-0.6,1.6,0.4c0.2,0.8-0.7,1-1.2,1.1c-2,0.3-3.8,1.4-5.8,1.6c-2,0.2-3.7,1.9-5.7,1.6c-3.8-0.5-7.6,0.4-11.4,0.1
		c2.4,0.9,4.9,0.2,7.3,0.4l0,0l0,0c1.4,0.5,3,0.5,4.7,0.4c-0.7,0.8-1.4,0.4-2,0.5c-18.4,0-36.8,0-55.3,0c-0.8,0-1.7,0.3-2.4-0.4l0,0
		c-1.1,0-2.2-0.1-3.3,0.2c0.9-1.3,2.4-0.1,3.3-1l0,0c-1.7,0-3.8-1.1-5-0.7c-2.7,0.7-5.2,0.3-7.8,0.5c-4.1,0.4-8.3,0.3-12.4-0.3
		c-1.4-0.2-2.7,1.2-4.1,0.1c-2.1,0-4.3-0.1-6.4-0.1c-2.3-0.4-4.6-0.1-6.8-0.1h-0.1c0.1,0.1,0.1,0.3,0.1,0.5c-0.8,0-1.6,0.1-1.9,1.1
		l0,0l0,0C8.8,44,9,44.6,8.8,45.2l0,0l0,0c2.3,0,4.6,0,7,0c1.5,0.1,3-0.3,4.5,0.4l0,0c2.3,0.5,4.7,1,6.9-0.4l0,0
		c5.9,0,11.9,0,17.8-0.1c0.4,0,0.8,0,1,0.4c0.3,0,0.5,0,0.8,0l0,0c0.7-0.8,1.6-0.4,2.3-0.4c13.6,0,27.1,0,40.7,0l0,0
		c2.2,0,4.3,0,6.5,0c0.7,0,1.5,0,2.2,0l0,0c0.7,0.1,1.8-0.6,1.9,0.4c0.1,1.1-1.1,0.8-1.9,0.9c-0.6,0.8-1.6,0.4-2.3,0.9l0,0
		c-0.5,0.1-0.9,0.1-1.4,0.2l0,0l0,0c-1,0.3-2,1.1-3.2,0.5c-0.4,0.1-0.9,0.3-1.3,0.4l0,0l0,0c-0.6,0.7-1.4,0.5-2.1,0.5l0,0l0,0
		c-0.3,0.4-0.7,0.4-1.1,0.4l0,0c-0.8,0.6-1.8,0.7-2.8,0.8c-0.3,0-0.6,0.1-0.9,0.1l0,0c-1,1-1.8-0.1-2.8-0.1l0,0l0,0
		c-0.5,0-0.9,0-1.4,0l0,0c-1.6,0.7-3.3,0.9-5,0.1l-0.1,0.1l0,0l0,0c-2.1,0-4.2,0-6.2,0l0,0c-3.1,0.6-6.2,0.7-9.2-0.1l0,0l0,0
		c-1.5,0-3,0.1-4.5,0.1l0,0l0,0c0,0.1,0,0.3-0.1,0.4l0,0l0,0c0.2,0.7-0.6,1.1-0.5,1.8c0.2,0.2,0.4,0.4,0.5,0.6
		c0.1,0.1,0.3,0.3,0.4,0.4c4.4,0.6,8.9,0.2,13.3,0.4c-4,0.4-8,2.5-12.1,0.5c-0.2-0.1-0.6,0-0.9,0.1c0,0.1-0.1,0.3-0.2,0.4
		c0,0.1,0,0.3-0.1,0.4l0,0c-0.2,2.5-2.1,0.9-3.1,1.3l0,0l0,0c-1.7,0.4-3.7-0.6-5.1,1l0,0l0,0c-0.7,1-1.7,1-2.7,0.9
		c-1.7,1-2.2,0.2-2.2-1.4l0,0l0,0c-0.4,0-0.8,0-1,0.4l0,0c0.2,0.7,0,1.1-0.9,0.9c0-0.2,0-0.4,0-0.6c-0.1,0-0.1,0-0.2,0
		c-1.8,0-3.5,0.6-5.3,0.8c-1.4-0.4-2.7,0.2-4.1,0.3l0,0l0,0c-0.6,0.5-1.2,1-1.8,1.5l0,0l0,0c-0.7,0.8-1.5,0.9-2.3,0.1l0,0l0,0
		c-0.9,0.7-1.8,0.9-2.8,0.3l0,0c-1.5,0.2-2.5,1.6-4.1,1.7c-0.4,0-0.9,0.4-1.2,0c-0.4-0.5-0.1-0.9,0.2-1.4c0.4-0.8,0.7-1.6,1-2.4l0,0
		c-0.3-0.2-0.7-0.4-1-0.5l0,0l0,0c-0.3,0.1-0.6,0.3-0.8,0.4l0,0c-0.3,0-0.6,0-0.9,0l0,0l0,0c-0.7,0-1.5,0.1-2.2,0.1l0,0l0,0l0,0l0,0
		l0,0c-0.4,0.5-0.4,1.4-1.4,1.4c0.1,0.2,0.3,0.3,0.4,0.5l0,0c0.5,0,1.4-0.4,1.3,0.6c-0.1,1-1,1.1-1.8,1.1l0,0l0,0
		c-0.1,0.1-0.3,0.1-0.4,0.1l0,0l0,0c-0.2,0.4-0.4,0.8-1,0.8c-0.5,0-0.9,0-1.4,0c-0.1,0-0.3,0.1-0.4,0.1l0,0l0,0
		c-0.2,0.1-0.3,0.3-0.5,0.4c-0.4,0.3-1.6-0.5-1.2,0.9C8,65.8,8.4,65.1,8.9,64.8z M275.6,1.5C275.7,1,276.1,1,276.4,1.1
		c0.5,0.1,0.399,0.5,0.399,0.9c-0.1,0.5-0.5,0.5-0.899,0.4C275.6,2.2,275.6,1.9,275.6,1.5z M271.2,1.5c0.399,0,0.6,0.3,0.399,0.6
		c-0.1,0.2-0.399,0.5-0.6,0.5c-0.4,0.1-0.5-0.3-0.4-0.6C270.6,1.7,270.9,1.6,271.2,1.5z M268.7,2c0-0.2,0.3-0.2,0.399-0.4
		c0.101,0.2,0.2,0.3,0.2,0.5c0,0.2-0.1,0.4-0.399,0.9C268.8,2.4,268.7,2.2,268.7,2z M265.2,1.8c0.3-0.1,0.5,0.2,0.6,0.5
		c0,0.5-0.3,0.6-0.7,0.7c-0.3,0.1-0.399-0.1-0.5-0.3C264.6,2.3,264.7,1.9,265.2,1.8z M261,2.4c0.6,0.1,0.8,0.3,0.8,0.8
		s-0.3,0.6-0.8,0.6s-0.6-0.3-0.6-0.7C260.5,2.6,260.7,2.4,261,2.4z M246.1,3.9c0.301-0.1,0.5,0.2,0.5,0.6
		c-0.1,0.4-0.399,0.7-0.8,0.5c-0.2-0.1-0.399-0.4-0.6-0.5C245.5,4.3,245.8,4,246.1,3.9z M221.2,8.8c0.3,0,0.6,0,0.5,0.6
		c-0.2,0.2-0.5,0.4-0.8,0.5c-0.101,0-0.5-0.4-0.5-0.6C220.4,8.9,220.8,8.8,221.2,8.8z M166.8,18c1.101,0,2.3,0,3.4,0
		c1,0,1.899,0,2.899,0c3.7-0.3,7.301-1.2,11-2.1c0.601-0.2,1.4-0.6,1.7,0.3c0.4,1.1-0.8,0.9-1.3,1.1c-4.4,1.4-8.9,2.4-13.3,3.6
		c-1.4,0.4-2.8,0.6-4.2,0.9c-0.9,0.2-2.2,0.6-2-0.6C165.1,20.1,164.5,17.9,166.8,18z"/>
	<path fill="#935D49" d="M181.4,78.4c0.699,3.5,2.399,4.301,6,3.301c5-1.4,3.8-1.701,3.1-4.801l0,0c-0.7-0.4-0.9-1.1-0.9-1.9l0,0
		l0,0c0-1.5,0-3,0-4.5l0,0l0,0c0-2.299,0-4.6,0-7l0,0l0,0c0-3.1,0-6.1-3.699-7.3l0,0c-0.5,0-1.101,0.2-1.301-0.4
		c-0.199-0.7,0.301-1,0.801-1.3l0,0c0.8-1.2,2.699-1.4,2.699-3.2c0.101-0.8,0.301-1.6,0.801-2.3l0,0l0,0c0.6-4.4,0.1-8.9,0-13.3
		c-0.101-4.3-1.801-6.6-5.101-6.8c-2-0.1-3.8,0.4-5.7,0.8c-2.3,0.6-4.5,1.6-6.8,2.1c-2.7,0.6-5.899,1.2-7.399,4.2
		c-0.301,0.7-1.4,0.2-1.4,1.3c2.1-0.1,2.4,1.1,2.2,2.9c-0.101,0.6,0,1.2-0.101,1.8l0,0c0,3.5,0,7,0,10.6c0,7.2,0,14.4,0,21.601l0,0
		l0,0c0,2.699,0,5.399,0,8.1l0,0l0,0l0,0l0,0c0,1.1,0,2.199,0,3.3l0,0l0,0c0.2,0.7-0.3,1.3-0.3,2c0.7,0-0.399,2.101,1.7,1
		c1.6-0.899,3.6-1.8,5.6-2.2c1.301-0.199,1.9-1,1.801-2.5C173.3,78,173.3,72,173.3,66.1c0-3.3,1.601-4.8,5-4.8
		c1.9,0,2.601,1.2,2.5,3.2C180.8,69.201,180.5,73.9,181.4,78.4z M177,55c-0.4,0.1-0.7,0.3-1.1,0.4c-3,0.9-3,0.9-2.801-2.6
		c0.101-0.6,0.101-1.2,0.101-1.8c0.399-3-0.4-6.1-0.2-9.1c0.1-2.9,2.9-4.9,5.9-4.6c2,0.3,2.8,1.2,2.3,3c-0.7,3.1,0.2,6.1,0,9.2
		C181.1,51.5,178.9,54.5,177,55z"/>
	<path fill="#935D49" d="M252.8,42.3L252.8,42.3c-0.3-2.8-0.1-5.5-0.1-8.3l0,0c0-0.9,0-1.8,0-2.7l0,0c0-5,0-10,0-14.9l0,0
		c0-1.1,0-2.2,0-3.3l0,0c0-0.9-0.101-1.8-1.4-1.8c-0.7,0.7-1.5,0.4-2.3,0.4l0,0l0,0c-0.4,0-0.8,0.1-1.1,0c-1.9-0.6-2.801-0.1-3,1.9
		c-0.101,1.1-0.101,2.1-0.101,3.2l0,0l0,0c0,0.9,0,1.9,0,2.8l0,0l0,0c-0.2,2.2,0.7,4.3,0.101,6.5c-0.601,1.9-1.101,3.8-1,5.9
		c0.1,1.6,1.5,2.9,0.899,4.6l0,0c0,0.5,0,0.9,0,1.4l0,0l0,0c0.601,2,0.5,4,0.5,6c0,0.5-0.1,0.9-0.7,0.8c-0.5,0-0.6-0.3-0.6-0.8
		c0.1-1.4-0.8-2.5-1-3.8l0,0c-0.5-0.5-0.8-1.1-0.8-1.8l0,0c0.3-1.6-1.101-2.6-1.4-3.9c-1.6-6.1-4.7-11.7-6-17.9
		c-0.3-1.3-0.8-2.4-2.7-1.5c-1.199,0.5-2.6,0.7-4,0.6c-1.5-0.2-2,0.6-2,2c0.101,2.2,0,4.4,0,6.6l0,0c0,0.6,0.2,1.3-0.399,1.9l0,0
		l0,0c-0.101,2.1-0.3,4.3,0,6.5l0,0l0,0c0.8,1.8,0.3,3.7,0.3,5.5l0,0l0,0c0,0.4,0,0.9,0,1.3l0,0c0,0.8,0,1.6,0,2.4l0,0l0,0
		c-0.2,1.7,0.6,3.5-0.8,5c-0.2,0.3-0.3,1,0.3,1.4l0,0l0,0c1.1,1.4,0.3,3.1,0.5,4.6l0,0l0,0c0,1.5,0,3,0,4.5c0,0.9,0,1.9,0,2.8
		c-0.1,3.5-0.3,6.9-0.3,10.4c0,0.7,0.5,0.601,0.899,0.101c1.2-0.9,2.4-2,4.101-0.9c0.8-0.2,1.7,0.3,2.3-0.5l0,0
		c-0.3-0.1-0.7-0.1-0.6-0.5c0.3-10.3,0.199-20.6,0.1-30.9c0-0.2,0.1-0.4,0.2-0.8c0.3,0.6,0.5,1,0.7,1.5l0,0c0.1-0.8-0.2-1.8,0.8-2
		c0.7-0.2,0.8,0.7,1,1.2l0,0l0,0c0,0.7-0.101,1.5,0.1,2c2.601,5,3.7,10.6,6.3,15.5c0.601,1.1-0.399,2.6,0.9,3.2
		c1,0.4,1.2,1.5,1.2,1.9c-0.2,2.5,1.5,4.1,2.399,6.1l0,0l0,0c0.801,0,1.601,0,2.4,0l0,0c0.8,0,1.4-0.7,2.2-0.4l0,0l0,0
		c1,0,1.8-0.2,1.899-1.4l0,0c0-1.5,0-3,0-4.5c0,0,0,0,0-0.1c0-2.1,0-4.2,0-6.3c0,0,0,0,0-0.1c-0.5-2.6,0.7-5.1,0.301-7.7l0,0
		C252.5,44.4,252.8,43.3,252.8,42.3z M229,17.6c-0.1-0.4,0.2-0.5,0.6-0.6c0.4,0,0.801,0.2,0.801,0.6c0,0.2-0.301,0.5-0.601,0.6
		C229.4,18.3,229.1,18,229,17.6z M230.5,27.1c-0.2,0-0.4-0.2-0.5-0.3c0-0.1,0.2-0.3,0.3-0.5c0.2,0.1,0.5,0.2,0.601,0.3
		C231.1,26.9,230.8,27.1,230.5,27.1z M234.5,24.3c-0.2,0-0.4-0.2-0.4-0.4c0-0.1,0.2-0.3,0.4-0.5c0.2,0.1,0.5,0.2,0.5,0.4
		C235.1,24.2,234.8,24.3,234.5,24.3z M242.3,48.5c-0.1,0.4-0.2,0.9-0.3,1.5c-0.9-0.5-0.8-1.1-0.7-1.5c0.101-0.7,0.3-1.3,1-1.7
		c0.101-0.1,0.5,0.1,0.601,0.2C243.2,47.6,242.4,47.9,242.3,48.5z M242.5,44.8c-0.3-0.1-0.5-0.3-0.5-0.6c0.1-0.3,0.4-0.5,0.7-0.4
		c0.2,0.1,0.3,0.3,0.3,0.5C243,44.6,242.8,44.8,242.5,44.8z M243.7,48.5c0-0.3,0.2-0.6,0.6-0.5c0.2,0,0.4,0.3,0.4,0.4
		c0.1,0.3-0.101,0.6-0.4,0.6C243.9,49,243.6,48.9,243.7,48.5z M244.4,51.1c0.6,0,0.8,0.4,0.8,0.9c0.1,0.4,0.2,1-0.5,1
		c-0.5,0-0.8-0.4-0.8-0.8C243.9,51.7,243.9,51.2,244.4,51.1z M244.6,55.9c-0.5,0-0.6-0.3-0.6-0.7c0-0.5,0.3-0.6,0.7-0.6
		c0.5,0,0.6,0.3,0.6,0.7C245.3,55.8,245,56,244.6,55.9z M245.7,61.2c-0.101,0-0.2-0.4-0.2-0.5c0-0.2,0.2-0.3,0.4-0.5
		c0.199,0.3,0.3,0.4,0.3,0.6C246.2,61,246,61.3,245.7,61.2z M245.9,47.2c-0.2-0.2-0.4-0.4-0.4-0.5c0-0.2,0.1-0.5,0.2-0.6
		c0.3-0.1,0.6,0.1,0.5,0.4C246.2,46.8,246,46.9,245.9,47.2z M247.5,17.8c-0.5,0.1-0.7-0.2-0.7-0.6c0-0.4,0-0.9,0.5-1
		c0.5,0,0.8,0.2,0.8,0.6C248.1,17.3,248,17.7,247.5,17.8z M250.2,22.9c-0.4,0-0.7-0.2-0.7-0.7c0-0.4,0.2-0.8,0.6-0.8
		c0.5-0.1,0.601,0.3,0.601,0.7C250.8,22.5,250.7,22.8,250.2,22.9z"/>
	<path fill="#935D49" d="M195,52.7c0,1.5,0.6,3.1-0.5,4.6l0,0l0,0c-1,0.4-0.9,1.3-0.8,2.1c0.399,3.7,0.8,7.3,1.399,11
		c0.4,3,2.2,4.9,5.101,5.7c5.7,1.5,10.7,0,15-3.8c3.399-3.1,5.399-7,5.399-11.6c0-11.8,0.4-23.6-0.5-35.4
		c-0.399-0.3-0.399-0.8-0.5-1.3l0,0l0,0c-0.899-1.8-2.399-2.8-4.1-3.9c-2.3-1.4-5,0.1-7.1-1.4c-0.101-0.1-1.9-0.3-2.5,0.5
		c-1.301,1.9-3.601,2.1-5.2,3.8c-2.4,2.5-4.9,5.1-5.5,8.3c-0.7,3.6-2.3,7.5-0.7,11.4l0,0C195.5,46,194.9,49.4,195,52.7z M219.3,27.7
		c0.101,0,0.2,0,0.2,0c0,10.6,0,21.2,0,31.8c-0.1,0-0.2-0.1-0.2-0.1C219.3,48.9,219.3,38.3,219.3,27.7z M206.2,27.9
		c1-0.8,2.7-1.2,4.3-0.7c1.6,0.6,1.5,2.4,1.4,3.2c-0.5,3.2,0.399,6.3,0.199,9.5c-0.3,3.2,0.101,6.5-0.1,9.7
		c-0.3,3.9-0.1,7.8,0.1,11.7c0.2,3-1.6,4.7-3.399,6.4c-1.4,1.4-3.2,0.3-4.8-0.1c-1.2-0.3-0.4-1.7-0.601-2.6c-0.1-0.6,0-1.2,0-1.8
		l0,0l0,0c0-2.1,0-4.3,0-6.4l0,0l0,0c0-1.5,0-3,0-4.5l0,0l0,0c0-1.1,0-2.2,0-3.2c0-2.6,0-5.2,0-7.7c0-2.1,0-4.3,0-6.4
		C202.4,31.8,204,29.6,206.2,27.9z"/>
	<path fill="#935D49" d="M134.1,94.4c-0.7-1.5-0.2-3.1-0.3-4.6l0,0l0,0c0-3.301,0-6.6,0-9.801c0-2.1-1-3.699-3.2-4.299
		c-0.5-0.101-1.3,0.1-1.3-0.601c0-0.399,0.4-0.899,0.7-1.3c1.1-1.1,2.4-2,2.8-3.801c1.5-6.1,1.2-12.1-0.1-18.1
		c-0.4-1.7-1.5-3.1-3.5-3.3l0,0l0,0c-1,0-1.9,0-2.9,0l0,0l0,0c-2,0.2-4.1-0.2-6,1.2c-0.5,0.4-1.4,1.3-2.6,1.2
		c-2.7-0.4-4.7,2-7.4,2.2c-0.6,0-1,0.7-0.9,1.4c0.1,0.7-0.4,1.1-0.9,1.5l0,0l0,0c-0.3,0.4-0.4,0.8-0.1,1.2l0,0
		c0.7,0.6,1.2,1.4,0.9,2.2c-0.7,1.9,0,3.7,0,5.6c0.1,5.3,0,10.5,0,15.8c0,1.4-0.5,2.801-0.4,4.2c0.4,5.3,1.2,10.7-0.5,15.899
		c-0.2,0.701-0.4,1.601,0.1,2.101c1,1.101,0.9,2.3,0.8,3.601c-0.1,1.6,0.5,1.699,1.9,1.299c1.5-0.399,2.7-1.6,4.3-1.6
		c1.7-0.1,2.1-1,2.1-2.6c-0.1-5.801,0-11.6,0-17.4c0-4.1,0-4.1,4-5.199c3.3-0.9,4.4-0.201,4.1,3.199c-0.3,3.5-0.4,7-0.3,10.4
		c0.1,1.9,0,3.9,1.2,5.6l0,0c1,0.801,2.2,1,3.4,0.9l0,0C136.2,99.9,136.2,99.9,134.1,94.4z M123.6,73L123.6,73L123.6,73
		c-0.5,1.201-2,0.9-2.8,1.701C118,75.6,118.2,75.5,118,72.6c-0.4-3.9,0-7.7-0.4-11.5c-0.2-2.6,1.3-3.5,3.2-4.1
		c0.8-0.2,1.6-0.2,2.4-0.5c0.9-0.3,1.5,0.1,1.8,1.2c0.8,3.3,0.4,6.6,0.2,9.9c-0.1,1-0.2,2.101-0.3,3.101
		C125,71.701,124.8,72.6,123.6,73z M125.4,75.9c-0.1-0.1-0.3-0.199-0.3-0.4c-0.1-0.299,0-0.6,0.4-0.6c0.1,0,0.4,0.2,0.4,0.4
		C126,75.5,125.9,75.8,125.4,75.9z"/>
	<path fill="#935D49" d="M10.7,127.8c1.7-0.1,3.5,0,5.2-0.1c0.7,0,1.2,0,1.2-1.101c-0.1-2.7,0-5.5,0-8.3c-0.6,0.1-1,1.1-1.6,0.5
		s0-1,0.2-1.6c0.3-1,1.7-1.101,1.5-2.4c-0.5-3.2-0.1-6.4-0.1-9.5l0,0l0,0c2-1.801,4.2-0.801,6.4-0.6l0,0l0,0
		c1.4,0.6,1.9,1.699,1.8,3.199c-0.1,3.4,0.1,6.9-0.1,10.301c-0.1,1.5,1.1,2.5,0.9,3.699c-0.5,3.7,1.7,5.9,5.3,5.1
		c0.7-0.199,1.3-0.199,2-0.299c1.9-0.101,2.4-0.801,1.6-2.5c-1.5-3.101-1.4-6.301-1.3-9.601C33.8,109.701,35.4,104,29.2,101
		c-0.7-0.399-0.3-1.1,0.2-1.5c3.5-2,4.1-5.199,4-8.799c-0.1-3.5-0.3-7-0.4-10.4c-0.2-4.2-4.2-7.4-8-7.5c-4.3-0.1-8.7,0.6-13,0.4
		c-0.9,0-1.9,0-2.8,0l0,0c-1,1.799-0.1,3.699-0.5,5.5l0,0l0,0c0,4,0,7.899,0,11.899l0,0l0,0c0,0.5,0,0.899,0,1.399l0,0l0,0l0,0l0,0
		c-0.4,0.601,0.2,1.201,0.1,1.9l0,0l0,0c0,0.5,0,0.9,0,1.4c0,10.1,0,20.3,0,30.4C8.8,127.4,9.1,128,10.7,127.8z M29.9,123.201
		c0.6,0,1,0.199,0.8,0.799c-0.3,0.701,0,1.801-1.1,1.9c-1,0.1-0.5-0.8-0.7-1.3C28.9,123.8,28.9,123.201,29.9,123.201z M28.5,91.4
		c0.1,0,0.3,0.2,0.5,0.4c-0.2,0.199-0.2,0.5-0.4,0.5c-0.4,0.1-0.5-0.2-0.5-0.5C28.1,91.6,28.3,91.4,28.5,91.4z M19.1,80.201
		c1.2,0.1,2.4,0,3.6,0c1,0,1.6,0.399,1.7,1.399l0,0l0,0c0.9,3.601,0.2,7.3,0.4,11c-0.5,1.8,0.4,4.399-2.7,4.8
		c-1.1,0.1-2.3-0.1-3.4,0.6c-0.7,0.4-1.6-0.299-1.7-1.5c-0.1-2,0.3-3.899,0.5-5.799c0.2-2.801-0.6-5.5-0.5-8.301
		C17,80.6,17.6,80,19.1,80.201z M12.7,127.3c-0.9,0-0.7-0.801-0.7-1.301l0,0l0,0l0,0c0.5,0,1.3-0.399,1.4,0.601
		C13.4,127,13.2,127.3,12.7,127.3z M14.1,109.9c0.8,0,1.6,0.2,1.6,1.2c0,0.5-0.4,0.7-0.8,0.601c-0.7-0.301-1.8-0.301-1.9-1.301
		C13,109.701,13.7,110,14.1,109.9z M13.7,105.1c-0.1,0.399-0.5,0.601-0.9,0.7c-0.4,0-0.7-0.1-0.8-0.6c0-0.4,0.1-0.701,0.6-0.801
		C13.1,104.4,13.4,104.6,13.7,105.1z M11.7,96.701c0.3,0,0.6,0.199,0.5,0.5c-0.1,0.199-0.4,0.5-0.6,0.6c-0.3,0.1-0.5-0.2-0.5-0.6
		C11.2,97,11.4,96.701,11.7,96.701z M11.4,115.8c0.2-0.5-0.2-1.301,0.8-1.301c0.3,0,0.6,0.201,0.6,0.5c0,0.701,0.5,1.701-0.8,1.801
		l0,0l0,0c-0.3,0.4-0.6,1.1-1.2,0.6C10.2,116.701,10.9,116.201,11.4,115.8z M10.8,120.701c0.6-0.801,1.1,0,1.5,0.5
		c0.1,0.1,0.4,0,0.6,0c0.1-0.9-0.4-1.9,0.4-2.701l0,0c0.4-0.5,0.9-0.699,1.3-0.199c0.4,0.6,0.1,1.1-0.7,1.199l0,0l0,0
		c-0.1,0.701,0.5,1.101,0.8,1.701l0,0c2.5,0.899,1.2,2.699,1.1,4.299c0.1,0.5,0.7,1.201-0.2,1.201c-0.9,0.1-0.5-0.9-0.8-1.301l0,0
		c-0.2-1.1,0.4-2.3-0.5-3.3l0,0c-0.3-0.101-0.6-0.2-0.8-0.399c-0.1,0.699,0.1,1.5-1,1.399l0,0l0,0c0.5,0.399,1,0.7,1.5,1.101
		c-0.4,0.899-2.4-0.201-2,1.6l0,0l0,0l0,0c-0.8,0-1.7,0.1-1-1.1c0.3-0.601,0.7-1.101,1.1-1.701l0,0c-0.1-0.399,0.1-1-0.4-1.199
		C11,121.701,10.1,121.6,10.8,120.701z"/>
	<path fill="#935D49" d="M24.8,92.6c-0.1-0.101-0.1-0.2-0.1-0.3C24.7,92.4,24.7,92.5,24.8,92.6z"/>
	<path fill="#935D49" d="M65.4,103.8c-0.5-0.1-0.4-0.7-0.5-1.1c-0.4-0.201-0.3-0.601-0.4-1c-0.5-4.4-0.8-8.9-1.4-13.301
		c-0.8-6.5-1.9-13-2.7-19.6c-0.2-2-1.5-1.8-2.3-1.2c-1.2,0.9-2.4,0.6-3.7,0.7c-0.5,0.1-1,0.3-1.5,0.4l0,0l0,0
		c-1.7,0-2.1,0.799-1.9,2.5c0.2,1.299,0.9,2.299,1.1,3.6c0.7,5,1.7,10,2.8,15c0.7,3.3,1.5,6.699,2,10.1c1.1,7,2.9,13.9,3.7,21
		c0,0.4,0,1.301,1,1c2.3-0.699,4.5-1.3,6.8-1.8c0.8-0.2,1.3-0.399,1.4-1.2c0.2-2.3,0.5-4.5,0.9-6.8c1-5.8,1.4-11.7,3.2-17.399
		c0.3-0.9,0.6-1.9,0.5-2.9c-0.2-5,1.7-9.7,2.4-14.6C77.4,72.8,78.5,68.4,79.4,64c0.2-1-0.2-1.2-1-1.2c-2,0.2-3.7,1.3-5.6,1.6
		c-1.8,0.3-2.2,1.3-2.4,2.6c-0.3,1.8-0.4,3.6-0.5,5.4l0,0c-0.1,0.801,0.3,1.6-0.4,2.301l0,0c-0.8,4.899-1,9.799-2.4,14.6l0,0l0,0
		c0,0.8,0,1.6-0.1,2.4l0,0c0,3.699-0.5,7.399-1.2,11l0,0C65.9,103.1,66.2,103.8,65.4,103.8z"/>
	<path fill="#935D49" d="M104.5,104.3c0.2-1.6-0.4-2.1-1.9-1.7l0,0c-1.2,0.5-3.1-0.2-3.8,0.601c-1.4,1.6-3.5,1.1-5,2.399
		c-0.6,0.5-1.4,0.3-2.1-0.101c-0.9-0.5-0.3-1.1-0.2-1.699s0.1-1.2,0.1-1.801c-0.1-3.299-0.2-6.699-0.5-10
		c-0.2-2.299,0.5-3.399,2.9-3.6c1.7-0.1,3.5-0.699,5.2-1.4c2.3-1,0.6-3.299,1.1-4.799c0.1-0.4,0.3-0.701,0.4-1
		C100.8,80.6,100.4,80,99.9,80c-2.4,0.201-4.7,0.701-6.8,1.801c-0.5,0.3-0.9,1-1.5,0.699c-0.7-0.299-0.4-1.1-0.4-1.6
		c0-3.3,0-6.6,0-9.8c0-2-0.9-4.7,2.9-4.3c0.3,0,0.5-0.2,0.8-0.3c1.5-0.5,2.9-1.1,4.4-1.6c6.2-2,5.5-0.7,5.6-7.3
		c0-1.8-1.1-2.7-2.6-1.9c-1.9,1-4.1,0.9-6,1.9c-3.6,1.7-7.6,2.7-11.5,3.6c-2.5,0.6-1.6,3-2.9,4.1c0.2,0,0.3,0,0.5,0l0,0
		c1,0.4,1,1.2,1,2.1c0,15.4,0,30.801,0,46.301c0,0.5,0.1,1.1-0.4,1.5l0,0c-0.1,0.699-0.4,1.5,0.9,1.299c0.1,0,0.1-0.1,0.2-0.1
		c0.5-0.199,1-0.4,1.5-0.6l0,0l0,0c3.2-0.9,6.5-1.9,9.7-2.9c1.8-0.6,3.5-1.6,5.6-1.6c2.4,0,3.5-1.2,3.6-3.4l0,0l0,0
		C104.5,106.6,104.3,105.4,104.5,104.3z"/>
	<path fill="#935D49" d="M160.7,37.1c-0.2-0.4,0.399-1.6-1-1.1c-3.101,1.1-6.101,2.5-9.3,3.1c-3.2,0.5-5.9,2.9-9.3,2.5
		c-0.2,0-0.4,0.4-0.6,0.6l0,0c-1,1.3-0.4,2.8-0.5,4.2c0,0.9,0.3,1.8-0.4,2.6c0,1.2,0,2.5,0,3.7c0.6,1.2,0.6,2.4,0,3.6l0,0
		c0,1.2,0,2.5,0,3.7l0,0c0.6,0.6,0.4,1.4,0.4,2.2c0,4.6,0,9.299,0,13.9c0,0.7,0.2,1.5-0.4,2.2c0,0,0,0,0-0.1c0,0,0,0,0,0.1
		c-0.1,0.1-0.1,0.3-0.1,0.4l0,0l0,0c0,0.899,0,1.899,0,2.799c0,4.9,0.1,9.801-0.1,14.601c-0.1,1.601,0.6,1.5,1.7,1.399
		c1.4-0.1,2.2-1.699,3.2-1.699c4.101,0.1,3.601-2.301,3.5-5.2c-0.2-6.3-0.1-12.5-0.1-18.8c0-0.7-0.101-1.4,0.899-1.5l0,0l0,0
		c0.5-1,1.601-0.801,2.4-1.3c1.8,0,3.5-0.6,5.3-0.9c1-0.2,1.7-0.9,1.4-1.7c-0.601-1.4,0.2-2.7,0.1-4c-0.1-0.8,0.5-2-0.399-2.5
		c-0.801-0.4-1.601,0.2-2,1c-0.101,0.1-0.4,0.2-0.601,0.2c-1.899,0.1-3.7,0.5-5.3,1.6c-0.9,0.6-1.7,0.1-1.7-1c0-4,0-8.1,0-12.1
		c0-1.4,0.601-2.2,2-2.8c3.101-1.4,6.601-1.7,9.7-3.3c1.1-0.6,1.1-1.2,1.2-2l0,0C160.7,40.2,160.7,38.7,160.7,37.1L160.7,37.1z
		 M144.2,55.4c-0.4,0-0.7-0.2-0.8-0.6c0-0.5,0.2-0.9,0.7-0.9c0.301,0,0.801,0.3,0.801,0.6C145.1,55,144.6,55.3,144.2,55.4z
		 M154.8,66.5c0.101-0.3,0.2-0.6,0.5-0.5c0.2,0,0.3,0.4,0.3,0.5c-0.1,0.4-0.1,0.8-0.5,0.7C154.8,67.1,154.8,66.8,154.8,66.5z
		 M158.3,39.7c-0.399,0-0.7-0.3-0.6-0.7c0-0.2,0.3-0.6,0.5-0.6c0.5-0.2,0.6,0.2,0.7,0.6C158.8,39.3,158.8,39.7,158.3,39.7z"/>
	<path fill="#935C49" d="M281.1,8.8c-1.899,0.3-4-0.3-5.8,0.2c-3.2,0.8-6.3-0.2-9.5,0.5c-2.6,0.6-5.399,0.4-8.1,0.6
		c-1.3,0.1-2.3,0.9-2.9,1.9c-0.8,1.2,1,1,1.2,1.7c0.2,0.6,0.4,1.1,0.4,1.7c0.1,3.3,0.199,3.3,3.3,2.5c0.8-0.2,1.6-0.2,2.399-0.4
		c2.4-0.7,2.9-0.2,2.5,2.4c-0.1,0.6,0,1.2,0,1.8c0,2.1,0.4,4.4-0.199,6.4c-0.9,3.2-0.5,6.3-0.101,9.3c0.601,5.8,0.3,11.6,0.5,17.5
		c0.101,2.2,0.101,4.4-0.1,6.7c-0.2,2.4,0.899,3.1,3.3,2.4c0.8-0.2,1.6-0.4,2.4-0.2c1.1,0.3,2.6,0.1,3-0.5
		c0.6-0.8,0.6-2.4-0.101-3.4c-0.399-0.6-0.8-1.5-0.399-1.8c1.3-1,0.699-2.2,0.8-3.3c0.3-3.3-0.7-6.6-0.3-9.9c0-1.2,0-2.4,0-3.6l0,0
		l-0.101,0.1l0,0c-0.399,0.1-0.899,0.6-1.1,0c-0.2-0.7,0.399-1,1.1-1c1.3-1.2-0.399-2.5,0.2-3.6l0,0l0,0c0-0.9-0.5-2,0.4-2.8
		c0.399-1.2-1.101-2.4,0-3.7l0,0l0,0c0-0.9,0-1.7,0-2.6l0,0v-0.1l0,0l0,0c-0.7-1.5-0.601-3,0-4.6c0-1.3,0.199-2.7-0.2-3.8
		c-0.601-1.8,0.399-2,1.6-2.1c1.8-0.1,3.601,0,5.4,0c0.6,0,1.5,0.3,1.399-0.8l0,0l0,0c-0.8-0.7-0.3-1.5-0.399-2.3l0,0l0,0
		c0-1.3-0.4-2.7,0.3-4C282.1,9.3,281.8,8.7,281.1,8.8z M268.5,12.6c0.1,0.1,0.4,0.3,0.5,0.6c0.1,0.4-0.2,0.6-0.5,0.4
		c-0.2-0.1-0.4-0.4-0.5-0.6S268.1,12.6,268.5,12.6z M267.4,19c0.199,0,0.5,0.1,0.5,0.2c0.1,0.3-0.101,0.5-0.4,0.5
		c-0.2,0-0.3-0.2-0.6-0.3C267.1,19.2,267.3,19,267.4,19z M265.5,26.6c0.1-0.5-0.3-1.3,0.7-1.3c0.899,0,0.7,0.8,0.7,1.3
		c0,0.3,0,0.6,0,0.9l0,0l0,0c0,0.5,0,1,0,1.5l0,0c0.1,0.8-0.101,1.6,0.3,2.4c0.399,0.8,0,1.5-0.9,1.6c-1,0.1-0.7-0.8-0.7-1.3
		c0-0.9,0-1.8,0-2.7l0,0c0-0.5,0-1,0-1.5C265.5,27.2,265.5,26.9,265.5,26.6z M267.2,51.2c0,0.4-0.2,0.6-0.5,0.6
		s-0.601-0.1-0.601-0.5c-0.1-0.3,0-0.6,0.301-0.7C266.8,50.5,267,50.9,267.2,51.2z M266,35.6c0.1,0,0.3,0.3,0.3,0.5
		c0,0.2-0.2,0.3-0.399,0.6c-0.2-0.3-0.4-0.4-0.4-0.6C265.5,35.8,265.7,35.5,266,35.6z M265.9,44.4c0.1-0.1,0.5-0.2,0.6-0.1
		c0.7,0.9,0.3,1.8-0.1,2.7C266,46.1,265.2,45.4,265.9,44.4z M266.4,62.7c-0.301-0.1-0.5-0.4-0.4-0.7c0.1-0.4,0.3-0.5,0.7-0.5
		c0.399,0.1,0.5,0.3,0.5,0.6C267.2,62.6,266.9,62.8,266.4,62.7z M266.4,57.3c-0.301,0-0.7,0-0.7-0.4c0-0.6,0.5-1,1-1.1
		c0.3-0.1,0.6,0.1,0.6,0.5C267.3,56.8,266.9,57.1,266.4,57.3z M268,35.3c-0.6,0.1-0.8-0.3-0.8-0.8s0-1.1,0.8-1.1
		c0.6,0,0.7,0.5,0.7,0.9C268.7,34.9,268.6,35.3,268,35.3z M268.9,15.7c-0.4,0-0.7-0.2-0.7-0.7c0-0.6,0.5-0.3,0.8-0.4
		c0.5-0.2,0.6,0,0.7,1.1C269.7,15.5,269.3,15.7,268.9,15.7z M269.5,12.3c-0.5-0.1-0.8-0.4-0.7-0.9c0-0.1,0.3-0.4,0.4-0.4
		c0.5,0,0.8,0.3,0.899,0.8C270,12.1,269.8,12.4,269.5,12.3z M272.3,49.1c0.3,0.7-0.399,1.1-0.8,1c-0.8-0.1-0.9-0.9-1-1.6
		c-0.1-0.5,0.1-0.9,1-0.9C272.1,47.7,272.1,48.6,272.3,49.1z M271.4,34.8c0-0.4,0.1-0.7,0.6-0.8c0.4,0,0.7,0.2,0.7,0.6
		c0,0.5-0.2,0.7-0.601,0.8C271.7,35.4,271.4,35.2,271.4,34.8z M272.6,39.1c-0.1,0.1-0.5,0.1-0.5,0.1c-0.5-0.5-0.6-1,0.101-1.7
		C272.5,38,273,38.4,272.6,39.1z M272.2,24.8c-0.601,0.1-1-0.2-1.2-0.8c-0.1-0.5,0.3-0.6,0.7-0.6c0.399,0,0.899-0.1,1,0.6
		C272.8,24.4,272.7,24.7,272.2,24.8z M272.1,17.4c-0.399-0.9-0.699-1.7-1.199-2.9C272.4,15.3,273.7,15.7,272.1,17.4z M273.1,11.3
		c0-0.2,0.2-0.4,0.4-0.5c0.3-0.2,0.6,0,0.6,0.4c0,0.3,0,0.6-0.399,0.6C273.4,11.9,273.1,11.6,273.1,11.3z M274.4,14.2
		c-0.301,0.1-1-0.3-0.801-0.5c0.601-0.9,1.4-1.6,2.2-2.4c0,0,0.4,0.3,0.7,0.5C275.9,12.8,275.4,13.8,274.4,14.2z M277.5,15.8
		c-0.8,0.2-1.1-0.2-1.2-1c0.8-0.2,1.3-0.2,1.601,0.4C278.1,15.6,277.8,15.7,277.5,15.8z M278.1,12.3c-0.399-0.5-0.399-1.2,0.2-1.7
		l0,0c0.3-0.4,0.8-0.5,1.101-0.1C279.8,11,279.8,11.6,279.3,12C279,12.6,278.4,12.7,278.1,12.3z M280.1,15.1
		c-0.5,0.1-0.699-0.4-1-0.7c0.101-0.6,0.5-1,1-1.1c0.5-0.1,0.5,0.4,0.5,0.8C280.6,14.4,280.6,15,280.1,15.1z"/>
	<path fill="#935D49" d="M39.5,123.701c2.4,2.299,5,1.5,7.7,0.799l0,0l0,0c0.4-0.5,0.5-1.199,0.5-1.799l0,0l0,0
		c0-16.801,0-33.601,0-50.4c0-0.4-0.1-0.801,0-1.1c0.7-1.4-0.2-1.5-1.2-1.4c-2.5,0.1-4.8,1-7.2,1.9C39.2,72.6,39.1,73.5,39,74.5
		c0.2,9.201-0.1,18.4,0.3,27.601c0.3,6.899,0.6,13.8-0.3,20.7C39,123,39.2,123.3,39.5,123.701z M43.2,120.5
		c0.5,0,0.7,0.201,0.7,0.601c0,0.3-0.2,0.601-0.5,0.601c-0.4,0.1-0.7-0.201-0.7-0.601C42.7,120.8,42.9,120.6,43.2,120.5z M41,75.201
		c0.1,0,0.1,0,0.2,0c0,8.199,0,16.399,0,24.5c-0.1,0-0.1,0-0.2,0C41,91.5,41,83.4,41,75.201z"/>
	<path fill="#935C49" d="M70.6,18.9c-0.8,0.8-1.8,0.3-2.8,0.3l0,0c-0.3,0-0.6,0-0.9,0l0,0c-2,0.2-4-0.2-5.9,0.5l0,0
		c-1.2,0-2.4,0.1-3.6,0.1c-0.8,0.7-3.6,0.2-1.8,2.6l0,0c0.2,0,0.3,0,0.5,0.1l0,0l0,0c4.8-0.8,9.7-1.4,14.6-1.2
		c2.5,0.1,5.1,0.1,7.7,0.3l0,0l0,0c1.2,0.1,2.5-0.4,3.7,0.4l0,0l0,0c3.8,0.3,7.7,0.7,11.4,1.5c0.9,0,1.8,0,2.8,0l0,0l0,0
		c1.3,0,2.7-0.4,3.9,0c3.5,1.1,6.9-0.1,10.3-0.1c0.6,0,0.9-0.5,0.9-1.1c0-0.8-0.6-0.7-1.1-0.7c-2.6,0-5.2-0.1-7.8,0
		c-6.3,0.2-12.5-0.4-18.7-1.4c-1.8-0.3-1.8-0.4-0.9-1.7c0.1-0.2-0.2-0.6-0.4-1l0,0c-0.5-0.1-0.9-0.3-0.8-0.9
		c0.1-0.5,0.5-0.5,0.9-0.5l0,0l0,0l0,0l0,0c2.7,0.5,5.4,0.8,8,1.5c2.2,0.6,4.5-0.4,6.6,0.6l0,0l0,0c2.1,0,4.2,0,6.3,0l0,0l0,0
		c0.8-0.6,1.8-0.4,2.6-0.4c2.7,0,5.7,0.7,8.1-0.1c5.6-1.8,11.2-1.8,16.9-2.1c6.3-0.4,12.6,0.5,18.9,1.4l0,0l0,0
		c1.4,0.2,2.9,0.2,4.2,0.8l0,0l0,0c0.5,0,0.899,0,1.399,0l0,0l0,0c0.7-0.9,0.4-1.6-0.399-2.1l0,0c-0.5,0-0.9-0.1-1.4-0.1l0,0
		c-2.3-0.4-4.899,0-6.899-1.7l0,0c-1.801,0.8-3.601-0.4-5.4-0.2l0,0c-0.7,0.2-1.3,0-1.8-0.4l0,0c-0.9,0-1.8,0-2.8,0l0,0
		c-0.7,0-1.7,0.6-1.9-0.7c-1.8,0-3.6,0-5.4,0l0,0c-0.7,0.5-1.3,1.1-2.2,0.7c-0.3-0.8,1.2-0.7,0.7-1.6c-0.7,0.1-1.6-0.4-2.1,0.3
		c-0.9,1.1-1.9,1.3-3.4,1.7c-4.4,1.1-8.8,1.1-13.2,0.7l0,0c-0.7,1.2-1.8,0.8-2.8,0.8l0,0c-1.4,0.6-3,0.8-4.5,0.9
		c-3.2,0.4-6.2-0.9-9.5-0.7c-2.9,0.1-6.4,0.2-9.2-1.8c-0.6-0.5-2-0.5-2.8,0.2c-1,0.9,0.6,1.2,0.5,1.9c-0.1,0.5,0.3,1.1-0.4,1.4l0,0
		c0.1,1-0.3,1.6-1.4,1.3l0,0c-0.7,0.6-1.5,0.5-2.3,0.5C74.8,18.9,72.7,18.9,70.6,18.9L70.6,18.9z"/>
	<path fill="#945C4A" d="M213.4,85.5C218.6,85.701,223.8,85.3,229,85.6c2.9,0.2,5.7-0.8,8.6,0c0.601,0.2,1.601,0.3,1.801-0.8
		c0.1,0.1,0.1,0.1,0.199,0.199c0-0.1,0-0.299-0.1-0.5c-0.9-1.1-2.1-1-3.3-1c-5.4-0.1-10.7-0.1-16,0.5c-0.3,0-0.5,0-0.8,0
		c0,0.201,0,0.4,0,0.601c-0.601-0.101-1.7,0.399-1.7-0.5c-0.101-1.2,1.1-0.601,1.7-0.8c0,0.199,0,0.3,0,0.5c0.199,0,0.3,0,0.5-0.1
		C221.6,83.4,223.3,83.4,225.1,82.9c6.9-1.699,13.9-2.699,20.9-4.3c0.7,0.2,1.2-0.101,1.8-0.5c0.8-0.8,1.8-0.3,2.7-0.3l0,0
		c0.5,0,0.9-0.1,1.4-0.1l0,0c2.699-1,5.5-0.9,8.199-1.301l0,0c0.4,0,0.801-0.1,1.2-0.1C262.4,75.6,263.6,76,264.7,76
		c0.399,0,0.899-0.1,1.3-0.1c1-0.9,2.1-1.199,3.2-0.3l0,0l0,0c0.2-0.2,0.399-0.3,0.5-0.5l0,0c0.7-1.101,1.5-0.3,2.2-0.101l0,0l0,0
		c0.5-0.5,1.1-0.899,1.8-0.799l0,0l0,0l0,0l0,0c0.8,1.299,0.7,1.6-0.9,2.199l0,0c0,0.1,0,0.301-0.1,0.4l0,0
		c0.2,0.5-0.3,1.3,0.399,1.5c0.5,0.1,0.9-0.7,1.301-1c1.199-0.801,1.5-2.7,3.399-2.5l0,0l0,0c0.9-1.6,2.7-1.1,4.101-1.801
		c-0.301-0.199-0.4-0.299-0.5-0.399c-2.9-0.899-5.801-1.899-7.9-4.4c-0.4-0.5-0.9-0.2-1.2,0.6c-0.5,1.5,1.5,1.3,1.4,2.401l0,0
		c-0.4,1.799-1.4,0.799-2.3,0.5l0,0c-1.801-0.4-3.7-0.5-5.301,0.1c-2.899,1.1-6,0.6-8.8,1.6l0,0c-0.8,0-1.6,0-2.399,0l0,0
		c-2.4,2.1-5.7,1.5-8.301,1.6c-4.199,0.201-8.3,0.801-12.3,1.9c-3,0.801-6.1,1-8.899,2.1c-2.301,0.9-4.9,0.201-7.101,1.4
		c-1.5,0.9-3.1,1-4.8,1.2c-1.1,0.101-2.7-0.601-3.4,1l0,0c-2.399,1.8-5.6,1.2-8.199,2.8C205.7,85.1,209.6,85.4,213.4,85.5z
		 M275.5,72.4c0.3-0.5,0.9-0.699,1.3-0.199c0.4,0.399,0.3,0.899-0.3,1.199l0,0c-0.2,0.4-0.4,0.9-0.9,0.5
		C274.9,73.5,274.9,72.9,275.5,72.4z M268.5,73.5c0.1-0.199,0.4-0.399,0.7-0.399c0.1,0,0.2,0.3,0.399,0.5
		c-0.3,0.2-0.5,0.5-0.699,0.5C268.4,74.1,268.3,73.8,268.5,73.5z M257.8,74.701c0.4,0,0.9,0.1,0.9,0.5C258.8,75.9,258,75.8,257.6,76
		c-0.399,0-0.899-0.1-0.899-0.5C256.6,74.701,257.3,74.8,257.8,74.701z"/>
	<path fill="#935C4D" d="M281.9,94.4c-0.301-1.5-0.2-3.4-2.601-1.9l0,0c-1.399-0.1-2.8,0.4-4.1-0.399l0,0l0,0c-0.3,0-0.601,0-0.9,0
		c0,0,0,0-0.1,0l0,0c-1.8,0.601-3.601,0.601-5.5,0C267.2,92.1,265.6,92,264.1,92l0,0c-2.3,0-4.6,0-6.899,0l0,0c-0.9,0-1.8,0-2.7,0
		l0,0c-0.1,0.101-0.3,0.101-0.4,0.201l0,0l0,0c-0.6,0.6-1.3,0.399-1.899,0.399c-9,0-18,0-26.9,0c-5-0.2-10-0.7-15.1-0.3
		c-0.2,0.1-0.4,0.1-0.601,0.1c-3.3,0.5-6.5,0.5-9.8,0c-0.2,0.1-0.399,0-0.6-0.1l0,0c-1.2,0-2.5,0-3.7,0l0,0
		c-1,0.699-2.1,0.3-3.2,0.3l0,0c-1.2-0.2-2.5,0.5-3.7-0.399l0,0l0,0c-0.399,0.1-0.899,0.6-1.1,0c-0.2-0.5,0.4-0.801,0.8-0.9l0,0l0,0
		c2.9-0.6,5.8-1.301,8.601-1.9l0,0l0,0c1.3-0.8,2.8-0.9,4.199-1.3c1.101,0.101,2-0.8,3.101-0.399l0,0c0.6,0,1.2-0.101,1.8-0.101l0,0
		l0,0c1.4-0.899,3-0.3,4.5-0.399l0,0l0,0c0.9,0,1.9,0,2.8,0l0,0l0,0c1.5,0,3,0,4.5,0c6,0,11.9,0,17.9,0l0,0c0.399,0,0.899,0,1.3,0
		c1,0.5,1.9,0.799,2.4-0.601l0,0l-0.101,0.101c-0.3-0.201-0.5-0.301-0.8-0.4c-0.3,0.1-0.6,0.1-0.9,0c-0.699,0-1.399,0-2.1-0.1
		c-0.5,0.6-1.2,0.399-1.9,0.399c-8.5,0-17,0-25.5,0c-0.699,0-1.399,0.2-1.899-0.399c-0.5,0-0.9,0.1-1.4,0.1
		c-0.899,0.1-1.899,0.199-2.899-0.2c-1.2-0.101-2.301-0.2-3.5-0.399l0,0c-4.9,0.6-9.4,2.399-14.101,3.6l0,0l0,0
		c-0.1,1.6-1.8,1-2.5,1.8c0.7,1.101,1.5,0,2.2,0.3c-0.9,1.7-0.9,1.7-8.9,1.1l0,0l0,0c-0.6,0-1.199,0.101-1.699,0.101
		C174.2,93,175.1,92.5,175.8,92.9c0.3,0.2,0.5,0.301,0.8,0.5c20.9,0,41.801,0,62.601,0l0,0c1.1,0,1,0.801,0.899,1.5
		c0.5,0.7,1.301,0.2,1.9,0.5l0,0c0.4,0,0.9,0,1.3-0.1l0,0l0,0c1.4,0,2.8,0,4.2,0c2.8,0.3,5.6-0.2,8.4-0.4
		c0.699-0.1,1.5-0.3,2.199,0.301l0,0c3.5,0,7,0.1,10.5,0.1l0,0l0,0c0.9,0,1.801,0,2.7,0c0,0,0,0,0.101,0c0,0,0,0-0.101,0
		c2.2,0,4.3,0,6.5,0c0,0,0,0-0.1,0c0,0,0,0,0.1,0c0.9,0,1.8,0.1,2.7,0.1l0,0l0,0C281.6,95.8,281.6,95,281.9,94.4z M270.2,94.201
		c-0.4,0.1-0.8-0.101-0.8-0.601c0-0.2,0.399-0.5,0.6-0.5c0.3-0.101,0.6,0.101,0.7,0.5C270.7,93.9,270.5,94.201,270.2,94.201z"/>
	<path fill="#935C4D" d="M175.8,93.5c0.3,0,0.601,0,0.9,0c-0.3-0.199-0.5-0.299-0.8-0.5c-0.801-0.399-1.601,0.101-2.4-0.299l0,0
		C174.1,93.4,175.3,92.6,175.8,93.5z"/>
	<path fill="#935C4D" d="M235.7,86.1L235.7,86.1L235.7,86.1C235.7,86.201,235.7,86.201,235.7,86.1c0.7,0.101,1.399,0.101,2,0.101
		c0.3,0,0.6,0,0.899,0C237.7,85.9,236.7,86.3,235.7,86.1z"/>
	<path fill="#935C4D" d="M206.5,86.1L206.5,86.1c-1.5,0-2.9,0-4.3-0.101c1,0.4,2,0.301,2.899,0.201
		C205.5,86.201,206,86.201,206.5,86.1L206.5,86.1L206.5,86.1z"/>
	<path fill="#945D49" d="M182.6,116.3L182.6,116.3L182.6,116.3c0.801-0.6,1.7-1.1,2.7-1.301l0,0c0.9-1.5,2.9-2.5,1.5-4.799
		c-0.5-0.9-0.899-1.601-1.8-2c-2.2-0.9-4.4-1.801-6.9-1.9c-0.6,0-1.699,0.199-1.5-0.801c0.2-0.899,1.2-1.1,2-0.899
		c1.801,0.3,3.5,0.601,5.301,0.899l0,0c2.1-0.5,2.3-2.1,2.3-3.799l0,0c-1.2,0-2.2-0.301-3.2-0.801l0,0c-3.5-0.9-7-0.6-10.5-0.1
		c-1,0.1-1.6,1.3-2.7,1.1l0,0c-0.2,0.801-0.7,1.4-1.5,1.7l0,0c-0.7,0.601-0.1,1.7-0.899,2.3c0.3,2.7,1.899,4.2,5.3,5
		c1.6,0.4,3.2,0.4,4.8,1.1c-0.4,0.301-0.7,0.201-1,0.201c-1,0-2.1,0.1-3-0.301c-0.8-0.199-1.6-0.5-2.4-0.9
		c-0.8-0.399-1.699-1.1-2.399-0.1c-0.9,1.1-2.101,2.1-1.9,3.7c0,0.601,0.4,1,1,1.2c2.2,0.6,4.3,1.6,6.7,1.199
		c1.4-0.199,2.8,0.601,4.1-0.1l0,0c1-0.699,2.2-0.3,3.301-0.4l0,0C182.1,116.3,182.4,116.3,182.6,116.3z M174.6,104.6
		c-0.5,0-0.899-0.399-0.8-0.899c0-0.4,0.4-0.601,0.8-0.5c0.4,0.1,0.601,0.399,0.601,1C175.1,104.3,174.8,104.6,174.6,104.6z
		 M173.5,112.3c1.1,0,2.2-0.5,3.3,0.4C175.7,112.5,174.6,113,173.5,112.3z"/>
	<path fill="#945C49" d="M254.1,115.8c0.801,0.699,1.801,0.4,2.801,0.5c1.1,0.1,1.5-0.4,1.399-1.4c-0.1-1,0-2.1,0-3.199l0,0l0,0
		c-0.3-1.201,0.7-2.4,0.3-3.601l0,0l0,0C255.7,108,252.9,108,250,107.9c-0.7,0-1.5-0.1-1.4,0.9c0.101,0.699,0.2,1.5,1.301,1.5
		c1.1,0,2.699-0.2,2.6,1.199c-0.1,1.301-1.7,0.201-2.6,0.5c-1.801,0.4-3.4-0.299-3.9-2.299c-0.6-2,0.5-3.301,2.2-4
		c1.6-0.701,3.399-1,5,0.1c1,0.699,2.1,0.6,3.1-0.2l0,0c0-0.3,0-0.7,0.4-0.899c0-1.301,1.6-2.101,0.899-3.601
		c-2,0.101-4-0.399-5.899-1l0,0c-0.601,0-1.2,0-1.8,0l0,0c-0.9,0-1.9,0.399-2.801-0.3l0,0l0,0c-0.3,0.199-0.6,0.3-0.899,0.5l0,0
		c-0.2,0.699,0.5,1.5-0.101,2.199c0,0.601,0.101,1.301,0.101,1.9c-0.101,0.9-0.7,1-1.4,0.4c-0.7-1.2-0.6-1.301,0.8-1.4l0,0l0,0
		c0-0.3,0.101-0.6,0.101-0.9c-0.8-0.6-0.3-1.5-0.5-2.199l0,0c-1-0.5-2.101,0.699-3.2-0.2l0,0c-1,2.101-1.1,2.101-2.7,2.399l0,0
		c0,0.101,0,0.201,0,0.301l0,0c0,0.9,0.2,1.8-0.899,2.3H238.3c-2.1,1.7-0.399,3.601-0.399,5.5l0,0c0.3,0.5,0.5,0.899,0.8,1.399
		c1.3,0.5,1.2,2.5,2.8,2.801c1,0.199,2,1.5,2.8-0.301c0.101-0.299,0.7-0.299,1,0c0.7,0.601-0.3,1.201-0.2,1.9
		c0.601,0.1,1.301-0.6,1.801,0.2c0.3,0,0.6,0.101,0.899,0.101c0.9,0,1.8,0,2.7,0l0,0l0,0c0.5-0.301,0.9-0.701,1.3-1l0,0
		C252.8,115.1,253.4,114.201,254.1,115.8z M253.6,109.5c0.2,0.201,0.4,0.4,0.4,0.5c0,0.201-0.1,0.5-0.2,0.5
		c-0.3,0.101-0.5-0.199-0.6-0.5C253.3,109.9,253.4,109.701,253.6,109.5z M251.6,103c0.101,0.101,0.101,0.5,0,0.601
		c-0.699,0.7-1.5,0.399-2.899,0.101C250.1,103.201,250.7,102.5,251.6,103z M247.8,102.4c0.4,0.1,0.601,0.4,0.601,0.801
		c0,0.5-0.2,0.699-0.7,0.699c-0.4,0-0.5-0.3-0.5-0.6C247.2,102.9,247.4,102.6,247.8,102.4z M239.6,108.5c-0.3,0-0.6-0.199-0.5-0.5
		c0-0.1,0.4-0.299,0.5-0.199c0.2,0,0.301,0.199,0.5,0.4C240,108.3,239.8,108.5,239.6,108.5z M242.2,103.9c0.2,0.1,0.5,0.2,0.5,0.4
		c0,0.4-0.2,0.6-0.601,0.5c-0.1,0-0.399-0.301-0.399-0.4C241.8,104.201,242,104.1,242.2,103.9z M241.9,108.3
		c-0.4,0.1-0.601-0.4-0.601-0.801c0-0.699,0.4-1.199,1-1.399c0.5-0.101,0.601,0.3,0.601,0.601C242.5,107.3,242.7,108.1,241.9,108.3z
		 M243.2,114.3c-0.5,0-0.601-0.4-0.5-0.801c0.1-0.399,0.3-0.699,0.8-0.699c0.4,0,0.4,0.3,0.4,0.699
		C243.8,113.9,243.6,114.3,243.2,114.3z M244.4,109c-0.101,0.301-0.2,0.601-0.5,0.601c-0.301-0.101-0.301-0.399-0.301-0.7
		c0-0.3,0.101-0.6,0.5-0.6C244.3,108.4,244.4,108.701,244.4,109z M247.9,115.9c-1.2,0-1.301-1.199-1.5-2.1
		c-0.101-0.4,0.3-0.801,0.699-0.6c0.9,0.5,1.9,0.899,2,2.1C249.1,115.9,248.5,115.9,247.9,115.9z"/>
	<path fill="#935D49" d="M217.4,106.3L217.4,106.3L217.4,106.3z"/>
	<path fill="#935D49" d="M233.8,113.1c-0.5-0.5-0.8-1.101-0.8-1.8l0,0c0-0.4,0-0.801,0-1.301l0,0l0,0l0,0
		c-1.9-0.6-1.4-2.6-2.1-3.799c-0.601-1-1-2.301-1.5-3.5c-0.9-0.301-0.301-1.4-1-1.801c-2.301-0.3-4.7,0.301-7-0.5l0,0l0,0
		c-1.101-0.199-1.7,0.5-2.2,1.301l0,0l0,0c0.5,1.199-0.9,1.699-0.9,2.699c0,0.801-0.3,1.4-0.899,1.9c0.1,0.9-0.2,1.699-0.801,2.3
		l0,0l0,0c-1.3,2.601-3.199,4.899-3.199,8.101c0.8,0.1,1.6-0.9,2.3,0l0,0l0,0c0.8-0.5,1.7-0.4,2.6-0.4c1.3,0,2.5-0.1,2.4-1.9
		c0-0.6,0.2-0.9,0.8-0.8c1.7,0.101,3.4-0.5,5.1,0.399c0,0,0,0,0.101,0c0-0.5-0.2-1.1,0.5-1.399c0.3-0.399,0.7-0.5,1.1-0.101
		c0.4,0.4,0.2,0.801-0.2,1.101c-0.3,0.7-0.899,0.5-1.399,0.5l0,0l0,0l0,0l0,0l0,0c0,1.7,0.6,2.601,2.6,2.3c1.5-0.199,3.101,0,4.7,0
		l0,0c1.3-0.199,1.6-0.8,1-1.9l0,0C234.6,114,233.6,114,233.8,113.1z M223.8,110.4c-1.1,0-0.7-0.9-0.899-1.4
		c0.1-0.6-0.2-1.5,0.8-1.299c0.8,0.1,1.399,0.799,1.5,1.6C225.2,110.1,224.6,110.4,223.8,110.4z M225.1,103.5
		c-0.199-0.1-0.5-0.199-0.5-0.399c-0.1-0.399,0.2-0.5,0.5-0.5c0.2,0,0.4,0.2,0.4,0.399C225.5,103.201,225.2,103.4,225.1,103.5z
		 M228.2,106.201c-0.4,0-0.7-0.101-0.7-0.601c0-0.399,0.1-0.7,0.6-0.8c0.4,0,0.7,0.1,0.801,1C228.9,106,228.7,106.201,228.2,106.201
		z M231.8,114c-0.399,0-0.8-0.199-0.899-0.6c-0.101-0.5,0.199-0.6,0.6-0.699c0.4,0,0.8,0.1,0.8,0.6
		C232.5,113.701,232.2,114,231.8,114z"/>
	<path fill="#935D49" d="M209.6,106.3c1.7,0.699,1.801-0.301,1.9-1.4c-0.4-1-0.6-1.9-0.5-3c0.1-0.699,0.3-1.6-0.9-1.6l0,0l0,0l0,0
		c-0.699,0.3-1.399,0.3-2.1,0.199c-4.2,0.4-8.5,0.5-12.7-0.199l0,0c-1.2,0.3-2.6-0.301-3.8,0.5c-0.1,0.8-0.8,1.6,0.1,2.4
		c0.5,0.5-0.1,1.1-0.399,1.6l0,0c0,0.199,0,0.3,0,0.5l0,0l0,0c0,0.8,0.5,0.9,1.2,0.9c1,0,2-0.101,2.899,0c2.5,0.299,2.8,1,1.9,3.699
		l0,0l0,0c0,2.1,0,4.2-0.101,6.4l0,0c0.9,0.699,1.9-0.5,2.801,0.1l0,0c1.699,0,3.3-0.1,5-0.1l0,0c1.1-0.7,0.199-1.801,0.6-2.7l0,0
		c0-1.8,0-3.7,0-5.5l0,0c-0.4-1.601,0.2-2.101,1.8-1.8l0,0C208.1,106.3,209,106,209.6,106.3z"/>
	<path fill="#945D45" d="M279.7,100.8L279.7,100.8L279.7,100.8c0,0.1-0.101,0.199-0.101,0.3v0.101c1.4,0.199,1.5,1.199,1.301,2.399
		c-0.301-0.399-0.601-0.7-0.801-1c-0.1,0.399-0.1,0.7-0.199,1.101c0,0-0.5,0-0.5-0.101c-0.2-0.5-0.2-1,0.3-1.399l0,0
		c-0.101-0.301-0.3-0.601-0.4-0.9c-1.2-0.4-2.5,0.4-3.7-0.5l0,0l0,0c-2.3,0-4.6-0.1-6.8-0.1l0,0l0,0c-1.899,0.699-3.8-1.201-5.6,0.1
		l0,0c-0.5,0.8-1.9,0.3-2.101,1.5l0,0c-0.399,1.6,1.5,1.9,1.7,3.1l0,0c0,0.4,0.2,1,0,1.301c-1,1.799-0.2,3,1,4.199
		c0.4,0.1,1-0.4,0.7,0.7c-0.5,1.601-0.8,3.399,0.7,4.8l0,0l0,0c0.3,0,0.5,0,0.8-0.1l0,0c0.2-0.5,0.6-0.4,1-0.5l0,0l0,0
		c0.1-0.9,0.6-1.4,1.4-1.7c1.699,0,1.899,0.2,1.3,1.399c0,0.201,0,0.5,0,0.801l0,0c2-0.6,3.899,0.199,5.899,0.1
		c0.801-0.699,1.601-0.699,2.4,0c1.2,0,2.4,0,3.6,0l0,0l0,0c0-1.199-0.1-2.4,0-3.6c0.2-1.6-0.5-2-1.899-1.801
		c-2.2,0.4-4.3,0.601-6.5,0.5c-0.601,0-1.2,0-1.2-0.899s0.5-1,1.2-0.899c0.899,0,1.8,0,2.7,0.1c0.8,0.1,1.699,0.1,2.199-0.6
		c0.2-0.301,0-1.201-0.3-1.601c-0.6-0.7-1.2-0.2-1.899,0.101c-2.2,0.799-3.801,0-3.7-1.701l0,0l0,0c0-0.1,0-0.199,0-0.299
		c0-0.101,0-0.101,0-0.101c-0.9-0.101-1.8-0.3-2,1c0.1,0.601,0.399,1.3-0.4,1.7l0,0c0,0.6,0.101,1.4-0.7,1.199
		c-1-0.199-0.199-0.899-0.1-1.299l0,0l0,0c0-0.601,0-1.201,0-1.801c0.1-0.3,0.3-0.6,0.4-0.9l0,0l0,0c-0.5-0.1-0.9-0.299-0.801-0.899
		c0-0.2,0.301-0.3,0.4-0.399c0.6-0.201,0.8,0.199,0.9,0.699l0,0l0,0c0.3-0.199,0.6-0.3,0.899-0.5l0,0c0-0.699,0.5-1.1,1.101-0.9
		c0.8,0.301,0.1,0.801,0.1,1.301l0,0l0,0c1.3,0,2.6,0.1,3.8-0.1c1.2-0.201,2.3-0.5,3.4-0.101c-0.101,0.8-0.9,0.601-1.101,1l0,0
		c0.801,0,1.7,0,2.5,0.101c1.101,0.1,1.2-0.601,1.2-1.4c0-0.801-0.1-1.6-0.1-2.5C281.5,100.5,280.9,100.3,279.7,100.8z M267,102.201
		c0.3,0,0.6,0.1,0.6,0.5c-0.1,0.399-0.3,0.699-0.8,0.699c-0.3,0-0.6-0.199-0.6-0.5C266.3,102.4,266.6,102.201,267,102.201z
		 M266.9,105.6c0.199,0,0.199,0.5,0.399,0.7l0,0l0,0c0,0.5,0.2,1.1-0.399,1.4C266.8,108.4,267.8,109,267,109.8
		c-0.9-0.5-0.4-1.6-1-2.301c0-0.399,0-0.799,0-1.199l0,0l0,0C266.2,105.9,266.4,105.4,266.9,105.6z M264.3,109.8
		c-0.2-0.1-0.399-0.301-0.399-0.5c0-0.301,0.3-0.5,0.6-0.5c0.4,0,0.4,0.3,0.4,0.699C264.9,109.8,264.7,109.9,264.3,109.8z
		 M265.1,105.3c-1-0.301-0.399-1.1-0.399-1.7c-0.2-0.399-0.601-0.601-0.4-1.101c0-0.1,0.3-0.199,0.4-0.1c0.5,0.301,0.3,0.7,0.3,1.1
		c1-0.1,1.1,0.601,0.9,1.301C265.8,105.3,265.5,105.4,265.1,105.3z M266,113c0.1-0.899-0.7-1.799,0.8-2.199c0.3-0.1,0.9-0.1,1,0.3
		C268,112.4,267,112.701,266,113z M278.5,114.3c0.1-0.1,0.4-0.2,0.6-0.2c0.2,0,0.4,0.2,0.301,0.601
		c-0.101,0.1-0.301,0.199-0.5,0.199C278.6,114.9,278.4,114.6,278.5,114.3z M276.7,113.6c0.2,0.3,0.5,0.5,0.5,0.7
		c0.1,0.4-0.3,0.5-0.601,0.4C276.4,114.6,276.2,114.3,276.2,114C276.1,114,276.4,113.8,276.7,113.6z M274,112.5
		c-0.5,2.201-0.6,2.301-2.9,2.201C272.1,113.9,272.9,113.3,274,112.5z M270.2,111.4c0.5,0.1,0.8,0.6,0.8,1.4c0,0.6-0.2,0.9-0.8,0.8
		c-0.8-0.101-0.7-1-1.4-1.2C269.2,112,269.1,111.201,270.2,111.4z M275,103.9c-0.5,0-0.7-0.199-0.7-0.699c0-0.4,0.4-0.601,0.8-0.601
		c0.4,0,0.801,0.101,0.7,0.601C275.7,103.6,275.4,103.9,275,103.9z M276.7,103.701c-0.101-0.101-0.2-0.301-0.2-0.5
		c0-0.301,0.2-0.601,0.6-0.4c0.101,0.1,0.2,0.4,0.2,0.6C277.3,103.6,277.1,103.9,276.7,103.701z"/>
	<path fill="#945D45" d="M275.5,100.8L275.5,100.8L275.5,100.8z"/>
	<path fill="#945D45" d="M280.1,102.6L280.1,102.6L280.1,102.6z"/>
	<path fill="#925C48" d="M20.2,25.2L20.2,25.2c-1.5-0.1-3.1,0.6-4.5-0.4l0,0h-0.1l0,0c-0.6-0.1-1.3,0.1-1.8-0.4
		c0.1,0.1,0.1,0.1,0.2,0.1c-0.1,0-0.1,0-0.2-0.1v-0.1c-0.6,0-1.3,0.4-1.9-0.3l0,0c-0.5,0-1.1,0.1-1.6-0.1c-1.5-0.6-1.6,0-1.7,1.4
		c-0.2,2.9,2.1,1.5,3.2,1.9c2.3,0,4.6-0.4,6.8,0c6.5,1.2,13.1,1.9,19.7,2.2l0,0l0,0c1.1,0,2.2,0,3.3,0c2.4-0.2,4.9-0.4,7.3-0.5l0,0
		l0,0c1-0.7,2.2-0.3,3.2-0.4l0,0l0,0c4.9-0.3,9.6-1.4,14.6-1.5c3.1-0.1,6.2,0,9.3,0c4.3,0,8.4,1.4,12.7,1.5c1.2,0,2.5,0,3.7,0l0,0
		l0,0c0.3-0.9,0.5-1.8-0.8-1.8c-3.1,0.1-6-1.1-9-1.5c-1.3-0.2-2.6,0.2-3.9,0c-7.9-0.9-15.8-0.8-23.5,0.6c-4.6,0.9-9.2,1.3-13.9,1.2
		c-0.3,0-0.7,0-1,0c-0.8,0.8-1.5,0-2.2,0l0,0l0,0c-1.1,0-2.1,0-3.2,0l0,0l0,0c-0.6,0-1.2,0-1.8,0l0,0c-0.8-0.1-1.6,0.3-2.3-0.4
		c0.4,0,0.8-0.1,1.3-0.1c-0.4-0.2-0.8-0.3-1.2-0.5c-3.4,0-6.6-1.1-9.9-1.5c0,0,0,0-0.1,0c-0.1,0.2-0.1,0.3-0.1,0.5
		C20.5,25.2,20.4,25.2,20.2,25.2z"/>
	<path fill="#935D47" d="M21.2,16.2L21.2,16.2c1.3-0.3,2.5,0.2,3.7,0.8l0,0c2.1,0.3,4.2,0.7,6.4,1l0,0l0,0c1.2,0.1,2.4-0.5,3.5,0.4
		l0,0l0,0l0.2-0.1l0,0l0,0c0.9,0,1.9,0,2.8,0l0,0l0,0c1.1,0.1,2.2-0.3,3.1,0.5c1.2-1.8,3.1-0.6,4.6-1c2.3-0.8,4.6-0.2,6.9-0.4l0,0
		l0,0c3-0.4,6.1-0.9,9.1-1.3c0.3,0,0.6-0.1,0.9-0.1l0,0l0,0c0.8-0.7,1.6-0.5,2.3,0l0,0l0,0c1,0,2.1,0,3.1,0l0,0l0,0
		c0.9-0.7,1.9-0.2,2.8-0.3c0.2-0.2,0.4-0.4,0.5-0.5l0,0c-0.1-0.9-0.2-1.5-1.3-2.1c-1.2-0.6-2.3-0.4-3.4-0.7c-1.2,1-2.6,1.2-4.1,0.9
		l0,0l0,0c-3,1.2-6.1,1.7-9.2,1.3c-2.8-0.3-5.1,0.4-7.4,1.5l0,0c-0.9,0.7-1.8,0.6-2.7,0l0,0c-0.5,0-0.9,0-1.4,0l0,0
		c-1.3-0.1-2.7,0.4-4-0.3l0,0c-1.7,0-3.4,0-5.1,0l0,0l0,0c-1.2,0.8-1.6,0.1-1.8-0.9c-2.4-0.4-4.9,0.6-7.2-0.5l0,0
		c-0.5-0.7-1.1-1.3-2-0.5C20.7,14.5,20.3,15.2,21.2,16.2C21.1,16.2,21.2,16.2,21.2,16.2z"/>
	<path fill="#945D49" d="M14.3,32.1c4.2,0.6,8.4,1.1,12.5,1.9c2.7,0.5,5.4-0.1,8,0.9l0,0l0,0c0.9,0,1.9,0,2.8,0l0,0
		c2.7,0.1,5.4-0.8,8.2-0.4c1.2,0,2.5,0,3.7-0.1l0,0c0.4,0,0.8,0,1.1,0c0.8,0,1.8,0.2,1.7-1.1c-0.1-1.4-1.2-1.2-2-1.1
		c-4.1,0.7-8.2,0.4-12.3,0.5c-5.4,0.2-10.6-0.7-15.9-1.6c-1.9-0.3-3.9,0.3-5.7-0.7c-0.5,0-0.9-0.1-1.4-0.1l0,0c-0.3,0.3-0.6,0.6-1,1
		l0,0C14.2,31.5,14.3,31.8,14.3,32.1z"/>
	<path fill="#945C4A" d="M10.2,37.7c1-0.2,1.8,0,2.7,0.5l0,0c1.2,0,2.4,0,3.7,0l0,0l0,0c1.2-0.4,2.1,0.7,3.2,0.9l0,0
		c1.2,0,2.4,0,3.7,0c1.3,0.1,2.7,0.3,4,0.4l0,0c1.1,0.1,2.2-0.4,3.3,0.4l0,0c2.7,0.2,5.4,0.2,8.1,0.7c1.3,0.3,1.3-0.6,1.5-1.1
		c0.3-0.8-0.3-0.9-1-1c-3.9-0.3-7.8-0.6-11.6-0.9l0,0l0,0c-0.8-0.1-1.6,0.3-2.3-0.4l0,0l0,0c-2.6-1.3-5.4-0.9-8.2-1.1
		c-0.6,0-1.6-0.1-1.4-1.3c-0.4,0-0.8-0.1-1-0.5l0,0l0,0c-0.7,1.2-1.5,2.2-2.7,0.4C11,35,9.7,35.3,8.5,35.6l0,0l0,0
		C7.4,37.9,9.1,37.5,10.2,37.7z"/>
	<path fill="#935B4C" d="M17,18.4L17,18.4c-0.5,1.7-1.2,0.4-1.8,0.1c-0.2,0.1-0.4,0.3-0.5,0.4c-0.1,0.4-0.3,0.9-0.4,1.3l0,0l0,0
		c0,0.3,0,0.7,0,1l0,0c0.5,0.8,1.3,0.2,1.9,0.5c0.7,0,1.5,0,2.2-0.1c1.8-0.1,3.5,0,5.1,0.8v0.1c0,0.1,0.1,0.2,0.1,0.4
		c0.2,0,0.3,0.1,0.5,0.1c1.3,0.1,2.6,0.3,3.9,0.7c1.4,0.4,2.9,0.7,4.3-0.3c0,0,0,0,0-0.1h-0.2c0.3-1.2-0.4-1.7-1.3-2.1
		c-1.1,0-2.2-0.1-3.2-0.6l0,0l0,0c-0.6,0-1.2,0-1.8,0c-2.4-0.8-5.1-0.3-7.3-1.7C17.8,18.9,17.7,17.9,17,18.4z"/>
	<path fill="#965E45" d="M14.4,54.3c-0.3-0.6-0.1-1.2,0.7-1.2l0,0c0.3-0.4,0.6-0.9,1-1.3l0,0c-0.3-0.1-0.5-0.4-0.8-0.4
		c-2.3,0.4-2.6-1-2.5-2.8c-0.1,0-0.3,0-0.4-0.1l0,0c-0.3,0-0.6,0.1-0.9,0.1c-0.7,1.1-1.1,2.5-2.8,2.3c0,0.1,0,0.2,0,0.3l0,0
		c-0.4,1.2,0.8,1.4,1.3,2l0,0l0,0c0,0.3,0,0.6,0,0.9l0,0c-0.2,1.1-1,2.6,1.3,2.2c0.1-0.5-0.1-1.3,0.8-1.3c0.6,0,1.3,0,1.1,0.9l0,0
		c0.2,0.4,0.5,0.4,0.9,0.4l0,0C14.7,55.7,14.9,55.1,14.4,54.3z"/>
	<path fill="#915F3D" d="M239,86.1c0.2,0.101,0.4,0.2,0.6,0.399c0.801-0.5,0.4-1,0-1.5C239.6,85.6,239.3,85.9,239,86.1z"/>
	<path fill="#915F3D" d="M201.5,85.701c-0.1-0.101-0.2-0.101-0.3-0.201c2.899-1.5,6.1-1.399,8.899-2.6l0,0
		c-3.899,0.5-7.699,1.7-11.5,2.801l0,0C199.6,85.5,200.5,85.6,201.5,85.701z"/>
	<path fill="#915F3D" d="M201.5,85.701c1.7,0.199,3.3,0.5,5,0.199c3.6,0.1,7.2,0.2,10.8,0.2c2.101,0,4.2,0,6.4,0
		c4,0,8-0.101,11.899-0.2c1.101,0.301,2.301-0.3,3.4,0.2c0.4-0.2,0.6-0.5,0.6-1C239.5,85,239.5,85,239.4,84.9
		c-0.2,1.1-1.2,1-1.801,0.801c-2.899-0.801-5.699,0.199-8.6,0c-5.2-0.301-10.4,0-15.6-0.101c-3.801-0.101-7.601-0.399-11.5,0.2
		c2.5-1.6,5.8-0.9,8.199-2.801C207.3,84.1,204.2,84.1,201.2,85.6C201.3,85.6,201.4,85.6,201.5,85.701z"/>
	<path fill="#915F3D" d="M206.8,86.1c1.101,0,2.2,0,3.3,0C209,86.1,207.9,86.1,206.8,86.1z"/>
	<path fill="#915F3D" d="M230.4,86.1c1.1,0,2.1,0,3.199,0C232.5,86.1,231.4,86.1,230.4,86.1z"/>
	<path fill="#915F3D" d="M238.6,86.201c0.301,0.1,0.5,0.199,0.801,0.399c0.1,0,0.1-0.101,0.1-0.101c-0.2-0.199-0.4-0.299-0.6-0.399
		C238.9,86.1,238.8,86.201,238.6,86.201z"/>
	<path fill="#915F3D" d="M201.5,85.701c-0.9-0.101-1.9-0.101-2.9,0C199.8,85.9,200.9,86,202.1,86.1
		C201.9,86,201.7,85.8,201.5,85.701z"/>
	<path fill="#915F3D" d="M235.6,85.9c-4,0.1-8,0.2-11.899,0.2c2.2,0,4.5,0,6.7,0c1.1,0,2.1,0,3.199,0c0.7,0,1.4,0,2.2,0l0,0
		c0.9,0.2,2-0.2,2.9,0.101c0.1,0,0.2-0.101,0.3-0.101C237.9,85.5,236.7,86.201,235.6,85.9z"/>
	<path fill="#915F3D" d="M206.5,86.1L206.5,86.1c0.1,0,0.2,0,0.3,0c1.101,0,2.2,0,3.3,0c2.4,0,4.801,0,7.301,0
		c-3.601,0-7.2-0.101-10.801-0.2c-1.699,0.2-3.399-0.1-5-0.199C201.8,85.9,202,86,202.3,86.1C203.6,86.201,205,86.201,206.5,86.1z"
		/>
	<path fill="#8F5A51" d="M233.4,38.1L233.4,38.1c-0.101,0-0.2,0.1-0.301,0.1c-0.1,10.2,0.2,20.4-0.1,30.6l0,0
		c0.1-0.1,0.3-0.3,0.4-0.4C233.5,58.2,233.4,48.2,233.4,38.1L233.4,38.1z"/>
	<path fill="#8F5A51" d="M233.2,38.2c0.1,0,0.2-0.1,0.2-0.1c-0.2-0.5-0.4-0.9-0.7-1.5c-0.101,0.4-0.2,0.6-0.2,0.8
		c0.1,10.3,0.2,20.6-0.1,30.9c0,0.4,0.399,0.4,0.6,0.5C233.3,58.6,233.1,48.4,233.2,38.2z"/>
	<path fill="#A56738" d="M239,94.9C239,94.9,239,94.8,239,94.9c-20.8,0-41.7,0-62.5,0V95c0,0.201,0,0.301-0.2,0.4l0,0
		c1.7,0,3.3,0,5,0c13.101,0,26.3,0,39.4,0l0,0l0,0c1.5,0,3,0,4.5,0l0,0c0.899,0,1.899,0,2.8,0c1.5,0,3,0,4.5,0l0,0
		c0.9,0,1.9,0,2.8,0l0,0l0,0h0.2l0.2,0.1l0,0C236.8,94.9,238,95.8,239,94.9z"/>
	<path fill="#A56738" d="M176.5,95v-0.1c-0.1,0-0.1,0-0.2,0l0,0l0,0c0,0.2,0,0.301,0,0.5l0,0l0,0C176.4,95.3,176.5,95.1,176.5,95z"
		/>
	<path fill="#A36E36" d="M83.1,68.1c0.1-1.1,0-2.1-0.8-3l0,0c1.3,3.7,0.2,7.601,0.4,11.399c0.4,7.4,0.2,14.9,0.1,22.4
		c0,3.4,0.1,6.801-0.3,10.2c-0.2,1.899-0.6,3.899,0.4,5.8l0,0c0.2-11.199,0.1-22.4,0.2-33.6C83.2,77,82.9,72.5,83.1,68.1z"/>
	<path fill="#A36E36" d="M83.4,113.4c0-15.4,0-30.8,0-46.3c0-0.9,0-1.7-1-2.1c0.7,0.9,0.8,1.9,0.8,3c-0.3,4.4,0,8.8,0,13.201
		c0,11.199,0,22.399-0.2,33.6C83.4,114.5,83.4,114,83.4,113.4z"/>
	<path fill="#955E48" d="M25.2,54.6c0,0.6,0.1,1.2,0.1,1.8c0.3,0,0.5,0,0.8,0c0.5-1.5,1.2-1.9,2.4-0.5l0,0c0.6,0,1.3,0.4,1.7-0.4
		l0,0l0,0c-1.2-0.8-1.2-1.6,0.1-2.4l0,0l0,0c0.3-0.6,0.9-1.1,0.1-1.7l0,0l0,0l0,0l0,0c-0.5,0.6-1,0.5-1.5,0s-0.6-1,0-1.5l0,0l0,0
		l0,0l0,0l0,0c0-0.1,0-0.2,0-0.3l0,0l0,0c-0.6,0-1.2,0-1.8,0c-0.2,0.3-0.4,0.6-0.6,0.8l0,0l0,0c-0.5,0.9-1.3,0.9-2.2,1
		C23.8,52.7,25.3,53.4,25.2,54.6z"/>
	<path fill="#975F49" d="M7.8,13.8c0.6,0.6,0.5,1.5,0.6,2.2l0,0l0,0c2.7-0.2,5.4,0.5,8.1-0.4c0-0.3,0.1-0.6,0.1-0.9l0,0l0,0
		c0.2-0.5,0.3-1-0.5-1c-1,0.4-1.8-0.3-2.7-0.5l0,0c-1.1-0.4-2.2-0.3-3.3-0.7C9.3,12.2,7.7,11.9,7.8,13.8z"/>
	<path fill="#965D48" d="M280.5,84.6c0.6-0.101,1.1-0.8,1.5-1.601c-1.3-0.1-2.5-0.1-3.1-1.5c-0.301-0.799-1.2-0.899-1.4,0.4
		c0.4,0.301,0.7,0.9,0.2,1.1c-1,0.4-1.2-0.5-1.601-1.1l0,0c-0.899-0.9-1.399-0.199-1.899,0.5c0.1,0.5,0,1.5,0.2,1.5
		c2.6,0.4,1.699,2.1,1.3,3.5l0,0l0,0c1.3-0.3,2.7-1.699,4.1,0c0,0,0.5-0.3,0.7-0.5c0.2-0.199,0.3-0.6-0.1-0.699
		C278.4,85.4,278.8,85,280.5,84.6z M277.6,85.1c-0.199,0-0.399-0.3-0.399-0.399c0-0.101,0.2-0.301,0.399-0.5
		c0.2,0.199,0.5,0.199,0.5,0.399C278.2,85,277.9,85.201,277.6,85.1z"/>
	<path fill="#965D47" d="M43.6,55.9c0.8,0.1,1.4-0.1,1-1.1c-0.3-0.7-0.1-1.2,0.7-1.2l0,0l0,0c-0.3-0.5-0.4-0.9,0.2-1.2
		c1.3-0.6,0.1-0.7-0.2-1l0,0l0,0c-0.9,0.8-1.5,0.4-1.8-0.5c-0.2-0.6-0.3-1.1-0.9-1.4l0,0c-0.3,0-0.6,0.1-0.9,0.1l0,0
		c-0.1,0.1-0.3,0.3-0.4,0.4l0,0l0,0c-0.5,0.7-0.9,1.4-1.9,1.4c-0.2,0.4-0.6,0.7-0.5,1.3l0,0c1.1,0.4,2.4,0.7,1.4,2.4l0,0
		c0,0.3,0,0.6,0,0.9l0,0l0,0C41.4,56.2,42.5,53.8,43.6,55.9z"/>
	<path fill="#945D47" d="M250.4,87c0.3-1,0.199-2,0.8-2.899c0.399-0.7,0.1-1.3-0.8-1.3v0.1l0,0l0,0c-0.9,0.7-1.4,0.301-1.801-0.6
		c0-0.6-0.1-1.2-0.5-1.7c-0.1,0-0.199,0-0.399,0c-0.4,2.101-1.8,2.5-3.7,2.3c0.3,0.5,0.4,1.1,1,1.4c1.1,0.6,0.9,1.4,0.3,2.199
		c0.2,1.601,1.2,0.601,1.9,0.5c0.6-0.1,1.399-0.399,1.8,0.4l0,0C249.6,87.6,250,87.5,250.4,87z"/>
	<path fill="#955D48" d="M266.5,83.8L266.5,83.8c-1.1-0.1-2.2-0.301-2.9-1.2c-0.699-0.899-1.3-0.7-1.699,0.101
		c-0.301,0.5-1.801,0.299-1,1.299c0.6,0.701-0.2,2.601,1.8,2.301c0.2,0,0.399,0.199,0.5,0.4C263.7,87,264.1,87.3,264.6,87.6l0,0
		c0.5-0.2,0.601-0.8,0.4-1.101c-1-1.699,0.3-1.899,1.4-2.199l0,0C266.4,84.1,266.4,84,266.5,83.8z"/>
	<path fill="#955D48" d="M262.7,86.3c-2,0.3-1.101-1.5-1.8-2.301c-0.801-1,0.699-0.699,1-1.299c0.399-0.801,1-1,1.699-0.101
		c0.7,0.899,1.801,1.101,2.9,1.2l0,0l0,0c-0.8-1.301-3.1-0.7-3.3-2.9c0-0.5-1.101,0.2-1.101,0.2c-0.199,1.899-1.8,1.601-3,1.899
		c0.2,1.201,2.101,0.801,1.801,2.101c-0.5,2.101,0.199,2.3,1.899,1.399c0.101-0.1,0.3,0,0.4,0.101C263.1,86.5,262.9,86.3,262.7,86.3
		z"/>
	<path fill="#955C49" d="M48.2,23.4L48.2,23.4L48.2,23.4c0-0.6,0-1.2-0.1-1.8l0,0l0,0c-0.9,0-1.8,0-2.7,0c-1.1,0-2.2,0-3.3,0l0,0
		c-0.7,0-1.4,0-2.2,0.1c0.1,1-0.7,2.4,1.3,2.3l0,0c1.7,0,3.3-0.1,5-0.1l0,0C46.8,23.2,47.5,23.6,48.2,23.4z"/>
	<path fill="#935D49" d="M182.5,92.1c-0.1,0,0.3,0.101,0.2,0c-1.101-0.5-2-0.899-0.2-1.7c0.7-0.3,1.4-0.6,1.9-1.1
		c-1.5,0.1-3,0.8-4.4,1.199c-1.6,0.5-3.6,0.4-4.8,2C177.7,91.8,180.2,92.701,182.5,92.1z"/>
	<path fill="#935D49" d="M184.2,91.4c-0.7-0.3-1.601,0.801-2.2-0.3c0.7-0.8,2.4-0.2,2.5-1.8l0,0c-0.5,0.6-1.3,0.8-1.9,1.1
		c-1.8,0.801-0.899,1.2,0.2,1.7c0.101,0-0.3-0.101-0.2,0c-2.3,0.601-4.8-0.3-7.199,0.399l0,0C183.3,93.1,183.3,93.1,184.2,91.4z"/>
	<path fill="#9F6634" d="M139.7,60.1L139.7,60.1c0,6.1,0,12.101,0,18.2C140,72.201,140,66.1,139.7,60.1z"/>
	<path fill="#9F6634" d="M140.1,76.201c0-4.601,0-9.301,0-13.901c0-0.7,0.2-1.5-0.4-2.2c0.3,6.1,0.3,12.101,0,18.2c0,0,0,0,0,0.1
		C140.3,77.701,140.1,76.9,140.1,76.201z"/>
	<path fill="#8E5551" d="M276.3,105c-1.399,0.5-2.8,0.4-4.2,0.101c-0.199,0-0.3-0.2-0.399-0.3c-0.3-0.1-0.5-0.2-0.8-0.301
		c-0.101,0-0.101,0.101-0.2,0.101c-0.3,0.2-0.601,0.399-1,0.399H269.6c-0.1,0.101-0.199,0.201-0.3,0.301c0,0,0,0.1,0.101,0.1
		c0,0.301,0,0.6,0,0.9c0.1,0,0.199,0,0.199,0c0-0.2,0.101-0.301,0.101-0.5c0.5-1,1.2-1.2,2.1-0.7c0.101,0.101,0.2,0.2,0.2,0.2l0,0
		c1.5,0,2.9,0,4.4,0c0.5-0.301,0.899,0.3,1.399,0.3l0,0C277.7,104.701,277,104.8,276.3,105z"/>
	<path fill="#8E5551" d="M279,104.701c-1.1-0.4-2.2-0.101-3.4,0.1c-1.199,0.199-2.5,0.1-3.8,0.1l0,0c-0.1,0-0.1,0-0.2,0
		c0.101,0.1,0.2,0.301,0.4,0.301c1.4,0.299,2.8,0.399,4.2-0.101c0.7-0.2,1.399-0.3,1.5,0.7C278.1,105.3,278.9,105.5,279,104.701z"/>
	<path fill="#8E5551" d="M269.7,105.1c0.399,0,0.7-0.2,1-0.399c0.1-0.101,0.1-0.101,0.2-0.101c-0.101,0-0.2-0.101-0.4-0.101l0,0l0,0
		c-0.3,0.201-0.6,0.301-0.9,0.5l0,0l-0.1,0.101C269.6,105,269.6,105.1,269.7,105.1z"/>
	<path fill="#8E5551" d="M269.3,105.4c0,0,0-0.1-0.1-0.1l-0.101,0.1l0,0c-0.1,0.301-0.3,0.6-0.399,0.9c0.2,0,0.399,0,0.6,0.1
		C269.3,106,269.4,105.701,269.3,105.4z"/>
	<path fill="#8E5551" d="M271.8,105.201c-0.899-0.5-1.7-0.201-2.1,0.699c0,0.2-0.101,0.301-0.101,0.5c0.101,0,0.301,0,0.4,0.1l0,0
		c0.2-1.299,1.2-1.1,2-1C271.9,105.3,271.9,105.201,271.8,105.201z"/>
	<path fill="#9F6634" d="M139.8,45.3c-0.5-1.4,0-2.1,0.8-3l0,0c-1,0.4-1.7,1.2-1.3,2.2c0.6,1.5,0.1,3.1,0.4,4.6l0,0l0,0
		C140.1,47.8,140.2,46.4,139.8,45.3z"/>
	<path fill="#9F6634" d="M140.1,46.5c0-1.4-0.5-2.9,0.5-4.2c-0.8,0.9-1.3,1.6-0.8,3c0.4,1.1,0.3,2.5,0,3.8l0,0
		C140.4,48.3,140.1,47.3,140.1,46.5z"/>
	<path fill="#8F5A51" d="M226.6,70.201c1.4-0.101,2.9,0.1,4.101-0.9l0,0l0,0C229.2,69.1,228,69.9,226.6,70.201z"/>
	<path fill="#8F5A51" d="M226.6,70.201C228,69.9,229.2,69.1,230.7,69.3l0,0C229,68.2,227.8,69.201,226.6,70.201z"/>
	<path fill="#9F6634" d="M139.7,52.7c-0.7,1.2-0.7,2.4,0,3.6l0,0C139.7,55.2,139.7,54,139.7,52.7z"/>
	<path fill="#9F6634" d="M139.7,52.7c-0.1,1.2-0.1,2.4,0,3.6l0,0l0,0C140.3,55.2,140.3,54,139.7,52.7z"/>
	<path fill="#895651" d="M89.8,123.6L89.8,123.6h-0.2c0,0.3-0.1,0.7-0.3,1c0.7-0.3,1.6,0.3,2.3-0.5l0,0
		C91,124,90.2,124.3,89.8,123.6z"/>
	<path fill="#895651" d="M89.8,123.6c0.4,0.7,1.2,0.3,1.8,0.5C91.2,123.4,90.4,123.701,89.8,123.6z"/>
	<path fill="#895651" d="M89.5,123.6h-0.2l0,0l0,0c0,0.3,0,0.601,0,1l0,0C89.6,124.3,89.6,124,89.5,123.6L89.5,123.6L89.5,123.6z"/>
	<path fill="#A36B42" d="M269.8,69.5c0.8,0.4,1.3,0.101,1.601-0.7c0-0.1-0.101-0.4-0.2-0.4C270.3,68.2,270.1,68.9,269.8,69.5z"/>
	<path fill="#A56543" d="M107.5,56c-0.4-0.6-0.7-1.2-1.1-1.9c-0.2,1-0.2,1.6,0.4,2.3l0,0l0,0C106.9,56.1,107.3,56.1,107.5,56z"/>
	<path fill="#A56543" d="M107.5,56L107.5,56c-0.3,0.1-0.6,0.1-0.8,0.4l0,0C107.1,56.4,107.4,56.4,107.5,56z"/>
	<path fill="#9F6634" d="M139.6,78.8c-0.6,0.9-0.6,1.9,0,2.8l0,0l0,0C139.3,80.701,139.3,79.701,139.6,78.8z"/>
	<path fill="#9F6634" d="M139.6,78.8c-0.3,0.9-0.3,1.9,0,2.8l0,0C139.6,80.701,139.6,79.701,139.6,78.8L139.6,78.8z"/>
	<path fill="#935C4A" d="M100.7,40.4c1.2-0.1,1-1,1-1.8l0,0l0,0c-1.5-0.5-3-0.5-4.5-0.6l0,0l0,0c-0.9,0-1.8,0-2.7,0l0,0
		c-1.7,0.3-3.3-0.7-5-0.4l0,0l0,0c-1.9,0.1-3.7-0.2-5.5-0.8l0,0c-6-1.3-12.2-0.9-18.3-1c-0.9,0-1.9,0.4-2.8-0.4l0,0l0,0
		c-0.6-0.4-1.3-1.6-1.7-0.9c-1.2,2-3.2,1.4-4.6,1.5c-1.9,0.1-3.1,2.1-5,1.6c-1.1-0.3-2,0-3,0.3c-0.7,0.2-1.6,0.3-1.2,1.4
		c0.3,0.9,1.2,1.1,2,1c6.2-1.2,12.5-1.9,18.8-2.4c2.3-0.2,4.7-0.9,7.1,0.2l0,0l0,0c1.4,0,2.7,0.1,4.1,0.1l0,0
		c2.8,0.4,5.6,0.8,8.3,1.2l0,0c1.2,0.2,2.5-0.3,3.6,0.5l0,0C94.3,40.6,97.5,40.3,100.7,40.4z"/>
	<path fill="#925C49" d="M116.4,33.9c0.7-0.1,1.5-0.4,1.3-1.5c-0.2-1.1-1-0.6-1.6-0.7c-0.4-0.1-0.8-0.1-1.1,0
		c-6.5,1.6-13.2,1.4-19.8,0.9c-3.5-0.3-6.9-0.6-10.3-1.1c-3.4-0.6-6.7-1.3-10.1-1.2c-1.1,0-2.2,0-3.3,0l0,0
		c-3.2,0.4-6.4-0.5-9.6,0.4c-0.8,0.2-1.6,0.1-1.3,1.3c0.2,1.1,0.8,1.1,1.8,0.9c1.8-0.3,3.7-0.3,5.5-0.4l0,0c0.9,0,1.8,0.1,2.8,0.1
		l0,0l0,0c2.7,0,5.4,0,8.1,0l0,0l0,0c1.1,0.1,2.2-0.3,3.2,0.4l0,0l0,0c1.8,0.2,3.7,0.1,5.3,0.7c3.9,1.4,8,0.9,11.9,1
		c3.1,0.1,6.3-0.1,9.5-0.1C111.3,34.6,113.8,34.2,116.4,33.9z"/>
	<path fill="#8B5A4C" d="M52,43.4c0.4,0,0.9,0,1.3,0c15.9,0.2,31.8-0.1,47.6,0.2c-0.3-0.1-0.5-0.3-0.6-0.8l0,0l0,0
		c-3.8-0.3-7.5-0.3-11.3-0.2c-12.1,0.3-24.2,0.2-36.3,0.2l0,0C52.5,43.2,52.3,43.3,52,43.4z"/>
	<path fill="#8B5A4C" d="M106.8,43.6c-0.4,0-0.8,0-1.3,0C105.9,43.6,106.4,43.7,106.8,43.6z"/>
	<path fill="#8B5A4C" d="M50.9,43.3c0.3,0,0.6,0,0.9,0C51.5,43.3,51.1,43.2,50.9,43.3z"/>
	<path fill="#8B5A4C" d="M102.1,43.6c0.1,0,0.2,0,0.3,0c0.4,0,0.7,0,1.1,0c-0.9,0-1.7,0-2.6,0c0.1,0,0.2,0,0.2,0c0.2,0,0.4,0,0.7,0
		C101.9,43.6,102,43.6,102.1,43.6z"/>
	<path fill="#8B5A4C" d="M100.9,43.5c0.9,0,1.7,0,2.6,0c0.5,0,1,0,1.5,0c0.2,0,0.3,0,0.5,0c0.4,0,0.8,0,1.3,0
		c0.3-0.1,0.6-0.2,0.9-0.5l0,0c-2.4-0.2-4.9,0.5-7.3-0.4l0,0C100.4,43.2,100.6,43.4,100.9,43.5z"/>
	<path fill="#8B5A4C" d="M52,43.4c-0.1,0-0.2,0-0.3,0C51.9,43.4,52,43.4,52,43.4z"/>
	<path fill="#8B5A4C" d="M101.8,43.6c0.2,0,0.4,0,0.6,0c-0.1,0-0.2,0-0.3,0S101.9,43.6,101.8,43.6z"/>
	<path fill="#8B5A4C" d="M49.4,43.8c1.1-0.3,2.2-0.2,3.4-0.2l0,0l0,0c16.2,0,32.3,0,48.5,0c-0.1,0-0.2,0-0.2,0
		c-15.8-0.3-31.7,0-47.6-0.2c-0.4,0-0.9,0-1.3,0c-0.1,0-0.2,0-0.3,0c-0.3,0-0.6,0-0.9,0c0.3-0.1,0.6,0,0.9,0c0.1,0,0.2,0,0.3,0
		c0.3,0,0.5-0.2,0.6-0.6C51.8,43.7,50.2,42.5,49.4,43.8z"/>
	<path fill="#A46937" d="M89.4,37.6c-1.7-1-3.6-1-5.5-0.8l0,0C85.7,37,87.5,37.2,89.4,37.6z"/>
	<path fill="#A46937" d="M89.4,37.6L89.4,37.6c-1.8-0.4-3.7-0.6-5.5-0.8l0,0l0,0C85.6,37.4,87.5,37.7,89.4,37.6z"/>
	<path fill="#985242" d="M15.7,34.9c0.6-0.3,0.1-0.6-0.1-0.8c-0.3-0.3-0.7-0.2-0.9,0.3C15.1,34.4,15.5,34.6,15.7,34.9z"/>
	<path fill="#985242" d="M15.7,34.9c-0.2-0.4-0.6-0.5-1-0.5l0,0C14.9,34.8,15.3,34.9,15.7,34.9z"/>
	<path fill="#946341" d="M192.5,123.1c-4.6,0-9.1,0-13.7,0c4.5,0,9.101,0,13.601,0C192.4,123.201,192.5,123.201,192.5,123.1z"/>
	<path fill="#946341" d="M94.2,123.201c0.5,0,1,0,1.5,0c-1.1,0-2.2-0.101-3.2-0.201c0.2,0,0.5,0.101,0.7,0.101
		C93.5,123.201,93.9,123.201,94.2,123.201z"/>
	<path fill="#946341" d="M91.6,122.9c-0.7-0.1-1.3-0.199-1.9,0.4C90.3,123,90.9,122.9,91.6,122.9z"/>
	<path fill="#946341" d="M106.6,123.201c-0.8,0-1.6,0-2.4,0c8.6,0,17.1,0,25.7,0C122.1,123.201,114.4,123.201,106.6,123.201z"/>
	<path fill="#946341" d="M89.6,123.4v0.1l0.1,0.101l0,0l0,0l0,0C89.8,123.5,89.7,123.5,89.6,123.4C89.7,123.4,89.7,123.4,89.6,123.4
		z"/>
	<path fill="#946341" d="M89.6,123.5v-0.1l0,0l0,0l0,0c0.6-0.6,1.2-0.5,1.9-0.4c0.3,0,0.6,0,0.9,0.101c1.1,0.101,2.2,0.101,3.2,0.2
		c2.8,0,5.6,0,8.5,0c0.8,0,1.6,0,2.4,0c7.8,0,15.5,0,23.3,0c16.3,0,32.601,0,48.9,0c4.6,0,9.1,0,13.7,0H192.3c0.101,0,0.2,0,0.3,0
		c0.9,0,2,0.4,2.801-0.4c-17.601,0-35.2,0-52.8,0c-17,0-34,0-50.9,0c-0.9,0-2.1-0.6-2.5,0.9C89.4,123.5,89.5,123.5,89.6,123.5z"/>
	<path fill="#946341" d="M92.5,123c-0.3,0-0.6-0.1-0.9-0.1c0.1,0,0.3,0,0.4,0.1C92.2,123,92.3,123,92.5,123z"/>
	<path fill="#946341" d="M94.2,123.201c-0.3,0-0.7,0-1-0.101c-0.2,0-0.5,0-0.7-0.101c-0.2,0-0.3,0-0.5,0c-0.1,0-0.3,0-0.4-0.1
		c-0.6,0-1.3,0-1.9,0.4l0,0c0,0.1,0.1,0.199,0.1,0.3c1-0.8,2.1-0.3,3.2-0.399l0,0l0,0C93.4,123.201,93.8,123.201,94.2,123.201z"/>
	<path fill="#946341" d="M89.7,123.3L89.7,123.3L89.7,123.3z"/>
	<path fill="#946341" d="M89.6,123.5v0.101h0.1l0,0C89.7,123.6,89.7,123.5,89.6,123.5z"/>
	<path fill="#946341" d="M89.5,123.6L89.5,123.6c0.1,0,0.1-0.101,0.1-0.101c-0.1-0.1-0.2,0-0.3,0.101l0,0H89.5z"/>
	<path fill="#895651" d="M193.6,123.4c-4,0.1-8.1,0-12.1,0c-28.6,0-57.2,0-85.9,0c-0.9,0-1.8,0.2-2.7-0.199
		c0.7,0.699,1.6,0.399,2.4,0.399c32.8,0,65.7,0,98.5,0c0.7,0,1.5,0.2,2-0.2c0.8-0.5,0-0.6-0.399-0.8l0,0l0,0
		C195.2,124,194.3,123.4,193.6,123.4z"/>
	<path fill="#895651" d="M191.7,123.201c0.3,0,0.5,0,0.7,0c-4.5,0-9.101,0-13.601,0c-2.2,0-4.399,0-6.5,0
		C178.7,123.201,185.2,123.201,191.7,123.201z"/>
	<path fill="#895651" d="M139.1,123.201c-3.1,0-6.1,0-9.2,0c-8.6,0-17.1,0-25.7,0c-0.1,0-0.1,0-0.2,0
		C115.7,123.201,127.4,123.201,139.1,123.201z"/>
	<path fill="#895651" d="M95.5,123.201c0.1,0,0.2,0,0.3,0l0,0c-0.5,0-1,0-1.5,0C94.6,123.201,95,123.201,95.5,123.201z"/>
	<path fill="#895651" d="M172.2,123.201c2.2,0,4.399,0,6.5,0c-16.3,0-32.601,0-48.9,0c3.1,0,6.1,0,9.2,0
		C150.1,123.201,161.2,123.201,172.2,123.201z"/>
	<path fill="#895651" d="M104,123.201c-2.8,0-5.5,0-8.3,0C98.5,123.3,101.3,123.201,104,123.201z"/>
	<path fill="#895651" d="M104,123.201c0.1,0,0.1,0,0.2,0c-2.8,0-5.6,0-8.5,0l0,0C98.5,123.201,101.3,123.201,104,123.201z"/>
	<path fill="#895651" d="M192.6,123.201c-0.1,0-0.199,0-0.3,0c-0.2,0.1-0.5,0-0.7,0c-6.5,0-12.899,0-19.399,0
		c-11.101,0-22.101,0-33.2,0c-11.7,0-23.4,0-35.1,0c-2.8,0-5.5,0.1-8.3,0c-0.1,0-0.2,0-0.3,0c-0.4,0-0.9,0-1.3,0s-0.8,0-1.2,0l0,0
		c0.9,0.399,1.8,0.199,2.7,0.199c28.6,0,57.2,0,85.9,0c4,0,8.1,0,12.1,0c0.6,0,1.6,0.6,1.8-0.6l0,0
		C194.6,123.6,193.6,123.201,192.6,123.201z"/>
	<path fill="#895651" d="M172.2,123.201c-11.101,0-22.101,0-33.2,0C150.1,123.201,161.2,123.201,172.2,123.201z"/>
	<path fill="#915E41" d="M177.9,93.9c-0.2,0-0.4-0.1-0.601-0.1v0.1C177.5,93.9,177.7,93.9,177.9,93.9z"/>
	<path fill="#915E41" d="M236.1,94.201c0.7,0,1.5,0,2.2,0.199c0.3,0,0.601,0,0.9,0v-0.1c-0.2-0.1-0.5-0.2-0.9-0.2c-1,0-2,0-3,0
		c0,0,0.101,0,0.101,0.101C235.7,94.201,235.9,94.201,236.1,94.201z"/>
	<path fill="#915E41" d="M177.2,93.8c-0.5-0.1-1-0.2-1.4-0.4C176.1,94,176.7,93.9,177.2,93.8C177.2,93.9,177.2,93.9,177.2,93.8
		C177.2,93.9,177.2,93.8,177.2,93.8z"/>
	<path fill="#915E41" d="M177.2,93.8c0.2,0,0.399,0.1,0.6,0.1c18.4,0,36.8,0,55.3,0c0.801,0,1.601-0.3,2.301,0.2c1,0,2,0,3,0
		c0.399,0,0.6,0,0.899,0.2c0-0.301,0.101-0.6,0.101-0.801l0,0l0,0c-20.9,0-41.801,0-62.601,0C176.9,93.6,177.1,93.701,177.2,93.8
		L177.2,93.8z"/>
	<path fill="#915E41" d="M177.2,93.8L177.2,93.8c-0.2-0.2-0.3-0.301-0.5-0.4c-0.3,0-0.601,0-0.9,0
		C176.3,93.6,176.7,93.701,177.2,93.8z"/>
	<path fill="#915E41" d="M238.3,94.4c-0.7-0.199-1.5-0.199-2.2-0.199c-0.199,0-0.399,0-0.6,0c0.1,0.1,0.1,0.1,0.2,0.199
		C236.6,94.4,237.5,94.4,238.3,94.4z"/>
	<path fill="#8C504F" d="M239.3,94.6C239.3,94.6,239.3,94.5,239.3,94.6C239.3,94.5,239.3,94.5,239.3,94.6
		c-0.2-0.101-0.399-0.101-0.6,0c0.1,0.101,0.2,0.2,0.3,0.3l0,0l0,0C239.1,94.701,239.2,94.701,239.3,94.6z"/>
	<path fill="#8C504F" d="M176.5,94.8c0.2-0.1,0.3-0.1,0.5-0.2C176.8,94.6,176.5,94.6,176.5,94.8z"/>
	<path fill="#8C504F" d="M177.3,94.4c0,0.1,0,0.1-0.1,0.1c0.2-0.1,0.399-0.1,0.6-0.1C177.6,94.4,177.5,94.4,177.3,94.4L177.3,94.4z"
		/>
	<path fill="#8C504F" d="M176.9,94.6c0.1,0,0.199-0.101,0.3-0.101c0,0,0-0.1,0.1-0.1l0,0h-0.1l0,0c-0.5,0.1-1-0.199-1.4,0.2
		c0.2,0.101,0.3,0.2,0.5,0.3c0.101,0,0.101,0,0.2-0.1C176.5,94.6,176.8,94.6,176.9,94.6z"/>
	<path fill="#8C504F" d="M238.7,94.6c-1.101,0.101-2.101,0.101-3.2-0.101c-1.1,0-2.1-0.1-3.2-0.1c-2.7,0-5.3,0-8,0
		c-0.8,0-1.7,0-2.5,0c-6.2,0-12.399,0-18.6,0c-7.8,0-15.7,0-23.5,0c-0.5,0-0.9,0.1-1.3,0c-0.2,0-0.4,0-0.5,0
		c-0.2,0-0.4,0.1-0.601,0.1c-0.1,0.101-0.2,0.101-0.3,0.101c-0.2,0.101-0.3,0.101-0.5,0.2v0.1c20.8,0,41.7,0,62.5,0
		C238.9,94.8,238.8,94.701,238.7,94.6z"/>
	<path fill="#8C504F" d="M177.2,94.5c-0.101,0-0.2,0.101-0.3,0.101C177,94.6,177.1,94.6,177.2,94.5z"/>
	<path fill="#8C504F" d="M176.3,94.8L176.3,94.8c0.101,0,0.101,0,0.2,0v-0.1C176.4,94.8,176.3,94.8,176.3,94.8z"/>
	<path fill="#8C504F" d="M239.3,94.6c-0.1,0.101-0.2,0.101-0.3,0.2l0,0l0,0c0.1,0,0.2,0,0.3-0.1l0,0l0,0
		C239.3,94.701,239.3,94.701,239.3,94.6z"/>
	<path fill="#8C504F" d="M238.3,94.4c0.101,0,0.2,0,0.3,0.1L238.7,94.6c0.2,0,0.399,0,0.6,0l0,0V94.5
		C239,94.4,238.7,94.4,238.3,94.4z"/>
	<path fill="#8C504F" d="M221.8,94.4c0.8,0,1.7,0,2.5,0c-7,0-14.1,0-21.1,0C209.4,94.4,215.6,94.4,221.8,94.4z"/>
	<path fill="#8C504F" d="M238.3,94.4c-0.899,0-1.7,0-2.6,0c-1.101,0-2.3,0-3.4,0c1.101,0,2.101,0,3.2,0.1
		c1.1,0.201,2.1,0.201,3.2,0.101L238.6,94.5C238.5,94.4,238.4,94.4,238.3,94.4z"/>
	<path fill="#8C504F" d="M179.7,94.4c-0.4,0-0.9,0-1.3,0C178.8,94.4,179.3,94.4,179.7,94.4z"/>
	<path fill="#996250" d="M177.3,94c0,0.101,0,0.201,0,0.301c0.101-0.1,0.2-0.1,0.4-0.1C177.5,94.1,177.4,94.1,177.3,94z"/>
	<path fill="#996250" d="M177.3,94C177.2,94,177.2,93.9,177.3,94c-0.1,0.101-0.1,0.201-0.1,0.4l0,0h0.1
		C177.3,94.201,177.3,94.1,177.3,94z"/>
	<path fill="#996250" d="M177.3,94c0.101,0.101,0.2,0.101,0.4,0.201c0.399-0.101,0.899,0,1.3,0c18.3,0,36.7,0,55,0
		c0.4,0,0.9-0.101,1.4,0c0.1,0,0.1,0,0.199,0l-0.1-0.101c-18.1,0-36.2,0-54.3,0c-1.101,0-2.2-0.101-3.3-0.2
		C177.7,93.9,177.5,93.9,177.3,94C177.3,93.9,177.3,94,177.3,94z"/>
	<path fill="#996250" d="M177.3,93.9C177.2,93.9,177.2,93.9,177.3,93.9C177.2,93.9,177.2,94,177.3,93.9
		C177.3,94,177.3,93.9,177.3,93.9z"/>
	<path fill="#996250" d="M235.4,94.1c-0.7-0.5-1.5-0.2-2.301-0.2c-18.399,0-36.8,0-55.3,0c1.101,0.2,2.2,0.2,3.3,0.2
		C199.3,94.1,217.3,94.1,235.4,94.1z"/>
	<path fill="#996250" d="M235.5,94.201c-0.1,0-0.1,0-0.2,0c0.101,0,0.3,0.1,0.4,0.199C235.7,94.3,235.6,94.201,235.5,94.201z"/>
	<path fill="#996250" d="M177.6,94.201c-0.1,0-0.199,0.1-0.399,0.1l0,0c0.2,0,0.399,0,0.5,0c0.1,0,0.2,0,0.2-0.1
		C177.9,94.3,177.8,94.201,177.6,94.201z"/>
	<path fill="#996250" d="M177.3,94.3C177.2,94.3,177.2,94.3,177.3,94.3C177.2,94.4,177.2,94.4,177.3,94.3
		C177.3,94.4,177.3,94.3,177.3,94.3z"/>
	<path fill="#996250" d="M177.8,94.4c0.2,0,0.4,0,0.5,0c-0.1,0-0.2,0-0.3-0.1C178,94.3,177.9,94.3,177.8,94.4z"/>
	<path fill="#996250" d="M224.3,94.4c2.7,0,5.3,0,8,0C229.6,94.3,227,94.3,224.3,94.4z"/>
	<path fill="#996250" d="M179.7,94.4c7.8,0,15.7,0,23.5,0c-7.7,0-15.5,0-23.2,0C179.9,94.4,179.8,94.4,179.7,94.4z"/>
	<path fill="#996250" d="M179.8,94.201c18.5,0,37,0,55.5,0c-0.399-0.101-0.899,0-1.399,0c-18.301,0-36.7,0-55,0
		c-0.4,0-0.9-0.101-1.301,0c0.101,0.1,0.301,0.1,0.4,0.1C178.6,94.201,179.2,94.201,179.8,94.201z"/>
	<path fill="#996250" d="M235.3,94.201c-18.5,0-37,0-55.5,0c-0.6,0-1.2,0-1.7,0.1c0.101,0,0.2,0,0.301,0.1c0.399,0,0.899,0,1.3,0
		c0.1,0,0.2,0,0.3,0c7.7,0,15.5,0,23.2,0c7,0,14.1,0,21.1,0c2.7,0,5.3,0,8,0c1.101,0,2.3,0,3.4,0
		C235.6,94.3,235.5,94.201,235.3,94.201z"/>
	<path fill="#875650" d="M238.8,123.3c-6.3,0-12.6,0-18.899,0c0,0.1-0.101,0.1-0.101,0.199c6.3,0,12.7,0,19,0
		C238.8,123.4,238.8,123.3,238.8,123.3z"/>
	<path fill="#A77347" d="M155,114.701c-0.3-0.101-0.6,0.1-0.6,0.399c0,0.5,0.199,0.7,0.699,0.7c0.301,0,0.5-0.2,0.7-0.301
		C155.7,114.9,155.3,114.8,155,114.701z"/>
	<path fill="#94633F" d="M107.4,43.7c0.4,0,0.7,0,1.1,0c-0.3-0.1-0.6-0.1-0.9-0.1C107.6,43.6,107.5,43.6,107.4,43.7
		C107.5,43.6,107.5,43.6,107.4,43.7z"/>
	<path fill="#94633F" d="M107.6,43.6c0.3,0,0.6,0.1,0.9,0.1c0.5,0,1,0,1.5,0c-0.5,0.1-1,0.1-1.5,0c-0.4,0-0.7,0-1.1,0
		c-0.2,0.2-0.6,0.1-1,0.1c-17.7,0-35.4,0-53.1,0c-0.2,0-0.4-0.1-0.6-0.2c0.7,0.7,1.6,0.4,2.4,0.4c18.4,0,36.8,0,55.3,0
		c0.6,0,1.2,0.3,2-0.5c-1.7,0.1-3.2,0.1-4.7-0.4l0,0C107.6,43.3,107.6,43.5,107.6,43.6C107.5,43.6,107.6,43.6,107.6,43.6z"/>
	<path fill="#94633F" d="M110,43.7c-0.5,0-1,0-1.5,0C109,43.8,109.5,43.9,110,43.7z"/>
	<path fill="#94633F" d="M107.4,43.7C107.5,43.6,107.5,43.6,107.4,43.7c-0.2-0.1-0.4-0.1-0.7-0.1c-0.4,0.1-0.8,0-1.3,0s-0.9,0-1.4,0
		C105.2,43.6,106.3,43.6,107.4,43.7z"/>
	<path fill="#94633F" d="M107.5,43.6c0.1-0.1,0.1-0.3,0.1-0.5c-0.3,0.3-0.6,0.4-0.9,0.5C107,43.6,107.3,43.6,107.5,43.6z"/>
	<path fill="#94633F" d="M105.5,43.6c-0.2,0-0.3,0-0.5,0c-0.5,0-1,0-1.5,0c0.2,0,0.4,0,0.6,0C104.6,43.6,105,43.6,105.5,43.6z"/>
	<path fill="#94633F" d="M101.8,43.6c-0.2,0-0.4,0-0.7,0C101.4,43.6,101.6,43.6,101.8,43.6z"/>
	<path fill="#94633F" d="M106.5,43.8c0.3,0,0.7,0.1,1-0.1c-1.1,0-2.2-0.1-3.3-0.1c-0.6,0-1.1,0-1.7,0c-0.2,0-0.4,0-0.6,0
		c-0.2,0-0.4,0-0.7,0c-16.2,0-32.3,0-48.5,0l0,0c0.2,0.1,0.4,0.2,0.6,0.2C71.1,43.8,88.8,43.8,106.5,43.8z"/>
	<path fill="#94633F" d="M104.1,43.6c-0.2,0-0.4,0-0.6,0c-0.4,0-0.7,0-1.1,0C103,43.6,103.6,43.6,104.1,43.6z"/>
	<path fill="#93633B" d="M219.6,27.7c-0.1,0-0.199,0-0.199,0c0,10.6,0,21.2,0,31.7c0.1,0,0.199,0.1,0.199,0.1
		C219.6,48.9,219.6,38.3,219.6,27.7z"/>
	<path fill="#AE7B45" d="M144.1,54c-0.6-0.1-0.7,0.4-0.7,0.9c0,0.4,0.3,0.6,0.8,0.6c0.5-0.1,0.899-0.4,0.8-0.9
		C144.9,54.3,144.4,54,144.1,54z"/>
	<path fill="#92555B" d="M41.1,75.201c-0.1,0-0.1,0-0.2,0c0,8.199,0,16.399,0,24.5c0.1,0,0.1,0,0.2,0
		C41.1,91.5,41.1,83.4,41.1,75.201z"/>
	<path fill="#A9753D" d="M257.6,76c0.4-0.199,1.101-0.1,1.101-0.799c0-0.4-0.5-0.5-0.9-0.5c-0.5,0-1.2,0-1.1,0.799
		C256.7,75.9,257.2,76,257.6,76z"/>
	<path fill="#955D5F" d="M233.7,86.3c-8.4,0-16.8,0-25.3,0c-0.7,0-1.301,0.199-2-0.2l0,0c0.5,0.601,1.199,0.399,1.899,0.399
		c8.5,0,17,0,25.5,0c0.601,0,1.3,0.201,1.9-0.399c0,0,0,0-0.101,0C235,86.5,234.4,86.3,233.7,86.3z"/>
	<path fill="#955D5F" d="M235.7,86.1C235.7,86.201,235.7,86.201,235.7,86.1C235.7,86.201,235.7,86.201,235.7,86.1
		C235.7,86.201,235.7,86.201,235.7,86.1L235.7,86.1z"/>
	<path fill="#955D5F" d="M206.5,86.1L206.5,86.1L206.5,86.1C206.5,86.201,206.5,86.201,206.5,86.1L206.5,86.1z"/>
	<path fill="#955D5F" d="M223.7,86.1c-2.101,0-4.2,0-6.4,0C219.4,86.201,221.5,86.201,223.7,86.1z"/>
	<path fill="#955D5F" d="M214.6,86.3c-1.5,0-3-0.1-4.5-0.2c-1.1,0-2.199,0-3.3,0c-0.1,0-0.2,0-0.3,0c0.6,0.399,1.3,0.2,2,0.2
		c8.4,0,16.8,0,25.3,0c0.601,0,1.3,0.1,1.9-0.2c-0.7,0-1.4,0-2.101,0c-1.1,0-2.1,0-3.199,0C225.1,86.201,219.8,86.4,214.6,86.3z"/>
	<path fill="#955D5F" d="M235.7,86.1c-0.7,0-1.4,0-2.2,0C234.2,86.1,234.9,86.201,235.7,86.1C235.7,86.201,235.7,86.201,235.7,86.1z
		"/>
	<path fill="#955D5F" d="M206.5,86.1L206.5,86.1c0.1,0,0.2,0,0.3,0C206.7,86.1,206.6,86.1,206.5,86.1z"/>
	<path fill="#955D5F" d="M214.6,86.3c5.301,0.1,10.5-0.1,15.801-0.2c-2.2,0-4.5,0-6.7,0c-2.101,0-4.2,0-6.4,0c-2.399,0-4.8,0-7.3,0
		C211.6,86.201,213.1,86.3,214.6,86.3z"/>
	<path fill="#8E5551" d="M279.5,101.3c0.1,0.1,0.2,0.3,0.3,0.5c0.101,0.1,0,0.4,0,0.6c0.101,0.1,0.101,0.1,0.2,0.2
		c0.1,0,0.2,0,0.4-0.101c0.199,0.101,0.399,0.101,0.3,0.4c0.2,0,0.2-0.1,0.1-0.199c-0.2-0.601-0.8-0.9-1.1-1.5c0,0,0,0-0.101,0
		C279.5,101.3,279.5,101.3,279.5,101.3z"/>
	<path fill="#8E5551" d="M279.8,102.4c0-0.199,0.101-0.4,0-0.6c-0.1-0.2-0.2-0.301-0.3-0.5c-0.1,0.1-0.2,0.1-0.3-0.1
		c0.1,0.299,0.3,0.6,0.399,0.899l0,0l0,0C279.7,102.3,279.8,102.3,279.8,102.4z"/>
	<path fill="#8E5551" d="M280.7,102.9c0.1-0.3-0.101-0.4-0.3-0.4c-0.2,0.101-0.301,0.101-0.4,0.101l0.1,0.101l0,0l0,0l0,0l0,0
		c0.301,0.299,0.5,0.6,0.801,1c0.3-1.201,0.1-2.201-1.301-2.4c0.301,0.5,0.9,0.9,1.101,1.5C280.8,102.9,280.8,102.9,280.7,102.9z"/>
	<path fill="#8E5551" d="M279.5,101.3l0.1-0.1l0,0c-0.1,0-0.1,0-0.199,0C279.4,101.3,279.5,101.3,279.5,101.3z"/>
	<path fill="#8E5551" d="M279.5,101.3l-0.1-0.1c0,0-0.101,0-0.101,0.1S279.4,101.4,279.5,101.3z"/>
</g>
</svg>
