<?xml version="1.0" encoding="utf-8"?>
<!-- Generator: Adobe Illustrator 16.0.0, SVG Export Plug-In . SVG Version: 6.00 Build 0)  -->
<!DOCTYPE svg PUBLIC "-//W3C//DTD SVG 1.1//EN" "http://www.w3.org/Graphics/SVG/1.1/DTD/svg11.dtd" [
	<!ENTITY ns_extend "http://ns.adobe.com/Extensibility/1.0/">
	<!ENTITY ns_ai "http://ns.adobe.com/AdobeIllustrator/10.0/">
	<!ENTITY ns_graphs "http://ns.adobe.com/Graphs/1.0/">
	<!ENTITY ns_vars "http://ns.adobe.com/Variables/1.0/">
	<!ENTITY ns_imrep "http://ns.adobe.com/ImageReplacement/1.0/">
	<!ENTITY ns_sfw "http://ns.adobe.com/SaveForWeb/1.0/">
	<!ENTITY ns_custom "http://ns.adobe.com/GenericCustomNamespace/1.0/">
	<!ENTITY ns_adobe_xpath "http://ns.adobe.com/XPath/1.0/">
]>

<svg version="1.1" id="Layer_1" xmlns:x="&ns_extend;" xmlns:i="&ns_ai;" xmlns:graph="&ns_graphs;"
	 xmlns="http://www.w3.org/2000/svg" xmlns:xlink="http://www.w3.org/1999/xlink" x="0px" y="0px" width="280.293px"
	 height="136.107px" viewBox="0 0 280.293 136.107" enable-background="new 0 0 280.293 136.107" xml:space="preserve">
<metadata>
	<sfw  xmlns="&ns_sfw;">
		<slices></slices>
		<sliceSourceBounds  width="327.667" height="183" bottomLeftOrigin="true" x="772.854" y="448.804"></sliceSourceBounds>
	</sfw>
</metadata>
<g id="Layer_2" display="none">
	<rect x="-22.5" y="-23.25" display="inline" fill="#FF0000" width="327.667" height="183"/>
</g>
<g id="park">
	<path fill="#5E9734" d="M250.5,55.117c3.873,3.649,6.201,8.514,9.879,12.386c2.199,2.318,4.347,1.943,6.627,1.623
		c1.313-0.186,1.406-0.059,1.587,1.111c0.267,1.725-0.123,3.389-0.181,5.072c-0.028,0.848-0.72,1.696-1.744,1.815
		c-6.1,0.701-12.084,2.031-17.975,3.664c-4.002,1.109-8.197,1.144-12.117,2.541c-0.613,0.219-0.795-0.176-0.894-0.668
		c-1.021-2.539,0.025-4.977,0.367-7.445c0.389-1.149,1.314-1.26,2.371-1.422c2.461-0.375,2.789-1.237,1.332-3.166
		c-0.441-0.584-1.01-1.135-1.183-1.823c-0.752-2.954-3.909-3.406-5.552-5.434c-0.354-0.438-0.782,0.135-1.123,0.4
		c-4.349,3.393-4.894,4.535-5.226,10.323c-0.09,1.59,0.531,2.192,2.062,2.024c1.245-0.135,2.618-0.551,3.18,1.189
		c0.547,6.073,0.155,6.58-5.647,7.901c-0.862,0.197-1.812-0.065-2.599,0.494c-7.057,1.601-14.114,3.193-21.17,4.808
		c-0.728,0.166-1.397-0.019-1.586-0.652c-0.17-0.572-1.045-1.234-0.119-1.894c0.679-0.479,0.406-1.11,0.33-1.721
		c-0.377-0.549-0.349-1.102-0.006-1.651c-0.244-1.729,0.838-2.312,2.252-2.587c1.752-0.342,3.606-0.477,4.586-2.336
		c0.312-10.6,0.116-21.201,0.094-31.802c-0.006-3.302-1.432-4.357-4.696-3.698c-1.65,0.334-2.185-0.35-2.345-1.718
		c-0.146-1.257,0.104-2.536-0.147-3.793c-0.273-1.534,0.229-2.084,1.91-2.399c8.596-1.613,17.151-3.401,25.694-5.261
		c1.445-0.314,1.656,0.158,1.851,1.324c0.518,3.127-0.848,5.94-3.822,7.369c-0.877,0.422-1.408,0.975-1.156,1.852
		c0.924,3.217,0.301,6.484,0.422,9.724c0.039,1.042,1.572,2.351-0.424,3.19c-0.156,0.065-0.097,0.934,0.389,1.146
		c0.922,0.405,1.937-0.335,2.1-0.786c0.552-1.496,1.98-1.984,2.88-3.039c0.368-0.316,0.61-0.795,1.142-0.904
		c1.51-0.324,2.588-1.327,3.327-2.544c0.953-1.562,2.886-1.686,3.976-3.047c0.418-0.52,1.134,0.209,1.539,0.667
		c0.72,0.807,1.133,1.824,1.774,2.685c0.326,0.48,0.688,0.938,1.093,1.355c2.055-0.284,3.2,0.858,4.188,2.469
		C248.407,53.555,248.903,54.945,250.5,55.117z"/>
	<path fill="#5E9733" d="M254.778,110.995c1.264,0.592,2.129,1.516,1.547,2.939c-0.533,1.301-1.613,1.703-3.094,1.369
		c-1.025-0.23-2.148-0.021-3.229-0.013c-1.08,0.98-2.33-0.139-3.463,0.201c1.201-0.041,2.328,0.104,3.308,0.873
		c1.131,1.154,3.008-0.082,4.172,1.393c0.414,0.525,1.524,0.537,1.246,1.632c-0.232,0.922-0.744,1.625-1.754,1.829
		c-0.683,0.144-1.476-0.217-2.041,0.449c-1.173,0.931-2.365-0.354-3.406,0.146c1.215-0.103,2.51,0.088,3.562,1.051
		c0.467,0.375,1.582-0.375,1.529,0.918c-0.057,1.352,0.053,2.691-1.369,3.559c-2.271,1.388-4.684,1.195-7.088,0.683
		c-0.714-0.152-1.408-0.39-2.115-0.256c-5.791,1.078-11.322,0.059-16.727-2.019c-3.115-0.914-4.191-2.119-4.492-5.27
		c-0.229-2.41-0.477-4.801-0.135-7.265c0.526-3.78,1.018-4.504,4.824-5.28c0.354-0.074,0.709-0.123,0.944-0.438
		c2.188-0.715,4.539-1.018,6.438-2.486c0.562-0.272,1.185,0.232,1.736-0.139c7.873-1.006,15.717-0.979,23.523,0.604
		c2.143-0.304,4.15,0.198,6.104,1.028c1.029,0.711,1.902,1.611,1.354,2.925c-0.539,1.301-1.878,0.893-2.896,0.831
		c-2.236-0.133-4.513,0.373-6.712-0.379c-1.575-1.032-3.188,0.705-4.766-0.067c-0.691,0.051-1.384,0.242-2.078,0.03
		c-0.47-0.11-0.967,0.003-1.437-0.133c0.297,0.158,0.636,0.066,0.947,0.144c0.859,0.268,1.732,0.227,2.609,0.137
		C252.875,110.137,254.03,109.973,254.778,110.995z"/>
	<path fill="#5D9630" d="M242.403,49.094c-1.633-0.597-1.406-2.73-2.979-3.518c-0.604,0.278,0.664,2.199-1.282,1.527
		c-1.23-0.427-1.808,0.896-2.479,1.728c-0.986,1.226-1.854,2.656-3.783,2.408c-0.361-0.624,0.293-0.793,0.518-1.154
		c3.14-3.88,7.14-6.966,10.104-11.012c0.416-0.568,1.273-0.958,0.865-1.769c-0.328-0.649-1.127-0.845-1.855-0.908
		c-0.451-0.038-0.912,0.052-1.365,0.019c-1.348-0.097-3.272,1.688-3.895-0.071c-0.703-2-0.162-4.399,0.418-6.57
		c0.188-0.714,0.805-0.789,1.475-0.918c7.543-1.455,15.086-2.91,22.604-4.495c1.558-0.326,2.949-1.355,4.683-1.004
		c0.959,0.194,1.558,0.52,1.123,1.622c-0.033,0.082-0.138,0.172-0.119,0.233c1.573,5.79-2.752,6.69-6.604,7.984
		c-1.193,0.375-2.348,2.342-3.607,0.098c-0.315-0.314-0.678-0.482-1.133-0.312c-0.756,0.532-1.387,1.221-2.207,1.651
		c-0.66,0.44-1.279,0.934-1.783,1.541c-0.299,0.957,0.398,0.598,0.812,0.604c0.229-0.059,0.461-0.09,0.693-0.109
		c1.175,0.069,1.563-1.084,2.397-1.542c0.623-0.342,1.394-0.96,1.923-0.298c0.606,0.761-0.386,1.191-0.83,1.681
		c-0.181,0.194-0.438,0.308-0.681,0.424c-1.364,2.915-4.06,4.729-5.978,7.182c-0.426,0.702-1.002,1.252-1.682,1.701
		c-0.203,1.689-2.084,0.561-2.678,1.595C244.246,48.065,243.729,49.224,242.403,49.094z"/>
	<path fill="#5E9833" d="M56.27,38.606c-4.88-0.427-4.864-0.427-4.879-5.504c-0.01-3.438-0.073-6.876-0.112-10.313
		c-0.344-1.481,0.07-2.112,1.632-1.451c1.261,0.738,2.607,0.272,3.919,0.278c2.933-0.949,3.605-0.649,3.84,1.713
		c0.115,1.014,0.811,1.902,0.408,3.052c-0.255,0.729,0.079,1.478,1.099,1.376c0.708-0.068,1.816,0.44,1.814-0.917
		c-0.002-1.19,0.948-2.225,0.178-3.601c-0.662-1.184-0.015-1.751,1.475-1.681c1.347,0.062,2.694,0.137,4.041,0.146
		c3.608,0.021,3.703,0.11,3.512,3.782c-0.416,2.947-0.389,5.896-0.008,8.844c-0.501,0.697-0.565,1.376-0.302,2.246
		c0.304,1.009-0.063,1.896-1.294,2.104c-0.328,0.272-0.708,0.377-1.127,0.352c-1.436-0.297-2.874-0.309-4.311,0.001
		c-0.421,0.031-0.798-0.079-1.127-0.347c-0.178-0.167-0.355-0.333-0.533-0.5c-0.466-0.562-0.475-1.146-0.096-1.755
		c-0.527-1.525-0.043-3.734-2.619-3.88c-1.475-0.244-0.902,1.39-1.654,1.808c-0.431,1.423,0.833,3.283-1.116,4.312
		C58.077,39.312,57.163,39.352,56.27,38.606z"/>
	<path fill="#5D952F" d="M216.565,10.754c-1.922,1.72-4.072,2.123-6.504,1.225c-0.49-0.182-1.078-0.125-1.621-0.125
		c-18.281-0.004-36.564-0.004-54.848,0.002c-0.341,0-0.685,0.085-1.233,0.158c1.747,0.958,3.659-0.342,5.122,0.93
		c-0.691,0.765-1.627,0.753-2.533,0.751c-8.829-0.021-17.66,0.138-26.479-0.071c-0.282-0.043-0.558-0.142-0.807-0.276
		c-0.239-1.832-1.211-0.524-1.906-0.425c-0.369,0.01,0.101,0.062-0.263,0.058c-0.92-0.017-2.246,0.366-2.362-0.902
		c-0.089-0.971,1.193-1.083,2.034-1.271c0.429-0.097,0.875-0.112,1.294-0.251c0.948-0.205,1.897-0.119,2.849,0
		c-0.852-0.112-1.7-0.283-2.562-0.073c-0.392,0.056-0.765,0.194-1.159,0.236c-0.55,0.022-1.1,0.072-1.643-0.062
		c-1.817-0.425-3.627-0.38-5.438,0.062c-0.618,0.103-1.229,0.087-1.838-0.045c-5.158-0.381-10.313-0.466-15.465,0.058
		c-0.685,0.131-1.365,0.121-2.044-0.028c-0.791-0.276-1.616-0.259-2.434-0.26c-20.31-0.01-40.622-0.015-60.934,0
		c-0.636,0.001-1.275,0.007-1.9,0.14c-0.466,0.143-0.944,0.174-1.425,0.133c-1.671-0.43-3.382-0.315-5.082-0.313
		c-1.06-0.146-1.573,0.595-2.103,1.312c-0.375,0.273-0.731,0.354-1.043-0.09c-0.43-0.88-0.195-1.688,0.27-2.468
		c0.198-0.854,0.588-1.142,1.558-0.929c4.978,1.091,10,1.271,15.054,0.533c0.715-0.104,1.455-0.043,2.184-0.043
		c9.023-0.004,18.048-0.063,27.07,0.007c9.32,0.072,18.643,0.492,27.958,0.344c6.072-0.096,12.125-0.503,18.201,0.023
		c1.765,0.153,3.583-0.322,5.378-0.511c1.188-0.492,2.27-0.223,3.291,0.469c5.774,0.123,11.527-0.702,17.333,0.009
		c2.924,0.359,5.957-0.173,8.941-0.301c0.277,0.427,0.261,0.809-0.168,1.129c-0.551,0.365-1.121,0.215-1.691,0.057
		c-1.717,0.096-3.453-0.262-5.152,0.198c-0.32,0.315-0.676,0.415-1.082,0.168c-1.692-0.687-3.49-0.209-4.756-0.371
		c1.15-0.022,2.771,0.021,4.383,0.154c0.646,0.762,1.211,0.343,1.775-0.124c1.426-0.05,2.846-0.011,4.26-0.022
		c0.244-0.005,0.49,0.021,0.725,0.078c0.591,0.581,1.184,0.487,1.785-0.001c0.836-0.197,1.666-0.075,2.506-0.018
		c19.453-0.035,38.899-0.021,58.35-0.001C213.813,10.001,215.345,9.614,216.565,10.754z"/>
	<path fill="#62962D" d="M71.568,137.635c0.42,0.636,1.151,0.771,1.701,0.55c2.266-0.916,4.478-0.726,6.743-0.035
		c0.621,0.188,1.632-0.104,1.266-0.855c-1.115-2.297,1.387-1.524,1.542-1.504c4.414,0.642,8.869-0.041,13.288,0.791
		c-3.363,0-6.728-0.033-10.09,0.029c-0.789,0.012-2.157-0.521-2.162,0.846c-0.003,1.125,1.263,0.75,2,0.75
		c20.476,0.021,40.963,0.392,61.425-0.145c9.993-0.256,19.981-0.109,29.97-0.355c0.951-0.022,2.311-0.606,2.662,1.062
		c-2.873,0.582-5.775,0.262-8.66,0.239c-5.705-0.041-11.418,0.322-17.117-0.207c-10.608,0.886-21.25,0.634-31.864,0.398
		c-8.961-0.197-17.902,0.314-26.859,0.119c-8.947-0.197-17.902-0.053-26.854-0.053c-13.413,0.002-26.826,0.022-40.239-0.027
		c-0.937-0.006-2.722,0.883-2.551-1.26c0.142-1.775-1.171-4.724,1.825-4.855c6.747-0.301,12.986-2.961,19.629-3.656
		c3.383-0.356,6.646-1.616,10.084-1.813c-3.703,2.127-8.028,1.764-11.934,2.973c-4.43,1.379-9.063,1.681-13.462,2.994
		c-1.218,0.361-2.352,0.801-3.634,0.791c-0.624-0.006-1.416-0.043-1.374,0.875c0.033,0.703,0.702,0.762,1.253,0.734
		c3.991-0.187,8.006,0.461,11.982-0.357c2.247-0.465,4.474,0.256,6.717,0.301c4.839,0.095,9.668-1.09,14.767-0.241
		c-0.848,1.256-1.918,0.842-2.783,0.844c-9.666,0.033-19.33,0.02-28.995,0.021c-0.638,0-1.278-0.004-1.914,0.021
		c-0.469,0.021-0.957,0.125-1.019,0.688c-0.079,0.748,0.487,0.869,1.057,0.908c0.455,0.031,0.911,0.021,1.368,0.021
		c12.947,0,25.894,0.002,38.841-0.009c0.795-0.002,1.663,0.222,2.317-0.489C70.827,137.391,71.183,137.344,71.568,137.635z"/>
	<path fill="#5D9731" d="M45.877,21.632c1.041,1.481,0.446,3.15,0.435,4.718c-0.009,1.621-1.414,1.306-2.466,1.321
		c-3.515,0.061-3.515,0.058-3.498,3.6c0,0.272,0,0.547,0,0.817c0.006,6.452,0.005,6.401-6.435,6.473
		c-1.385,0.016-2.223-0.48-2.882-1.558c-0.251-0.763,0.157-1.475,0.167-2.218c0.959-1.562-0.534-3.313,0.371-4.882
		c-0.227-0.298-0.469-0.582-0.72-0.86c-1.325-1.151-3.001-0.336-4.454-0.793c-1.165-0.552-2.1-1.209-1.216-2.687
		c1.336-0.924-0.399-1.824-0.021-2.742c0.158-1.371,0.515-2.388,2.118-1.194c5.289-0.001,10.577-0.002,15.865-0.002
		C44.056,20.953,44.968,20.958,45.877,21.632z"/>
	<path fill="#5F9B3A" d="M151.472,9.648c0.002-0.299,0.006-0.599,0.008-0.896c21.838-0.015,43.68-0.207,65.518,0.07
		c5.979,0.075,11.989,0.509,17.948,0.208c5.763-0.29,11.521,0.765,17.28-0.262c1.711-0.305,3.576,0.272,5.373,0.445
		c0,0.146-0.002,0.289-0.007,0.435c-0.413,0.563-1.23-0.05-1.633,0.556c0.006,0.188,0.015,0.375,0.021,0.562
		c0.309,0.366,0.27,0.728-0.025,1.08c-9.037-2.342-18.242-0.518-27.354-1.091c-3.099,0.805-6.197,0.927-9.297-0.002
		c-0.914,0-1.826,0-2.736,0c-20.861,0.045-41.728,0.083-62.59,0.159c-0.629,0.002-0.791-0.209-0.871-0.705
		c0.947-0.506,1.971-0.253,2.953-0.254c31.809-0.017,63.614-0.01,95.424-0.024c0.979,0,1.99,0.23,3.074-0.256
		c0.222-0.041-0.328-0.292-0.138,0.021c0.047,0.078-0.032,0.108-0.229,0.147c-0.9,0.176-1.812,0.077-2.717,0.078
		c-32.629,0.006-65.257,0.004-97.886,0.001C152.875,9.92,152.125,10.14,151.472,9.648z"/>
	<path fill="#5D9731" d="M93.982,28.809c0.021,0.771-0.096,1.505-0.588,2.136c-1.015,1.09-2.37,0.631-3.66,0.815
		c0.975,0.432,2.275-0.081,2.878,1.123c-0.852,1.356-4.122,2.456-6.149,1.761c-1.032-0.354-1.699-0.239-2.681,0.109
		c-3.371,1.197-4.798,0.061-4.799-3.566c-0.001-2.273,0.021-4.549-0.009-6.821c-0.015-1.116,0.158-2.074,1.526-2.075
		c5.362-0.005,10.726-0.229,16.083,0.13c0.258,0.018,0.498,0.217,0.742,0.338c0.703,3.654,0.443,4.186-2.203,4.491
		c-0.328,0.235-0.68,0.413-1.086,0.455c-1.519-0.055-3.004-0.587-4.797-0.286c1.675,0.312,3.252,0.114,4.518,1.088
		C93.833,28.604,93.907,28.706,93.982,28.809z"/>
	<path fill="#5E9733" d="M109.3,20.018c-0.872-0.001-1.745-0.002-2.617-0.003c-0.539-0.61-0.942-1.256-0.52-2.104
		c9.901-0.018,19.805-0.189,29.702,0.043c3.006,0.071,5.713-1.148,8.651-1.052c6.151,0.204,12.307,0.346,18.461,0.512
		c0.875,0.315,1.758,0.062,2.639,0.061c1.311-0.002,1.551,0.68,0.715,1.702c-0.521,0.354-1.117,0.453-1.729,0.489
		c-0.758,0.056-1.512,0.043-2.268,0.021c-0.789,0.019-1.517-0.161-2.154-0.638c-13.849,0.659-27.708,0.255-41.558,0.542
		C115.532,20.145,112.383,19.352,109.3,20.018z"/>
	<path fill="#5D952F" d="M166.185,19.057c0.276-0.665,0.416-1.195-0.646-1.209c-0.862-0.013-1.812,0.308-2.562-0.433
		c0.722-0.062,1.439-0.123,2.162-0.186c0.689-0.718,1.803-1.259,1.084-2.57c-14.094-0.033-28.193-0.391-42.27,0.075
		c-5.076,0.167-10.094-0.521-15.136-0.137c-0.784,0.603-1.692,0.739-2.646,0.707c-0.312-0.002-0.62-0.045-0.923-0.118
		c-1.304-0.646-2.75-0.108-4.087-0.479c-2.563-0.017-5.126-0.033-7.69-0.05c-0.64,0.495-1.38,0.649-2.167,0.663
		c-0.923-0.013-1.846-0.003-2.771,0c-0.316-0.009-0.622-0.066-0.921-0.167c-2.641-0.5-5.282-0.467-7.923-0.021
		c-0.297,0.109-0.604,0.169-0.919,0.19c-0.932,0.003-1.865-0.011-2.798,0.009c-0.8-0.002-1.549-0.172-2.195-0.674
		c-1.101,0.003-2.201,0.007-3.301,0.012c-4.923,0.552-9.836,1.229-14.793,0.218c-0.942-0.19-1.988-0.188-2.954,0.17
		c-0.396,0.004-0.794,0.01-1.19,0.016c-2.863-0.371-5.727-0.369-8.59-0.001c-3.88-0.002-7.759-0.004-11.639-0.006
		c-1.076-0.607-2.105,0.396-3.172,0.09c-0.119-0.018-0.239-0.035-0.358-0.055c-0.492-0.014-0.983-0.024-1.475-0.038
		c-1.023-1.073-1.911-2.116,0.561-2.377c0.329,0.074,0.647,0.181,0.962,0.298c0.969,0.376,1.981,0.274,2.979,0.274
		c26.067-0.003,52.134,0.021,78.202-0.012c0.352-0.01,0.705-0.007,1.059,0c18.601,0.084,37.201,0.447,55.804,0.166
		c0.338-0.092,0.644-0.249,0.912-0.471c1.353-0.869,2.049-1.11,1.793,1.095c-0.242,2.07-1.229,3.917-1.334,6.031
		c-0.072,1.476-1.453,0.145-2.151,0.508C164.849,19.633,165.797,19.547,166.185,19.057z"/>
	<path fill="#75A432" d="M154.136,138.8c8.594-0.01,17.186-0.02,25.776-0.03c1.459,0,2.916,0,4.377,0
		c2.166-1.08,4.485-0.552,6.713-0.498c9.271,0.229,18.541,0.201,27.813,0.256c2.166,0.016,4.355-0.348,6.504,0.246
		c0.912,0,1.822-0.002,2.734-0.006c1.59-0.531,3.23-0.236,4.846-0.246c7.714-0.035,15.427-0.006,23.14-0.025
		c0.888-0.004,1.815,0.24,2.662-0.266c0.18,0,0.354-0.002,0.532-0.004c1.166,0.627,2.216-0.166,3.259-0.398
		c0.641-0.145-0.229-0.574-0.312-0.912c-0.32-0.512-0.732-0.965-0.904-1.562c0.697-2.043,2.156,0.387,3.049-0.531
		c0.092-0.201,0.229-0.355,0.402-0.473c0.537,0.17,1.059,0.223,1.543-0.15c0.834-0.643,1.315-0.211,0.925,0.561
		c-0.366,0.726-0.552,1.521-0.321,2.054c1.25,2.879-0.699,2.508-2.381,2.508c-35.947-0.008-71.896,0.002-107.844-0.021
		C155.812,139.294,154.815,139.745,154.136,138.8z"/>
	<path fill="#5D9B28" d="M97.326,22.755c-5.052,0.012-10.109,0.167-15.153-0.028c-2.527-0.099-3.178,0.815-2.957,3.125
		c0.171,1.803,0.193,3.649-0.005,5.444c-0.27,2.446,0.654,3.362,3.043,2.996c0.617-0.094,1.263-0.015,1.795-0.015
		c0.715-0.835-0.655-1.619,0.22-2.407c1.5,0.118,1.23,3.159,3.051,2.256c1.651-0.815,3.929,0.742,5.06-1.502
		c0.516-0.514,1.073-0.333,1.635-0.103c1.022,0.903,2.696-1.314,3.389,0.595c0.669,1.844,0.792,3.775-0.542,5.49
		c-0.544-0.396-1.25-0.076-1.805-0.409c-0.475-1.121-1.455-0.496-2.155-0.508c-4.701-0.081-9.424-0.604-14.09,0.492
		c-0.683-1.267-0.386-2.576-0.18-3.883c0.034-3.617,0.107-7.235,0.079-10.853c-0.01-1.246,0.336-1.766,1.678-1.75
		c5.158,0.061,10.317,0.027,15.477,0.021C96.615,21.716,97.358,21.676,97.326,22.755z"/>
	<path fill="#6F9A25" d="M264.729,134.348c-0.025,0.211-0.058,0.422-0.082,0.633c-10.584-0.498-21.174-0.275-31.76-0.303
		c-10.109-0.023-20.218,0.008-30.324-0.029c-0.293-0.002-0.521-0.146-0.769-0.252c-0.002-0.166-0.006-0.332-0.006-0.498
		c1.269-0.691,2.676-0.062,3.979-0.424c3.252-0.623,6.5-0.925,9.701,0.278c1.096,0,2.188,0,3.283,0
		c3.281-1.114,6.562-1.114,9.848-0.002c1.095,0,2.188,0,3.281,0.002c1.793-0.981,3.652-0.809,5.531-0.321
		c7.672-0.013,15.342-0.021,23.016-0.031C261.933,133.399,263.397,133.577,264.729,134.348z"/>
	<path fill="#FEFEFE" d="M107.135,40.35c3.291-0.851,6.578-1.717,9.875-2.541c0.688-0.172,1.417-0.276,2.121-0.248
		c1.077,0.044,2.801-0.548,2.805,1.154c0.001,1.85-1.702,0.83-2.704,0.995c-0.686,0.113-1.349,0.381-2.015,0.599
		c-1.094,0.356-2.284,1.205-3.255,1.002c-2.847-0.594-5.212,0.993-7.834,1.28C105.809,41.554,106.461,40.947,107.135,40.35z"/>
	<path fill="#77970F" d="M200.862,38.663c0.125,0.333,0.332,0.659,0.359,1c0.362,4.415,1.182,5.258,5.319,3.838
		c1.908-0.653,1.479,0.361,1.701,1.144c0.146,0.512,0.114,1.078,0.117,1.621c0.006,10.44,0.006,20.887,0,31.327
		c0,0.716,0.126,1.468-0.402,2.084c-0.022-10.184-0.17-20.372,0.021-30.554c0.043-2.338-1.445-3.429-2.527-4.813
		c-0.785-1.005-2.113,0.415-3.307,0.339c-1.06-0.066-1.685,0.074-1.467-1.361C200.909,41.769,200.815,40.206,200.862,38.663z"/>
	<path fill="#C1D23A" d="M224.806,126.794c-6.078-3.356-4.031-9.033-4.021-14.121c0-0.358,0.121-0.717,0.135-1.077
		c0.097-2.492,1.144-4.068,3.863-4.064c0.737-0.014,1.478-0.021,2.215-0.031c-0.104,0.144-0.183,0.342-0.324,0.418
		c-1.784,0.98-4.521,0.91-4.557,3.853c-0.024,2.062-0.431,4.069-0.326,6.178c0.168,3.363,0.815,6.178,4.063,7.801
		C225.142,125.729,225.418,126.71,224.806,126.794z"/>
	<path fill="#5D9731" d="M79.256,37.98c0.897-1.787,2.831-1.292,4.009-1.196c4.386,0.35,8.736,0.321,13.117-0.123
		c0.319,1.196-1.059,0.724-1.269,1.358c-0.867,0.64-1.795,0.354-2.716,0.182c-2.56-0.004-5.119-0.006-7.679-0.009
		c-0.396,0.3-0.827,0.521-1.326,0.591C81.973,38.736,80.43,39.303,79.256,37.98z"/>
	<path fill="#7AA326" d="M223.672,85.71c1.388-0.996,3.052-1.02,4.634-1.244c2.248-0.319,3.405-1.313,3.049-3.77
		c-0.183-1.246-0.027-2.543-0.027-3.816c1.648-0.059,0.852,2.963,2.695,2.318c1.625-0.566,0.305-2.299,0.838-3.389
		c0.459-0.939,1.107-1.109,1.963-0.513c-0.812,2.39-0.666,4.927-1.141,7.367c-0.607-0.297-1.252-0.334-1.761-1.041
		c-0.561-0.779-1.854-0.465-1.854,0.43c0.005,2.841-2.185,2.578-3.868,3.078C226.726,85.569,225.215,85.778,223.672,85.71z"/>
	<path fill="#6A9B2D" d="M256.527,32.631c0.759,2.183,2.235,0.154,3.298,0.563c-1.451,1.27-2.137,3.439-4.41,3.736
		c0.43-0.562,0.859-1.122,1.488-1.94c-1.273,0.138-2.129,0.724-2.441,1.503c-0.619,1.534-1.441,0.929-2.342,0.494
		c-0.74-1.1,0.711-1.766,0.543-2.751c0.752-0.706,1.502-1.412,2.25-2.118C255.379,32.516,255.931,32.646,256.527,32.631z"/>
	<path fill="#5D9630" d="M250.5,55.117c-0.584,1.617-1.399,0.328-1.739-0.03c-0.734-0.77-1.212-1.782-1.83-2.669
		c-0.771-1.098-1.271-2.748-3.193-1.272c-0.477,0.366-0.688-0.266-0.361-0.764c0.113-1.003,0.576-1.589,1.684-1.409
		c1.447,0.123,2.297,0.812,2.894,2.237C248.536,52.624,249.629,53.824,250.5,55.117z"/>
	<path fill="#FEFEFE" d="M215.472,133.755c-3.283-0.008-6.562-0.012-9.849-0.016c-0.008-0.129-0.017-0.258-0.022-0.385
		C207.705,131.489,213.806,131.731,215.472,133.755z"/>
	<path fill="#FEFEFE" d="M228.603,133.753c-3.282,0-6.562,0.002-9.847,0.002c0.062-0.744,0.578-1.157,1.203-1.276
		c2.476-0.459,4.965-0.459,7.438,0C228.022,132.596,228.539,133.01,228.603,133.753z"/>
	<path fill="#76A531" d="M83.059,114.149c0.9,0,1.801,0,2.727,0c-0.031-0.885-1.849-0.549-1.117-1.699
		c0.48-0.754,1.216,0.225,1.592,0.117c1.688-0.476,3.339-0.287,5.447,0.053c-0.752-0.578-1.138-0.877-1.525-1.176
		c0.491-0.566,1.124-0.582,1.791-0.463c0.637,0.217,1.045,0.694,1.415,1.223c0.044,0.119,0.085,0.236,0.126,0.354
		c-3.642,0.797-7.161,2.194-10.961,2.209c-0.111-0.132-0.165-0.271-0.159-0.42c0.006-0.158,0.024-0.232,0.054-0.232
		C82.662,113.954,82.865,113.964,83.059,114.149z"/>
	<path fill="#FEFEFE" d="M67.212,15.131c-1.785,3.333-4.84,1.077-7.263,1.554c-1.272,0.25-3.281,0.871-3.679-1.555
		C59.918,14.853,63.565,15.142,67.212,15.131z"/>
	<path fill="#D8E136" d="M205.601,133.356c0.018,0.129,0.022,0.256,0.022,0.383c-1.276,0.055-2.555,0.104-3.832,0.16
		c-1.272-0.053-2.545-0.103-3.813-0.152c-0.707-0.834-0.742-1.668-0.013-2.506c1.201-0.02,2.4-0.037,3.601-0.055
		c-0.562,1.354-0.51,2.272,1.352,2.125C203.804,133.241,204.705,133.339,205.601,133.356z"/>
	<path fill="#ABC031" d="M136.178,50.135c-1.223,0.593-1.876,1.42-1.721,2.925c0.165,1.602,0.034,3.229,0.032,4.848
		c-0.774-1.041-0.998-2.234-1.038-3.502c-0.043-1.36,0.511-2.913-1.327-3.709c-0.505-0.22-0.503-0.96,0.001-1.385
		c0.365-0.311,0.929-0.395,1.164,0.098C133.985,50.854,135.237,49.829,136.178,50.135z"/>
	<path fill="#76A531" d="M92.914,110.889c1.349,0.299,2.658-1.654,4.13,0.032c0.353,0.406,0.749-0.563,0.763-1.063
		c0.05-1.635,0.029-3.273,0.035-4.91c0.178-0.07,0.356-0.072,0.537-0.008c1.112,1.244,0.705,2.518,0.065,3.789
		c-0.21,3.649-0.21,3.649-4.931,3.828l-0.103-0.136c-0.204-0.344-0.463-0.649-0.655-1.002
		C92.7,111.214,92.748,111.034,92.914,110.889z"/>
	<path fill="#FEFEFE" d="M25.178,25.561c-0.031,1.124,0.514,1.846,1.551,2.222c1.453,1.087,3.394-0.135,4.831,1.023
		c0.002,0.365,0.006,0.729,0.007,1.095c-2.357-0.167-4.956,0.727-6.829-1.561C23.846,27.251,23.229,26.203,25.178,25.561z"/>
	<path fill="#C2D23D" d="M27.388,72.581c-2.29,2.566-1.407,5.379-0.628,8.18c-1.422,0.88-1.119-0.331-1.137-0.987
		c-0.069-2.603,0.21-5.224-0.428-7.797c0.446-0.447,0.61-1.066,0.955-1.578c0.59-0.888,1.335-0.668,2.198-0.295
		C28.174,71.001,26.713,71.419,27.388,72.581z"/>
	<path fill="#FEFEFE" d="M73.778,14.659c0.735,0,1.47,0,2.208-0.001c0.9,0.326,1.801,0.322,2.701,0.001
		c0.198,0.017,0.395,0.033,0.592,0.05c0.318,0.236,0.83,0.017,1.065,0.447C78.048,17.716,75.224,17.5,73.778,14.659z"/>
	<path fill="#FEFEFE" d="M91.268,14.666c0.735-0.002,1.468-0.004,2.205-0.006c-1.447,2.841-4.271,3.056-6.566,0.5
		c0.238-0.433,0.749-0.211,1.069-0.448c0.198-0.016,0.395-0.028,0.592-0.044C89.469,14.981,90.368,14.98,91.268,14.666z"/>
	<path fill="#D5E638" d="M94.014,32.521c-0.545,0.035-1.088,0.068-1.635,0.104c-1.247-0.022-2.497-0.036-3.745-0.074
		c-0.547-0.018-1.139-0.095-1.062-0.843c0.055-0.542,0.543-0.648,1.004-0.661c1.605-0.042,3.212-0.067,4.817-0.101
		C93.601,31.469,93.808,31.995,94.014,32.521z"/>
	<path fill="#FEFEFE" d="M30.012,15.22c0.513,0.989,1.054,2.092,0.02,2.954c-0.6,0.5-1.697,0.514-2.298-0.049
		c-0.972-0.909-0.312-2.013,0.045-3.022l0.042-0.006C28.57,14.81,29.312,14.625,30.012,15.22z"/>
	<path fill="#D4E839" d="M68.323,48.645c2.619-0.002,5.248-0.293,7.912,0.617c-2.107,0.43-4.215,0.857-6.321,1.287
		C70.448,49.027,68.923,49.222,68.323,48.645z"/>
	<path fill="#87B438" d="M83.059,114.149c-0.181,0.004-0.361,0.012-0.542,0.021c-0.404,0.56-1.673-0.19-1.619,1.064
		c-0.57,0.707-1.43,0.508-2.169,0.695c-0.019-2.148-1.913-0.353-2.85-1.427c2.085-0.782,3.954-1.651,5.917-2.135
		C82.512,112.198,83.086,113.216,83.059,114.149z"/>
	<path fill="#FEFEFE" d="M189.295,128.981c-3.092,1.024-6.256,0.287-9.383,0.393c0.512-2.317,2.597-1.897,3.649-1.354
		C185.47,129.007,187.37,128.807,189.295,128.981z"/>
	<path fill="#FEFEFE" d="M83.624,38.192c0.365,0,0.73,0,1.095,0c0.052,1.28-0.456,2.279-1.829,2.048
		c-1.634-0.275-3.97,1.308-4.737-1.586C79.946,38.13,81.884,39.334,83.624,38.192z"/>
	<path fill="#FEFEFE" d="M26.701,12.878c-1.863,0.414-0.104,1.486-0.397,2.186c-1.704-0.491-3.319-1.072-3.263-3.305
		c0.487-0.409,0.99-0.363,1.501-0.049c0.391,0.111,0.51-0.138,0.584-0.441c0.51-0.417,0.931-0.205,1.33,0.186
		C26.746,11.891,26.969,12.343,26.701,12.878z"/>
	<path fill="#FEFEFE" d="M60.669,23.328c-0.395-2.552-2.52-1.23-3.84-1.713c0.597-0.988,1.365-1.668,2.626-1.556
		c0.843,0.074,1.704,0.261,2.087,1.03C62.013,22.035,61.629,22.842,60.669,23.328z"/>
	<path fill="#FEFEFE" d="M237.414,133.432c-1.803,0.825-3.685,0.295-5.528,0.321C233.618,131.657,235.459,131.55,237.414,133.432z"
		/>
	<path fill="#FEFEFE" d="M61.672,43.179c-0.341-0.054-0.684-0.105-1.025-0.16c0.457-2.502,2.45-1.439,3.859-1.604
		c1.258-0.146,2.592-0.128,2.709,1.688c-0.332,0.051-0.663,0.102-0.996,0.149C64.71,42.883,63.191,42.978,61.672,43.179z"/>
	<path fill="#FEFEFE" d="M65.025,38.692c0.341-0.062,0.68-0.123,1.021-0.187c1.504,0.232,3.009,0.22,4.514,0.011
		c0.343,0.057,0.686,0.11,1.03,0.167C70.252,41.001,66.374,41.005,65.025,38.692z"/>
	<path fill="#FEFEFE" d="M83.624,38.192c-1.656,2.13-3.62,0.635-5.471,0.463c0.216-1.445-0.485-2.991,0.478-4.356
		c0.475,1.183-0.607,2.628,0.624,3.682C80.711,38.05,82.168,38.12,83.624,38.192z"/>
	<path fill="#DADF39" d="M98.446,108.729c-0.021-1.263-0.044-2.525-0.066-3.789c0.895,0.02,1.927-0.597,2.234,1.062
		C100.972,107.946,99.535,108.124,98.446,108.729z"/>
	<path fill="#FEFEFE" d="M40.951,56.111c-1.822,0.363-3.646,0.728-5.469,1.091C36.287,55.063,39.3,54.463,40.951,56.111z"/>
	<path fill="#D0DA3A" d="M185.375,106.409c1.181-0.795,2.656-0.342,3.884-0.934c-0.212,1.278,0.271,2.057,1.606,2.217
		c-1.285,0.297-2.572,0.592-3.859,0.889C186.774,107.62,185.97,107.096,185.375,106.409z"/>
	<path fill="#CBDD40" d="M251.627,122.864c-1.862-0.766-4.139,0.027-6.325-1.686c2.45-0.427,4.291,0.352,6.17,0.489
		C251.524,122.069,251.575,122.464,251.627,122.864z"/>
	<path fill="#FEFEFE" d="M56.269,52.825c-1.641,0.363-3.281,0.729-4.922,1.094C52.191,51.604,54.51,51.088,56.269,52.825z"/>
	<path fill="#FEFEFE" d="M110.449,24.337c-0.552,0.005-1.106,0.01-1.659,0.014c0.187-1.206,0.873-1.958,2.09-2.064
		c1.076-0.094,1.658,0.501,1.74,1.576C111.996,24.469,111.108,23.88,110.449,24.337z"/>
	<path fill="#CBD634" d="M254.778,110.995c-1.029-0.176-2.062-0.35-3.094-0.521c-0.396-0.353-0.437-0.746-0.144-1.183
		c1.679,0.109,3.449-0.576,5.004,0.59C255.599,109.68,254.789,109.702,254.778,110.995z"/>
	<path fill="#FEFEFE" d="M125.203,9.043c-1.133,0.104-2.29,0.364-3.29-0.469c0.138-1.114,0.925-1.562,1.876-1.442
		C124.772,7.257,125.337,7.957,125.203,9.043z"/>
	<path fill="#B7CF39" d="M264.802,106.505c-2.048-0.278-4.132-0.317-6.104-1.028C261.021,104.11,262.948,105.091,264.802,106.505z"
		/>
	<path fill="#FEFEFE" d="M27.276,21.624c-1.237-0.543-1.486,0.665-2.118,1.194c-0.828-0.906-1.101-1.993,0.095-2.597
		C26.333,19.677,27.355,20.064,27.276,21.624z"/>
	<path fill="#9EB428" d="M210.612,106.059c-0.359,0.883-0.312,1.955-1.199,2.598c0.463-1.543-2.562-2.479-0.6-4.277
		C209.924,104.253,209.103,106.514,210.612,106.059z"/>
	<path fill="#FEFEFE" d="M52.91,21.336c-1.124-0.167-1.47,0.538-1.632,1.451c-1.129-0.163-1.053-0.988-0.975-1.798
		c0.062-0.644,0.499-0.867,1.085-0.908C52.298,20.019,52.979,20.219,52.91,21.336z"/>
	<path fill="#FEFEFE" d="M109.3,20.018c3.065-1.062,6.211-0.315,9.32-0.426C115.552,20.582,112.404,19.837,109.3,20.018z"/>
	<path fill="#C1CD39" d="M26.015,126.768c1.165-0.185,2.331-0.363,3.497-0.547c-0.251,0.829,0.242,1.768-0.503,2.78
		C28.266,127.846,27.005,127.518,26.015,126.768z"/>
	<path fill="#86A71C" d="M74.895,109.327c-0.008,1.725,0.023,3.451-0.038,5.17c-0.043,1.209,0.278,1.961,1.654,1.812
		c-1.407,0.971-2.394,0.896-2.162-1.104C74.576,113.247,73.585,111.176,74.895,109.327z"/>
	<path fill="#A6BD33" d="M139.461,92.815c-1.216-0.273-2.27-0.828-2.737-2.037c-0.184-0.475,0.427-1.012,0.766-0.887
		c1.322,0.483,1.773,1.651,1.937,2.957L139.461,92.815z"/>
	<path fill="#FEFEFE" d="M73.187,34.332c-0.586-2.949-0.598-5.896,0.009-8.844C73.192,28.437,73.188,31.385,73.187,34.332z"/>
	<path fill="#FEFEFE" d="M87.976,14.71c-0.355,0.149-0.712,0.298-1.069,0.447c-2.188,0.001-4.376,0.001-6.565,0.001
		c-0.355-0.149-0.709-0.298-1.064-0.447C82.178,14.711,85.077,14.71,87.976,14.71z"/>
	<path fill="#B9D83C" d="M249.849,116.368c-1.319-0.037-2.64-0.1-3.881-0.813c1.319-1.511,2.717-0.181,4.036-0.263
		C249.952,115.653,249.899,116.009,249.849,116.368z"/>
	<path fill="#CCDF43" d="M245.058,48.972c-0.562,0.47-1.123,0.938-1.685,1.408c-0.594-0.225-1.049-0.556-0.972-1.288
		c0.978-0.429,1.33-1.843,2.675-1.685C245.069,47.929,245.062,48.451,245.058,48.972z"/>
	<path fill="#FEFEFE" d="M187.034,117.512c1.334-1.111,2.932-0.132,4.354-0.55C190.039,117.964,188.726,119.225,187.034,117.512z"/>
	<path fill="#FEFEFE" d="M114.261,32.67c0.982-0.851,2.132-0.663,3.273-0.538C116.673,33.714,115.741,34.862,114.261,32.67z"/>
	<path fill="#FEFEFE" d="M45.877,21.632c-0.911-0.004-1.823-0.008-2.735-0.01c-0.063-1.062,0.341-1.616,1.504-1.566
		C45.749,20.099,45.887,20.78,45.877,21.632z"/>
	<path fill="#FEFEFE" d="M166.224,14.659c0.825-0.229,1.305,0.104,1.069,0.926c-0.289,1.013-0.651,2.13-2.153,1.646
		C164.937,16.135,165.707,15.452,166.224,14.659z"/>
	<path fill="#FEFEFE" d="M42.948,15.072c2.861-0.814,5.725-0.418,8.589,0.001C48.675,15.072,45.811,15.072,42.948,15.072z"/>
	<path fill="#BBC930" d="M106.022,14.629c0.932-0.011,1.865-0.021,2.796-0.03c-0.471,1.775-1.868,1.68-3.252,1.608
		C105.146,15.515,105.607,15.078,106.022,14.629z"/>
	<path fill="#FEFEFE" d="M109.339,33.245c0.805-0.718,1.755-0.705,2.734-0.541c-0.024,0.704,0.005,1.458-0.973,1.538
		C110.305,34.308,109.479,34.366,109.339,33.245z"/>
	<path fill="#5E9734" d="M80.897,115.235c-0.472-0.131-1.213,0.223-1.35-0.492c-0.117-0.604,0.608-0.488,0.95-0.711
		c0.717-0.461,1.368-0.229,2.019,0.139c0.013,0.199,0.024,0.396,0.037,0.599C82.175,115.54,81.474,115.165,80.897,115.235z"/>
	<path fill="#BDCE3A" d="M160.179,19.05c0.756,0,1.508-0.002,2.262-0.002c0.408,0.5,0.402,0.993-0.019,1.481
		c-0.754,0.004-1.504,0.009-2.26,0.014C160.168,20.043,160.174,19.547,160.179,19.05z"/>
	<path fill="#92AA1C" d="M52.179,141.298c-0.076,0.05-0.177,0.154-0.224,0.136c-1.108-0.47-3.231,0.873-3.095,0.069
		C49.201,139.512,51.003,141.911,52.179,141.298z"/>
	<path fill="#609A3A" d="M24.541,11.712c-0.5,0.017-1.002,0.031-1.502,0.048c0.236-1.013,0.452-2.038,1.471-2.608
		C24.52,10.004,24.531,10.857,24.541,11.712z"/>
	<path fill="#FEFEFE" d="M154.179,121.753c0.604-0.864,1.448-0.389,2.211-0.399C155.938,123.075,155.235,123.397,154.179,121.753z"
		/>
	<path fill="#FEFEFE" d="M175.063,122.958c-1.037,0.824-2.219,0.438-3.355,0.406C172.586,121.251,173.938,123.05,175.063,122.958z"
		/>
	<path fill="#B1BD30" d="M74.351,107.509c-0.159,0.287,0.162,0.98-0.644,0.771c-0.53-0.137-1.115-0.225-0.961-1.01
		c0.104-0.533,0.466-0.729,0.976-0.728C74.396,106.548,74.356,107.022,74.351,107.509z"/>
	<path fill="#BAC52F" d="M75.007,120.608c-1.044,0-2.087,0-3.238,0C72.928,118.426,74.02,120.485,75.007,120.608z"/>
	<path fill="#FEFEFE" d="M197.998,128.964c-1.86,0.668-3.724,0.681-5.59,0.019C194.272,128.975,196.136,128.971,197.998,128.964z"/>
	<path fill="#FEFEFE" d="M25.145,47.843c0.533,0.429,1.064,0.854,1.595,1.282c0.234,0.097,0.415,0.25,0.535,0.473
		c0,0.184,0,0.363,0,0.546C25.872,50.019,24.364,49.991,25.145,47.843z"/>
	<path fill="#FEFEFE" d="M56.27,38.606c0.912,0.022,1.822,0.048,2.736,0.07C58.05,40.371,57.136,40.389,56.27,38.606z"/>
	<path fill="#8BA727" d="M119.937,141.176c-0.517,1.298-1.261,1.146-2.017,0.734c-0.153-0.082-0.297-0.557-0.229-0.619
		C118.349,140.686,119.085,140.87,119.937,141.176z"/>
	<path fill="#C7D937" d="M201.121,84.598c0.002,0.551,0.004,1.102,0.006,1.649c-0.644-0.143-1.76,0.373-1.853-0.354
		C199.146,84.876,200.308,84.784,201.121,84.598z"/>
	<path fill="#FEFEFE" d="M23.335,8.227c-0.026,0.382-0.143,0.705-0.58,0.754c-0.552,0.062-0.839-0.224-0.829-0.757
		c0.008-0.421,0.32-0.646,0.701-0.645C23.006,7.582,23.286,7.807,23.335,8.227z"/>
	<path fill="#FEFEFE" d="M27.147,56.304c0.042,0.398-0.085,0.709-0.499,0.805c-0.547,0.126-0.874-0.158-0.901-0.676
		c-0.02-0.375,0.223-0.687,0.644-0.699C26.771,55.721,27.082,55.87,27.147,56.304z"/>
	<path fill="#FEFEFE" d="M28.284,51.279c0.04,0.373-0.008,0.766-0.434,0.812c-0.665,0.073-0.964-0.394-0.955-0.971
		c0.005-0.329,0.244-0.651,0.379-0.979C27.771,50.378,28.173,50.699,28.284,51.279z"/>
	<path fill="#FEFEFE" d="M92.398,38.2c0.905-0.062,1.811-0.121,2.716-0.182c0.566,0.246,1.357-0.186,1.746,0.586
		C95.372,38.486,93.814,39.107,92.398,38.2z"/>
	<path fill="#FEFEFE" d="M111.515,36.945c-0.645,0.497-1.322,0.868-2.177,0.581C109.781,36.273,110.341,35.46,111.515,36.945z"/>
	<path fill="#FEFEFE" d="M31.198,34.783c1.053,0.823,0.238,1.506-0.167,2.218C29.676,36.156,30.394,35.467,31.198,34.783z"/>
	<path fill="#D1E042" d="M60.123,34.364c-0.082-1.183-0.206-2.403,1.654-1.807C60.865,32.828,61.558,34.572,60.123,34.364z"/>
	<path fill="#8BAC1F" d="M168.859,89.057c-0.485-0.828-0.698-1.478-0.132-2.099c0.084-0.09,0.591,0,0.641,0.119
		C169.642,87.723,169.746,88.385,168.859,89.057z"/>
	<path fill="#FEFEFE" d="M35.34,49.537c1.441-0.528,2.927-0.197,4.393-0.219C38.292,49.883,36.806,49.503,35.34,49.537z"/>
	<path fill="#FEFEFE" d="M101.164,14.709c1.438,0.001,2.877,0.002,4.316,0.003c-0.05,0.866-0.514,0.747-1.057,0.444
		C103.342,14.967,102.162,15.496,101.164,14.709z"/>
	<path fill="#B6CA41" d="M79.906,122.854c-0.738,0.364-1.488,0.67-2.339,0.543C77.983,121.643,78.957,122.301,79.906,122.854z"/>
	<path fill="#FEFEFE" d="M106.163,17.911c0.173,0.701,0.346,1.402,0.52,2.104C105.997,19.44,104.031,19.181,106.163,17.911z"/>
	<path fill="#97B126" d="M28.96,67.563c-0.527,0.02-0.837-0.354-0.973-0.742c-0.045-0.131,0.425-0.542,0.725-0.664
		c0.589-0.24,0.817,0.255,0.849,0.681C29.583,67.133,29.423,67.542,28.96,67.563z"/>
	<path fill="#FEFEFE" d="M118.1,32.128c0.631-0.552,1.347-0.754,2.168-0.517C119.637,32.168,119.295,33.945,118.1,32.128z"/>
	<path fill="#FEFEFE" d="M122.476,31.576c0.63-0.558,1.347-0.766,2.17-0.526C124.017,31.614,123.684,33.406,122.476,31.576z"/>
	<path fill="#FEFEFE" d="M137.777,26.562c-0.65,0.475-1.335,0.809-2.169,0.542C136.235,26.543,136.562,24.779,137.777,26.562z"/>
	<path fill="#FEFEFE" d="M116.461,26.117c0.63-0.56,1.347-0.75,2.166-0.512C117.993,26.152,117.648,27.921,116.461,26.117z"/>
	<path fill="#FEFEFE" d="M110.449,24.337c0.608-0.688,1.436-0.372,2.171-0.476c0.492,0.007,0.984,0.013,1.476,0.02
		C112.969,24.744,111.685,24.347,110.449,24.337z"/>
	<path fill="#FEFEFE" d="M131.758,22.174c-0.646,0.483-1.329,0.823-2.167,0.54C130.22,22.159,130.552,20.417,131.758,22.174z"/>
	<path fill="#FEFEFE" d="M108.233,37.494c-0.626,0.464-1.281,0.848-2.107,0.733C106.653,37.482,106.842,35.764,108.233,37.494z"/>
	<path fill="#BFCC3C" d="M64.395,36.437c0.032,0.585,0.063,1.17,0.096,1.755c-0.502-0.103-1.052-0.112-1.076-0.854
		C63.392,36.625,63.817,36.464,64.395,36.437z"/>
	<path fill="#D8DD32" d="M94.002,27.23c0.374,0.006,0.747,0.012,1.122,0.018c0.004,0.802,0.094,1.666-1.142,1.562l0.037,0.032
		C93.588,28.309,93.565,27.772,94.002,27.23z"/>
	<path fill="#FEFEFE" d="M30.012,15.22c-0.73-0.042-1.461-0.083-2.19-0.125c1.156-0.585,2.32-0.438,3.487-0.03
		C30.877,15.117,30.444,15.169,30.012,15.22z"/>
	<path fill="#BFCF39" d="M181.618,66.532c-0.553-0.044-1.432,0.454-1.469-0.524c-0.021-0.607,0.818-0.499,1.309-0.635
		C181.513,65.758,181.563,66.144,181.618,66.532z"/>
	<path fill="#FCFCFC" d="M27.276,49.597c-0.177-0.157-0.357-0.313-0.535-0.473c1.167-0.109,2.327-0.154,3.415,0.408
		C29.195,49.554,28.234,49.575,27.276,49.597z"/>
	<path fill="#C8D73F" d="M247.756,45.814c0.32-0.8,0.878-1.371,1.681-1.7C249.573,45.369,248.987,45.908,247.756,45.814z"/>
	<path fill="#FEFEFE" d="M197.388,116.311c0.815-0.779,1.805-0.486,2.756-0.445C199.437,117.327,198.284,116.036,197.388,116.311z"
		/>
	<path fill="#FEFEFE" d="M189.202,115.159c-0.543,0.008-1.088,0.021-1.629,0.027C188.086,113.579,188.644,114.391,189.202,115.159z"
		/>
	<path fill="#9AAB19" d="M26.149,70.397c0.053,0.752,0.203,1.561-0.955,1.58C24.942,71.104,25.467,70.704,26.149,70.397z"/>
	<path fill="#FEFEFE" d="M190.556,121.88c-0.904,0.765-1.953,0.433-2.966,0.392C188.489,121.468,189.556,121.921,190.556,121.88z"/>
	<path fill="#98B837" d="M232.396,50.084c-0.172,0.384-0.347,0.769-0.517,1.154c-0.394,0.181-0.782,0.361-1.176,0.543
		C230.847,50.796,231.338,50.158,232.396,50.084z"/>
	<path fill="#FEFEFE" d="M225.847,98.259c0.612-0.713,1.424-0.532,2.205-0.493C227.571,99.071,226.623,98.286,225.847,98.259z"/>
	<path fill="#FEFEFE" d="M111.313,26.549c0.906-0.646,1.921-0.489,2.929-0.396C113.357,26.96,112.303,26.513,111.313,26.549z"/>
	<path fill="#FEFEFE" d="M104.422,15.156c0.354-0.149,0.706-0.296,1.057-0.444c0.181-0.027,0.361-0.057,0.542-0.085
		c-0.152,0.526-0.304,1.054-0.456,1.58C105.015,16.043,104.645,15.679,104.422,15.156z"/>
	<path fill="#FCFCFC" d="M260.864,9.022c-0.902,0.003-1.805,0.005-2.703,0.006C259.062,8.335,259.963,8.342,260.864,9.022z"/>
	<g>
		<path fill="#5E9734" d="M139.428,92.847c0.015,0.002,0.025,0.002,0.04,0.004c-0.003-0.013-0.003-0.022-0.006-0.035L139.428,92.847
			z"/>
		<path fill="#5E9734" d="M197.693,75.957c-1.527,1.022-3.445-0.348-4.896,0.961c-1.625,1.47-0.342,3.17-0.303,4.763
			c0.051,2.059-1.968,1.948-2.947,2.295c-1.299,0.465-0.832-1.22-0.887-1.966c-0.24-3.094-0.347-6.192-0.524-9.291
			c-0.228-3.933-1.369-5.128-5.308-5.659c-0.416-0.056-0.81-0.347-1.211-0.529c-0.531-0.322-0.476-0.723-0.158-1.16
			c2.015-1.472,4.886-2.045,6.069-4.279c1.414-2.67,2.921-5.307,2.937-8.702c0.027-5.952-4.358-10.595-10.327-10.499
			c-5.107,0.079-10.002,1.192-14.941,2.245c-9.661,2.06-19.344,4.008-29.018,6.001c-1.825,0.165-2.374,1.202-2.245,2.948
			c0.118,1.62,0.053,3.251,0.558,4.824c0.545,0.788,1.146,1.159,1.968,0.318c0.493-0.504,1.288-0.752,1.679-0.247
			c0.479,0.619,0.453,1.564,0.101,2.327c-0.096,0.211-0.864,0.123-0.948,0.327c-0.338,0.811,0.47,0.818,0.858,0.82
			c0.837,0.006,0.56-0.739,0.625-1.221c0.118-0.843,0.625-1.358,1.43-1.317c0.581,0.031,0.879,0.597,0.897,1.186
			c0.145,4.609,0.635,9.244,0.32,13.823c-0.396,5.772-0.172,11.541-0.394,17.308c-0.055,1.412-0.323,1.79-1.561,1.619
			c0.8,3.804-2.411,2.945-4.237,3.443c-4.542,1.244-5.22,0.797-6.836-3.59c-0.773-2.1-1.733-4.135-2.418-6.26
			c-3.239-10.041-6.404-20.107-9.617-30.157c-0.278-0.869-0.776-2.021-1.806-1.625c-1.746,0.67-3.565,0.304-5.319,0.816
			c-3.688,1.078-7.368,2.31-11.269,2.374c-1.035,0.019-1.622,0.243-1.89,1.375c-0.837,3.556-2.642,6.784-3.3,10.453
			c-0.292,1.627-1.031,3.704-2.928,4.641c-0.353,0.174-0.789,0.391-0.499,0.666c1.96,1.879,0.342,3.76-0.302,5.26
			c-2.006,4.66-3.055,9.617-4.589,14.402c-0.919,2.865-2.473,5.552-2.868,8.606c-0.124,0.967-0.657,1.795-1.794,0.736
			c-0.291-0.271,0.48-1.277-0.64-0.938c-0.543,0.166-0.849,0.606-1.062,1.127c-0.489,1.192,0.581,0.39,0.836,0.651
			c0.8,0.824,1.556,2.02,0.351,2.617c-1.397,0.695-2.614,2.014-4.384,1.873c-0.615,2.024-0.234,4.09-0.25,6.135
			c-0.012,1.36,0.897,1.319,1.865,0.849c0.693-0.397,1.641,0.698,2.217-0.377c0.564-1.003,0.162-1.485-0.878-1.511
			c-0.083-0.002-0.165-0.455,0.102-0.252c1.746,0.166,3.538-1.916,5.202,0.181c1.196-0.126,2.444,0.656,3.5-0.98
			c0.513-0.795,2.307-0.889,3.674-0.451c0.361,0.119,1.39,0.155,1.503-0.699c0.063-0.48-0.495-0.686-0.937-0.836
			c-0.175-0.06-0.335,0.065-0.502,0.011c0.072-0.132,0.184-0.222,0.324-0.267c0.701-0.225,1.401-0.111,2.101,0.076
			c0.242,0.055,0.487,0.088,0.736,0.092c0.984-0.037,1.97-0.305,2.947,0.078c0.729,0.287,1.47-0.039,1.467-0.703
			c-0.013-1.906,1.331-3.857-0.126-5.723c-1.545-0.033-3.091-0.074-4.638-0.084c-0.776-0.005-1.86-0.257-1.293-1.066
			c1.484-2.108,1.254-4.608,2.006-6.864c0.602-1.811,1.912-2.349,3.609-2.494c3.213-0.271,6.404-0.618,9.395-2.019
			c0.746-0.35,1.886-0.574,1.934,0.949c0.024,0.734,0.408,1.135,0.923,1.711c1.348,1.501,0.909,3.617,0.555,5.355
			c-0.189,0.934-1.614,1.678-2.973,1.713c-2.549,0.066-3.777,1.036-3.461,2.557c0.091,0.436,0.026,0.91,0.027,1.365
			c0.004,0.817-0.011,1.641,0.01,2.459c0.038,1.414,0.6,1.82,2.101,1.521c5.82-1.147,11.681-2.002,17.487-3.334
			c6.377-1.463,12.799-2.85,19.239-4.09c6.229-1.197,12.402-2.71,18.654-3.771c5.285-0.895,5.318-0.693,5.317-5.738
			c-0.003-3.162-0.462-3.599-3.528-3.279c-0.434,0.045-0.839,0.297-1.271,0.367c-1.946,0.312-2.879-0.127-2.922-2.506
			c-0.061-3.602,0.963-7.162,0.15-10.803c-0.381-1.713,1.354-2.17,2.607-2.584c0.748-0.248,1.652,0.002,2.434-0.187
			c4.992-1.197,4.762-0.498,6.709,3.334c0.402,0.793,0.23,1.604,0.239,2.404c0.034,3.346-0.056,6.686,0.546,10.012
			c0.422,2.349,2.611,5.338,4.867,5.519c5.82,0.471,11.635,0.428,16.428-3.705C197.831,87.518,198.862,82.137,197.693,75.957z
			 M104.77,85.373c-1.221,0.146-2.404,0.617-3.604,0.941c-0.518,0.22-1.225-0.175-1.6,0.499c-0.7,0.709-1.57,0.983-1.766-0.224
			c-0.219-1.354-0.456-3.057,0.157-4.127c1.67-2.918,1.572-6.237,2.647-9.258c0.531-0.576,1.131-0.526,1.763-0.195
			c1.459,3.238,1.341,7.021,3.589,10.031C106.439,83.687,106.506,85.17,104.77,85.373z M171.642,61.992
			c-0.254,1.974-2.506,2.585-3.848,3.301c-2.203,1.174-4.961,1.3-7.486,1.869c-0.718-0.372-0.884-1.123-1.207-1.764
			c-0.015-3.357,0.006-6.717-0.056-10.073c-0.021-1.241,0.228-1.726,1.67-2.091c2.763-0.705,5.566-0.277,8.328-0.785
			c0.992-0.184,2.74,0.644,2.731,2.476C171.767,57.283,171.943,59.669,171.642,61.992z"/>
	</g>
	<path fill="#72AA3C" d="M107.295,86.7c1.654,0.277,1.28,1.41,1.349,2.32c0.007,0.092-0.472,0.356-0.618,0.295
		C106.694,88.737,108.351,87.403,107.295,86.7z"/>
	<path fill="#D5DF40" d="M102.366,73.009c-0.588,0.064-1.176,0.132-1.763,0.195c-0.103-0.938,0.083-1.785,0.766-2.508
		C102.444,71.159,102.125,72.208,102.366,73.009z"/>
	<path fill="#E7E83A" d="M159.101,65.398c1.336-0.053,1.057,1.004,1.209,1.762C158.274,67.695,158.715,66.528,159.101,65.398z"/>
	<path fill="#87B438" d="M81.894,109.602c0.35,0.18,0.573,0.461,0.484,0.856c-0.08,0.355-0.313,0.697-0.719,0.633
		c-0.403-0.062-0.598-0.385-0.427-0.803C81.357,109.983,81.432,109.596,81.894,109.602z"/>
	<path fill="#90BD4A" d="M92.914,110.889c0.002,0.168,0.001,0.34-0.001,0.508c-0.144,0.186-0.31,0.219-0.5,0.071
		c-0.744-0.008-1.486-0.018-2.229-0.024c-0.345-0.203-0.365-0.4,0.013-0.59c0.91-0.377,1.812-0.412,2.715,0.022L92.914,110.889z"/>
	<path fill="#81B740" d="M109.244,103.805c-0.314,0.19-0.505,0.399-0.709,0.411c-0.378,0.021-0.696-0.2-0.556-0.618
		c0.051-0.152,0.427-0.289,0.643-0.271C108.806,103.341,108.972,103.583,109.244,103.805z"/>
	<path fill="#98CA4E" d="M108.719,106.421c-0.191,0.308-0.275,0.586-0.462,0.707c-0.289,0.188-0.514-0.045-0.51-0.317
		c0.004-0.229,0.128-0.513,0.297-0.656C108.12,106.089,108.435,106.301,108.719,106.421z"/>
	<path fill="#76A531" d="M92.911,110.878c-0.906-0.008-1.81-0.018-2.715-0.022C91.107,110.089,92.013,110.036,92.911,110.878z"/>
	<path fill="#B3CB38" d="M99.566,86.813c-0.014-1.924,0.963-0.658,1.598-0.496C100.747,86.856,100.126,86.739,99.566,86.813z"/>
	<path fill="#6F9A25" d="M183.748,133.753c1.817,0,3.64,0,5.457,0c1.099-0.606,2.195-0.604,3.295,0
		c1.634,0.062,3.271,0.125,4.904,0.191c-0.593,0.598-1.353,0.44-2.062,0.44c-10.285,0.009-20.572,0.009-30.858,0
		c-0.712,0-1.474,0.158-2.058-0.448c0.725-0.365,2.153,0.524,2.204-0.865c0.06-1.674-1.465-0.978-2.28-0.988
		c-13.104-0.211-26.208-0.358-39.314-0.521c0.683-0.656,1.542-0.437,2.336-0.438c15.093-0.01,30.188-0.006,45.28-0.004
		c-0.53,1.769-1.979,0.676-2.985,0.93c-0.67,0.168-1.594-0.116-1.51,1.029c0.068,0.947,0.871,0.76,1.463,0.756
		c4.279-0.014,8.557-0.053,12.834-0.082C181.549,133.145,182.647,133.145,183.748,133.753z"/>
	<path fill="#549738" d="M201.795,134.397c19.619-0.002,39.238,0.006,58.856-0.021c1.382-0.002,2.703,0.133,3.994,0.604
		c0.078,0.444,0.381,1.078,0.193,1.291c-0.477,0.547-0.92,0.131-1.271-0.353c-0.573-0.795-1.202-1.448-2.151-0.438
		c-1.326,1.893-1.871-0.16-2.746-0.541c-8.824,0.215-17.66,0.194-26.478,0.172c-9.729-0.021-19.47,0.035-29.202-0.197
		C202.593,134.903,202.196,134.575,201.795,134.397z"/>
	<path fill="#62962D" d="M225.321,138.772c-13.678,0-27.354-0.002-41.031-0.006c0.194-1.354,1.252-1.058,2.115-1.086
		c2.904-0.101,5.84,0.608,8.652,0.42c7.256-0.479,14.467,0.465,21.705,0.194C219.593,138.186,222.536,137.542,225.321,138.772z"/>
	<path fill="#62962D" d="M258.704,138.229c-0.812,0.875-1.879,0.52-2.838,0.521c-9.27,0.027-18.539,0.019-27.811,0.019
		c0.807-0.892,1.873-0.523,2.828-0.527C240.161,138.214,249.431,138.227,258.704,138.229z"/>
	<path fill="#C3D33C" d="M61.228,131.77c0.012,0.682,0.023,1.358,0.036,2.041c-2.578,0-5.156,0-7.734,0
		C55.958,132.471,58.652,132.36,61.228,131.77z"/>
	<path fill="#6F9A25" d="M122.479,133.821c4.55,0.035,9.1,0.068,13.649,0.104C131.573,134.632,127.022,134.817,122.479,133.821z"/>
	<g>
		<path fill="none" d="M164.264,131.895c-13.283-0.008-26.562-0.104-39.83,0.092c-0.607,0.32-1.412,0.562-0.505,1.434
			c4.14,0.316,8.259,0.488,12.369-0.172c2.72-0.328,5.44-0.33,8.16-0.026c1.604,0.479,3.219,0.621,4.85,0.104
			c0.903-0.186,1.811-0.182,2.715-0.004c2.087,0.516,4.162,0.482,6.24-0.059c1.467-0.263,2.928-0.246,4.387,0.039
			c0.674,0.162,1.345,0.278,2.047,0.293c0.052-0.124,0.09-0.272,0.111-0.452C164.894,132.417,164.646,132.073,164.264,131.895z"/>
		<path fill="none" d="M143.604,123.442c-4.986,0.092-9.668,1.936-14.604,1.811c-0.414,0.475-0.39,0.934,0.042,1.386
			c1.634,0.02,3.33,0.329,4.892,0.008c5.847-1.203,11.745-1.614,17.688-1.558c0.889,0.008,1.16-0.463,1.021-1.184
			c-0.283-1.48-1.551-2.113-2.597-1.457C147.994,123.737,145.468,123.405,143.604,123.442z"/>
		<path fill="none" d="M190.182,133.625c0.439-0.001,0.879-0.001,1.318-0.001C191.061,133.552,190.622,133.552,190.182,133.625z"/>
		<path fill="none" d="M181.617,133.631c0.398,0,0.796-0.001,1.194-0.001C182.413,133.569,182.016,133.576,181.617,133.631z"/>
		<path fill="none" d="M164.808,133.143c-0.021,0.18-0.06,0.328-0.111,0.452c0.033,0.001,0.064,0.008,0.098,0.008
			c0.435,0.002,0.868,0,1.303,0.003c-0.064-0.134-0.114-0.289-0.127-0.5c-0.04-0.686,0.235-1.026,0.644-1.21
			c-0.783,0-1.566,0-2.35-0.001C164.646,132.073,164.894,132.417,164.808,133.143z"/>
		<path fill="#5D9632" d="M158.263,133.263c-2.078,0.541-4.153,0.574-6.24,0.059c-0.904-0.178-1.812-0.182-2.715,0.004
			c-1.631,0.518-3.246,0.376-4.85-0.104c-2.72-0.304-5.44-0.302-8.16,0.026c-4.11,0.66-8.229,0.488-12.369,0.172
			c-0.907-0.872-0.102-1.113,0.505-1.434c13.268-0.196,26.546-0.1,39.83-0.092c-0.486-0.225-1.195-0.174-1.775-0.222
			c-0.539-0.045-1.089-0.008-1.634-0.014c-4.994-0.047-9.988,0.125-14.978-0.08c-7.613-0.312-15.227-0.282-22.841-0.02
			c-0.994,0.553-0.426,1.489-0.555,2.26c4.545,0.538,9.096,0.352,13.648,0.104c2.931,0.002,5.857,0.002,8.788,0.007
			c1.446,0.291,2.896,0.291,4.342-0.005c0.924,0.005,1.848,0.005,2.769,0.005c1.995,0.286,3.991,0.291,5.985,0
			c1.472,0.002,2.94,0.004,4.414,0.006c0.829,0.138,1.902,0.537,2.27-0.341c-0.702-0.015-1.373-0.131-2.047-0.293
			C161.19,133.017,159.729,133.001,158.263,133.263z"/>
		<path fill="#5D9632" d="M197.405,133.944c0.189-0.066,0.381-0.133,0.57-0.197c-0.001-0.189-0.002-0.379-0.003-0.569
			c-0.048,0.007-0.095,0.006-0.143,0.013c-0.331,0.039-0.661,0.097-0.979,0.192c-0.607,0.214-1.242,0.238-1.879,0.238
			c-1.157,0-2.314,0.002-3.472,0.003c0.499,0.081,0.999,0.246,1.497,0.49C194.464,134.022,195.946,134.302,197.405,133.944z"/>
		<path fill="#5D9632" d="M180.862,131.083c-1.387-0.028-2.422,1.657-3.721,0.892c-2.1-1.24-4.311-0.73-6.489-0.855
			c-0.847,0.713-1.876,0.492-2.847,0.553c-0.43,0.027-0.855,0.073-1.192,0.225c1.286,0,2.572,0.004,3.858,0.001
			c2.084,0.069,4.176,0.015,6.174,0.815c0.768,0.312,1.675,0.319,2.398-0.069c1.617-0.871,3.33-0.693,5.049-0.707
			c4.541-0.021,9.082,0.063,13.623-0.047c0.084,0,0.168,0.001,0.252,0.002c-0.001-0.217-0.002-0.434-0.003-0.65
			C192.265,131.198,186.56,131.2,180.862,131.083z"/>
		<path fill="#5D9632" d="M188.794,134.106c0.463-0.254,0.926-0.406,1.388-0.481c-2.456,0.001-4.913,0.003-7.37,0.005
			c0.434,0.066,0.868,0.206,1.303,0.475C185.673,134.122,187.231,134.114,188.794,134.106z"/>
		<path fill="#5D9632" d="M167.817,134.104c3.961,0.021,7.922,0,11.887,0.014c0.639-0.207,1.276-0.4,1.913-0.487
			c-5.173,0.004-10.347-0.001-15.521-0.024C166.396,134.222,167.178,134.102,167.817,134.104z"/>
		<path fill="none" d="M53.856,136.111c-2.833,0.064-5.692,0.111-8.579,0.138c1.678,0.008,3.356,0.027,5.035,0.074
			C51.515,136.356,52.71,136.221,53.856,136.111z"/>
		<path fill="none" d="M36.833,136.292c-2.61,0.001-5.226-0.004-7.844-0.014c-0.166-0.001-0.353,0.021-0.544,0.045
			c0.12,0.01,0.235,0.018,0.343,0.018C31.47,136.348,34.151,136.32,36.833,136.292z"/>
		<path fill="none" d="M89.729,128.403c-2.927-2.914-6.642-1.076-9.191-0.277c-4.721,1.479-9.946,0.582-14.315,3.373
			c-1.482,0.947-3.345-0.305-4.995,0.271c-0.626,0.691-0.61,1.371,0.034,2.042c2.816-0.023,5.654,0.178,8.443-0.109
			c5.716-0.588,11.448-0.444,17.132-0.1c2.291,0.138,2.646-0.289,2.312-2.72c0.619,1.271-0.032,3.041,1.619,2.416
			c1.003-0.379,1.657-1.627,0.518-2.809C90.201,130.215,90.129,129.186,89.729,128.403z"/>
		<path fill="#5D9632" d="M53.856,136.111c1.05-0.024,2.111-0.041,3.152-0.071C56.031,135.921,54.967,136.004,53.856,136.111z"/>
		<path fill="#5D9632" d="M36.833,136.292c2.83-0.001,5.644-0.017,8.444-0.043C42.463,136.236,39.648,136.262,36.833,136.292z"/>
		<path fill="#5D9632" d="M28.445,136.323c-0.414-0.034-0.871-0.091-1.243,0.003C27.567,136.439,28.021,136.377,28.445,136.323z"/>
		<path fill="none" d="M117.715,120.712c-1.203,0.203-2.503,0.334-3.52,0.916c-0.46,0.263,0.351,1.199,0.775,1.797
			c1.57,2.207,2.823,4.514,1.446,7.32c-1.173,2.394-0.257,3.09,2.115,2.594c0.65-0.684,0.68-1.816,1.65-2.265
			c0.744-3.239-0.148-6.297-1.045-9.35C118.943,121.071,118.417,120.599,117.715,120.712z"/>
		<path fill="none" d="M109.189,123.447c-3.421,0.065-5.072,1.524-4.614,4.604c0.189,1.271-0.102,1.216-1.033,1.438
			c-4.007,0.948-1.933-2.492-1.903-3.281c0.068-1.783-0.289-2.373-2.258-2.217c0.006,0-0.294-0.072-0.536,0.01
			c-1.291,0.465-3.208,0.193-3.678,1.668c-0.51,1.599,1.605,1.208,2.397,1.979c1.881,1.834,3.545,3.9,6.042,5.176
			c5.06,2.579,8.936,0.733,9.326-4.775C113.115,125.457,111.446,123.404,109.189,123.447z"/>
		<path fill="#5D9632" d="M268.548,85.018c0.073-1.576-0.828-1.683-1.902-1.205c-4.281,1.894-9.077,1.44-13.43,3.024
			c-2.543,0.927-5.354,0.771-7.898,1.468c-4.432,1.214-8.956,1.944-13.434,2.815c-4.224,0.816-8.486,1.682-12.734,2.4
			c-2.31,0.388-4.948,1.412-7.362,1.897c-8.474,1.709-16.933,3.468-25.362,5.39c-5.64,1.282-11.384,2.03-17.009,3.457
			c-4.125,1.045-8.403,1.461-12.582,2.319c-6.709,1.373-13.386,2.91-20.086,4.326c-6.296,1.332-12.616,2.548-18.909,3.896
			c-7.617,1.631-15.271,3.082-22.883,4.737c-5.015,1.094-10.063,2.037-15.041,3.312c-0.879-0.25-1.617,0.108-2.339,0.539
			c-6.897,0.737-13.593,2.43-20.26,4.256c-0.217,0.559-0.717,0.396-1.142,0.471c-4.294,0.744-8.7,1.217-12.846,2.344
			c-4.822,1.31-9.71,2.087-14.56,3.146c-1.053,0.227-2.442,0.235-2.243,1.766c0.076,0.584,0.337,0.843,0.677,0.948
			c0.372-0.094,0.829-0.037,1.243-0.003c0.191-0.023,0.378-0.046,0.544-0.045c2.618,0.01,5.234,0.015,7.844,0.014
			c2.814-0.029,5.629-0.056,8.444-0.043c2.887-0.026,5.747-0.073,8.579-0.138c1.11-0.107,2.175-0.19,3.152-0.071
			c-1.041,0.03-2.102,0.047-3.152,0.071c-1.146,0.11-2.341,0.245-3.544,0.212c-1.678-0.047-3.356-0.066-5.035-0.074
			c-2.8,0.026-5.614,0.042-8.444,0.043c-2.682,0.028-5.364,0.057-8.045,0.049c-0.107,0-0.223-0.008-0.343-0.018
			c-0.425,0.054-0.878,0.116-1.243,0.003c-0.405,0.103-0.705,0.384-0.707,1.113c-0.004,1.412,1.275,1.312,2.259,1.317
			c5.832,0.037,11.665,0.019,17.497,0.017c7.909-0.003,15.819,0.047,23.735-0.148c0.698-1.319,1.384-0.719,2.063-0.002
			c1.901,0.463,3.78-0.383,5.688-0.129c1.789,0.242,3.559,0.646,4.651-1.561c0.401-0.81,1.616-0.636,2.533-0.631
			c2.813,0.016,5.625-0.008,8.438,0.016c-2.639,0.008-5.278-0.011-7.916,0.016c-0.857,0.007-2.038-0.273-2.046,1.105
			c-0.008,1.25,1.061,1.293,1.991,1.32c3.443,0.089,6.883-0.101,10.331-0.017c9.902,0.246,19.807-0.072,29.713-0.024
			c8.261,0.038,16.521,0.108,24.795-0.265c8.787-0.392,17.621-0.024,26.434,0.006c1.086,0.002,2.193-0.094,3.207,0.457
			c1.486,0.207,2.977,0.19,4.465,0.011c1.186-0.628,2.479-0.492,3.735-0.468c7.776,0.164,15.552,0.293,23.331,0.33
			c4.617,0.023,9.24-0.225,13.854,0.152c1.007,0.143,2.013,0.182,3.015-0.039c9.897-0.295,19.797-0.045,29.696-0.131
			c0.332,0,0.664-0.008,0.998-0.021c1.291-0.066,1.761-0.693,1.322-1.936c-0.554-1.014-1.056-2.068-2.279-2.459
			c-1.352-0.284-2.723-0.155-4.088-0.18c-4.278-0.087-8.562,0.261-12.834,0.155c-6.998-0.168-13.994-0.045-20.996-0.102
			c-5.819-0.041-11.641-0.045-17.461-0.207c-0.309-0.129-0.612-0.262-0.92-0.396c-1.205-0.513-2.456-0.611-3.734-0.451
			c0.001,0.19,0.002,0.38,0.003,0.569c-0.189,0.064-0.381,0.131-0.57,0.197c-1.459,0.358-2.941,0.078-4.408,0.17
			c-0.498-0.244-0.998-0.409-1.497-0.49c-0.439,0-0.879,0-1.318,0.001c-0.462,0.075-0.925,0.228-1.388,0.481
			c-1.562,0.008-3.121,0.016-4.68-0.002c-0.435-0.269-0.869-0.408-1.303-0.475c-0.398,0-0.796,0.001-1.194,0.001
			c-0.637,0.087-1.274,0.28-1.913,0.487c-3.965-0.014-7.926,0.008-11.887-0.014c-0.64-0.002-1.422,0.118-1.721-0.498
			c-0.435-0.003-0.868-0.001-1.303-0.003c-0.033,0-0.064-0.007-0.098-0.008c-0.367,0.878-1.44,0.479-2.27,0.341
			c-1.474-0.002-2.942-0.004-4.414-0.006c-1.994,0.291-3.99,0.286-5.985,0c-0.921,0-1.845,0-2.769-0.005
			c-1.445,0.296-2.896,0.296-4.342,0.005c-2.931-0.005-5.857-0.005-8.788-0.007c-4.552,0.248-9.103,0.435-13.648-0.104
			c0.129-0.771-0.439-1.707,0.555-2.26c7.614-0.263,15.228-0.293,22.841,0.02c4.989,0.205,9.983,0.033,14.978,0.08
			c0.545,0.006,1.095-0.031,1.634,0.014c0.58,0.048,1.289-0.003,1.775,0.222c0.783,0.001,1.566,0.001,2.35,0.001
			c0.337-0.151,0.763-0.197,1.192-0.225c0.971-0.061,2,0.16,2.847-0.553c2.179,0.125,4.39-0.385,6.489,0.855
			c1.299,0.766,2.334-0.92,3.721-0.892c5.697,0.117,11.402,0.115,17.103,0.158c0.001,0.217,0.002,0.434,0.003,0.65
			c1.246,0.012,2.498,0.074,3.598-0.705c0.578-3.565-2.278-1.638-3.563-2.226c-1.86,0.413-3.725,0.374-5.588,0.021
			c-1.037,0-2.076,0-3.112,0c-1.677,0.37-3.343,0.359-5.011-0.062c-1.506-0.379-2.996-0.467-4.375,0.455
			c-2.459,0.432-4.926-0.598-7.293-0.229c-3.097,0.487-6.168,0.134-9.235,0.354c-1.361,0.097-3.308-1.185-3.351-1.119
			c-1.715,2.684-3.991-0.145-5.851,0.646c-0.592,0.252-1.252-0.096-1.188-1.01c0.055-0.736,0.562-0.789,1.125-0.877
			c3.166-0.489,6.322-1.332,9.5-1.431c7.641-0.237,15.268-0.571,22.891-1.174c4.426-0.351,8.875-0.421,13.314-0.646
			c1.047-0.056,2.469,0.012,2.407-1.457c-0.062-1.507-1.39-1.379-2.495-1.14c-3.036,0.662-6.114,0.562-9.184,0.584
			c-0.949,0.427-2.015-0.005-2.968,0.392c-2.354,0.821-4.799,0.614-7.223,0.655c-1.769,0.027-3.541-0.721-5.306,0.031
			c-1.067,0.562-2.334-0.547-3.354,0.406c-5.627,0.685-11.288,0.556-16.935,0.771c-0.656,0.026-1.566,0.3-1.766-0.733
			c-0.17-0.886,0.018-1.643,1.17-1.65c0.791,0.172,1.549,0.155,2.211-0.397c1.963,1.174,3.73-1.613,5.697-0.279
			c1.014,0.688,2.303,0.515,2.979-0.049c1.879-1.572,4.033-1.197,6.139-1.441c5.287-0.608,10.623-0.873,15.832-2.069
			c1.492,0.146,2.972,0.191,4.357-0.539c2.011-0.105,3.941-0.932,5.998-0.65c0.842-0.619,1.91,0.162,2.756-0.447
			c0.355-0.037,0.711-0.097,1.068-0.114c1.077-0.054,1.836-0.529,1.518-1.671c-0.34-1.213-1.2-0.692-2.116-0.524
			c-3.777,0.69-7.66,0.683-11.41,1.604c-0.549-0.279-1.095-0.381-1.629,0.029c-3.399,0.611-6.853,1.094-10.242,1.5
			c-3.457,0.42-6.754,1.645-10.241,1.701c-3.88,0.063-7.68,0.902-11.527,1.19c-2.758,0.205-5.492,0.248-8.166,1.109
			c-0.772,0.25-2.01,1.437-2.491-0.033c-0.404-1.232,0.476-1.971,1.953-2.213c4.743-0.779,9.44-1.817,14.177-2.651
			c2.262-0.396,4.551-1.346,6.668-1.443c4.571-0.213,8.829-1.678,13.188-2.553c6.716-1.351,13.5-2.274,20.199-3.687
			c0.863-0.182,1.736-0.295,1.705-1.332c-0.041-1.326-1.222-0.902-1.859-0.805c-3.366,0.502-6.713,1.135-10.067,1.721
			c-1.131,0.165-2.294-0.162-3.422,0.093c-0.095,0.221-0.237,0.478-0.443,0.783c-1.571,0.326-3.11,0.854-4.756,0.703
			c-0.608-0.057-1.344,0.156-1.373-0.83c-0.022-0.756,0.451-1.211,1.078-1.377c1.124-0.291,2.279-0.451,3.42-0.668
			c0.601,0.071,1.319,0.053,1.772,0.233c0.81-0.122,1.592-0.315,2.117-1.156c1.149-0.461,2.358-0.084,3.61-0.506
			c3.858-1.303,7.881-2.053,11.957-2.408c3.119-0.27,6.188-1.104,9.166-1.844c3.931-0.98,7.929-1.525,11.854-2.459
			c0.646-0.554,1.578,0.149,2.203-0.496c0.338-0.131,0.662-0.313,1.015-0.383c4.999-1,10.002-1.981,15.004-2.978
			c7.709-1.538,15.295-3.719,23.153-4.477c1.008-0.099,1.346-0.827,1.355-1.729C268.591,87.145,268.501,86.08,268.548,85.018z
			 M90.768,133.3c-1.651,0.625-1-1.145-1.619-2.416c0.334,2.431-0.021,2.857-2.312,2.72c-5.684-0.345-11.416-0.488-17.132,0.1
			c-2.789,0.287-5.627,0.086-8.443,0.109c-0.644-0.671-0.66-1.351-0.034-2.042c1.65-0.576,3.513,0.676,4.995-0.271
			c4.369-2.791,9.594-1.895,14.315-3.373c2.549-0.799,6.264-2.637,9.191,0.277c0.4,0.783,0.472,1.812,1.557,2.088
			C92.425,131.673,91.771,132.921,90.768,133.3z M103.606,132.824c-2.497-1.275-4.161-3.342-6.042-5.176
			c-0.792-0.771-2.907-0.381-2.397-1.979c0.47-1.475,2.387-1.203,3.678-1.668c0.242-0.082,0.542-0.01,0.536-0.01
			c1.969-0.156,2.326,0.434,2.258,2.217c-0.03,0.789-2.104,4.229,1.903,3.281c0.931-0.223,1.222-0.168,1.033-1.438
			c-0.458-3.079,1.193-4.538,4.614-4.604c2.257-0.043,3.926,2.01,3.743,4.602C112.542,133.557,108.666,135.403,103.606,132.824z
			 M120.181,131.074c-0.97,0.448-1,1.581-1.65,2.265c-2.372,0.496-3.288-0.2-2.115-2.594c1.377-2.807,0.124-5.113-1.446-7.32
			c-0.424-0.598-1.235-1.534-0.775-1.797c1.017-0.582,2.317-0.713,3.52-0.916c0.702-0.112,1.229,0.359,1.421,1.013
			C120.033,124.777,120.925,127.835,120.181,131.074z M126.676,120.673c-1.096-0.131-1.974,0.97-3.108,0.507
			c-1.07-1.358,0.401-1.593,0.979-2.222c0.709-0.771,1.459-0.362,2.219-0.102c0.482,0.168,0.767,0.426,0.722,0.969
			C127.447,120.333,127.217,120.735,126.676,120.673z M141.118,129.354c-0.168,0.723-0.759,0.66-1.284,0.651
			c-2.878-0.047-5.755-0.104-8.633-0.166c-0.819-0.263-1.027-0.772-0.613-1.532c3.333-1.316,6.664,0.528,10.009,0.028
			C141.076,128.264,141.232,128.861,141.118,129.354z M150.047,122.448c1.046-0.656,2.313-0.023,2.597,1.457
			c0.139,0.721-0.133,1.191-1.021,1.184c-5.943-0.057-11.841,0.354-17.688,1.558c-1.562,0.321-3.258,0.012-4.892-0.008
			c-0.432-0.452-0.456-0.911-0.042-1.386c4.936,0.125,9.618-1.719,14.604-1.811C145.468,123.405,147.994,123.737,150.047,122.448z
			 M136.765,120.688c1.872-0.492,3.74-0.994,5.615-1.474c0.596-0.151,1.293-0.409,1.506,0.509c0.193,0.834-0.365,0.967-1.047,1.184
			c-2.015,0.639-3.95,1.572-6.152,1.324C136.235,121.692,136.242,121.178,136.765,120.688z M160.854,113.249
			c-0.058,0.478-0.213,0.945-0.791,0.875c-3.204-0.383-6.029,1.229-9.07,1.664c-0.348,0.053-0.719-0.065-1.076-0.106
			c0,0,0-0.001-0.001-0.001c-1.694,0.381-3.362,0.981-5.151,0.668v0.001c-1.567,0.52-3.01,1.776-4.824,0.797c0,0,0-0.001,0-0.001
			c-1.098,1.736-2.826,1.269-4.42,1.261c0-0.001,0-0.001,0-0.002c0,0,0,0.001-0.001,0.001c-1.876,0.557-3.748,1.125-5.63,1.654
			c-0.505,0.145-1.158,0.315-1.429-0.312c-0.283-0.66-0.005-1.031,0.742-1.396c2.014-0.986,4.03-1.713,6.309-1.343
			c0,0.001,0.001,0.001,0.002,0.002v-0.001c1.361-0.836,2.891-0.816,4.41-0.842c1.435-1.146,3.057-1.613,4.881-1.334
			c0,0.001,0,0.002,0,0.002c0.001-0.001,0.001-0.002,0.002-0.003c2.068-1.169,4.397-1.071,6.645-1.343
			c2.648-1.428,5.453-1.879,8.4-1.281C160.347,112.308,160.945,112.501,160.854,113.249z M178.601,110.323
			c-2.285,0.332-4.564,0.715-6.847,1.074c-0.001-0.001-0.001-0.002-0.002-0.003c0.001,0.002,0.001,0.003,0.002,0.005
			c-1.601,0.643-3.291,0.867-4.987,1.043c-1.215,0.02-2.177,0.799-3.287,1.088c-0.58,0.152-1.57,0.441-1.717-0.684
			c-0.109-0.859-0.379-1.857,1.065-2c1.331-0.13,2.646-0.41,3.971-0.621c2.337-0.517,4.671-1.031,7.007-1.547
			c1.44-1.117,3.301-0.244,4.854-1.035c0.59-0.302,0.866,0.461,0.853,1.037C179.494,109.368,179.683,110.166,178.601,110.323z"/>
		<path fill="#FEFEFE" d="M182.33,108.258c1.744,0.568,3.181-0.159,4.631-0.311c0.162-0.064,0.324-0.113,0.488-0.149
			c0.289-0.679,0.099-0.996-0.302-1.155c-0.526,0.079-1.064,0.129-1.553,0.305C184.599,107.336,183.455,107.33,182.33,108.258z"/>
		<path fill="#CEDA3A" d="M173.806,108.678c-2.336,0.516-4.67,1.03-7.007,1.547c0.001,0,0.002,0,0.003,0
			c1.648,0.766,1.027,1.493-0.035,2.217c1.696-0.176,3.387-0.4,4.987-1.043c-0.001-0.002-0.001-0.003-0.002-0.005
			C170.43,108.978,173.194,109.639,173.806,108.678z"/>
		<path fill="#CEDA3A" d="M173.806,108.678c-0.611,0.961-3.376,0.3-2.054,2.716C171.012,109.416,173.759,110.066,173.806,108.678z"
			/>
		<path fill="#CEDA3A" d="M166.802,110.225c-0.001,0-0.002,0-0.003,0c1.019,0.754,0.373,1.486-0.032,2.217
			C167.829,111.719,168.45,110.991,166.802,110.225z"/>
		<path fill="#F2F4BA" d="M151.45,113.491c-2.247,0.271-4.576,0.174-6.645,1.343c-0.001,0.001-0.001,0.002-0.002,0.003
			c-0.014,0.503-0.024,1.006-0.039,1.512c1.789,0.313,3.457-0.287,5.151-0.668C148.379,113.516,151.039,114.29,151.45,113.491z"/>
		<path fill="#F2F4BA" d="M151.45,113.491c-0.411,0.799-3.071,0.025-1.534,2.189c0.001,0,0.001,0,0.001,0
			C149.351,114.198,151.323,114.489,151.45,113.491z"/>
		<path fill="#FEFEFE" d="M144.765,116.348c0.015-0.506,0.025-1.009,0.039-1.512C144.395,115.33,144.447,115.835,144.765,116.348z"
			/>
		<path fill="#F5F7CE" d="M139.923,116.169c-1.519,0.025-3.048,0.006-4.41,0.842v0.001c0.563,0.463,0.515,0.927,0.007,1.393
			c0,0.001,0,0.001,0,0.002c1.595,0.008,3.323,0.476,4.42-1.261C139.684,116.825,139.68,116.5,139.923,116.169z"/>
		<path fill="#F5F7CE" d="M135.513,117.011c0.002,0.467,0.004,0.931,0.007,1.393C136.028,117.938,136.076,117.474,135.513,117.011z"
			/>
		<path fill="#F5F7CE" d="M139.924,116.169C139.923,116.169,139.923,116.169,139.924,116.169c-0.244,0.331-0.24,0.656,0.017,0.977
			l0-0.001C139.935,116.817,139.929,116.495,139.924,116.169z"/>
	</g>
	<path fill="#62962D" d="M184.068,136.54c-0.419,0.803-1.306,0.957-1.998,0.904c-0.669-0.057-1.929-0.021-1.843-1.021
		c0.098-1.174,1.317-0.909,2.172-0.922C183.123,135.493,183.838,135.583,184.068,136.54z"/>
	<path fill="#62962D" d="M262.508,136.522c0.05,0.776,1.525,0.25,1.23,1.358c-0.23,0.857-1.005,0.609-1.531,0.722
		c-1.004,0.205-2.082,0.522-2.971-0.377c0.967,0.026,0.823-0.5,0.551-1.097C260.609,136.551,261.45,136.046,262.508,136.522z"/>
	<path fill="#D8DE3A" d="M130.588,128.307c0.204,0.514,0.409,1.022,0.613,1.539c-1.45,0.002-2.899,0.012-4.348,0.02
		c-0.456-0.455-0.427-0.918-0.021-1.387C128.083,128.423,129.334,128.366,130.588,128.307z"/>
	<path fill="#FEFEFE" d="M146.091,128.344c-0.254,0.783-0.502,1.769-1.816,1.652c-0.651-0.055-1.721,0.269-1.614-0.803
		c0.125-1.281,1.562-1.353,2.457-1.854C145.606,127.061,146.147,127.442,146.091,128.344z"/>
	<path fill="#BFD23F" d="M95.104,131.712c-0.558-0.694-1.17-1.375-0.831-2.59c1.386,0.289,2.06,1.265,2.632,2.365
		c-0.064,0.246-0.213,0.422-0.448,0.521C95.949,132.171,95.503,132.052,95.104,131.712z"/>
	<path fill="#CCD33A" d="M124.548,118.958c-0.259,0.771-1.357,1.17-0.979,2.222c-0.959,0.161-2.156,0.022-2.034-1.039
		C121.743,118.323,123.541,119.413,124.548,118.958z"/>
	<path fill="#C3D63F" d="M126.249,122.426c1.085-0.213,2.171-0.424,3.257-0.639c0.519,0.234,0.658,0.682,0.672,1.195
		c-1.191,0.817-2.694,0.299-3.934,0.912C125.84,123.405,125.875,122.915,126.249,122.426z"/>
	<path fill="#91B83F" d="M262.508,136.522c-0.911,0.178-1.725,0.812-2.723,0.606c-0.272-0.78-1.244-1.207-1.113-2.19
		c1.039-0.443,1.562,1.721,2.746,0.541C262.118,135.479,262.481,135.827,262.508,136.522z"/>
	<path fill="#BFD23F" d="M96.906,131.489c0.833,0.447,2.215,1.02,1.708,1.918c-0.594,1.057-1.989,0.613-3.021,0
		c0.175-0.697,0.641-1.205,1.118-1.703C96.778,131.632,96.842,131.561,96.906,131.489z"/>
	<path fill="#FEFEFE" d="M132.921,121.319c0.612-0.543,1.306-0.756,2.111-0.521c0.493,0.521,0.428,1.076,0.09,1.646
		c-0.631,0.828-1.468,0.387-2.238,0.365C132.421,122.298,132.421,121.801,132.921,121.319z"/>
	<path fill="#FEFEFE" d="M150.995,127.368c0.073,0.828-0.271,1.156-0.916,1.146c-0.6-0.011-1.344,0.135-1.434-0.771
		c-0.062-0.627,0.273-1,0.938-0.996C150.195,126.749,150.877,126.628,150.995,127.368z"/>
	<path fill="#D6DD33" d="M129,125.253c0.015,0.461,0.03,0.924,0.043,1.386c-0.889,0.061-1.777,0.12-2.665,0.186
		c-0.371-0.348-0.417-0.727-0.138-1.15C127.16,125.534,128.081,125.391,129,125.253z"/>
	<path fill="#6F9A25" d="M152.026,133.93c1.996,0,3.992,0,5.986,0C156.019,134.667,154.022,134.661,152.026,133.93z"/>
	<path fill="#FEFEFE" d="M126.24,125.673c0.046,0.384,0.093,0.765,0.139,1.148c-0.684,0.607-1.515,0.902-1.741-0.236
		C124.368,125.237,125.558,125.745,126.24,125.673z"/>
	<path fill="#7AAD3F" d="M71.568,137.635c-0.357,0.029-0.716,0.06-1.074,0.091c-0.621-0.593-0.812-1.324,0.164-1.525
		C71.714,135.979,71.53,136.973,71.568,137.635z"/>
	<path fill="#D1DE33" d="M135.121,122.44c-0.03-0.549-0.06-1.099-0.09-1.646c0.577-0.037,1.155-0.071,1.733-0.106
		c-0.025,0.514-0.051,1.028-0.078,1.545C136.164,122.301,135.643,122.37,135.121,122.44z"/>
	<path fill="#FEFEFE" d="M130.179,122.985c-0.623-0.174-0.57-0.73-0.672-1.195c0.557-0.815,1.173-0.709,1.821-0.117
		c0.242,0.449,0.21,0.857-0.177,1.213C130.826,122.919,130.502,122.954,130.179,122.985z"/>
	<path fill="#FEFEFE" d="M96.711,131.704c0.213,0.951,0.012,1.633-1.118,1.703c-0.729-0.402-0.419-1.104-0.489-1.695
		C95.64,131.71,96.175,131.706,96.711,131.704z"/>
	<path fill="#FEFEFE" d="M126.249,122.426c-0.002,0.49-0.003,0.98-0.005,1.472c-0.515,0.021-1.03,0.045-1.545,0.065
		c-0.367-0.358-0.365-0.762-0.13-1.188C125.021,122.141,125.66,122.401,126.249,122.426z"/>
	<path fill="#FEFEFE" d="M126.832,128.479c0.006,0.463,0.013,0.926,0.02,1.387c-0.529,0.031-1.058,0.062-1.588,0.098
		c-0.503-0.512-0.511-1.021,0.015-1.526C125.795,128.452,126.313,128.464,126.832,128.479z"/>
	<path fill="#D2DF3B" d="M118.531,133.339c0.246-0.979-0.298-2.53,1.651-2.27C119.853,131.989,119.674,133.014,118.531,133.339z"/>
	<path fill="#B4CA37" d="M91.286,130.491c-1.923,0.352-1.655-0.934-1.558-2.088C90.568,128.862,90.861,129.723,91.286,130.491z"/>
	<path fill="#CFD938" d="M131.151,122.885c0.059-0.403,0.118-0.809,0.177-1.213c0.53-0.116,1.062-0.235,1.593-0.354
		c-0.012,0.496-0.023,0.992-0.037,1.488C132.306,122.833,131.729,122.858,131.151,122.885z"/>
	<path fill="#6F9A25" d="M144.915,133.93c1.446,0,2.896,0,4.342-0.005C147.812,134.659,146.362,134.659,144.915,133.93z"/>
	<path fill="#A8CA39" d="M125.277,128.436c-0.004,0.512-0.009,1.02-0.015,1.526c-0.643,0.047-1.403-0.028-1.397-0.766
		C123.871,128.464,124.639,128.401,125.277,128.436z"/>
	<path fill="#C7D636" d="M124.569,122.776c0.043,0.396,0.087,0.793,0.13,1.188c-0.555-0.039-1.423,0.363-1.43-0.584
		C123.264,122.776,124.084,122.903,124.569,122.776z"/>
	<path fill="#88B335" d="M250.972,89.483c-0.192,0.307-0.277,0.576-0.461,0.699c-0.285,0.188-0.505-0.045-0.5-0.312
		c0.006-0.227,0.131-0.502,0.299-0.645C250.386,89.161,250.69,89.366,250.972,89.483z"/>
	<path fill="#93BA45" d="M59.9,129.165c0.25,0.287,0.507,0.455,0.539,0.656c0.025,0.162-0.228,0.361-0.356,0.547
		c-0.167-0.16-0.423-0.297-0.469-0.488C59.572,129.712,59.762,129.485,59.9,129.165z"/>
	<path fill="#5D952F" d="M173.938,28.953c0.51-0.056,1.02-0.112,1.526-0.167c0.738-0.533,0.562-1.062-0.002-1.595
		c-2.957-2.359-3.473-6.15-1.422-10.419c1.49,0.521,0.947,1.436,0.476,2.362c-1.281,2.498-0.275,6.485,2.147,7.73
		c3.233,1.662,7.181,2.363,8.817-0.899c0.951-1.895,1.732,0.32,2.615,0.092c1.217-0.219,1.963-1.902,3.496-1.122
		c0.812,0,1.621,0,2.91,0c-2.738,1.28-4.709,3.151-7.646,2.316c-1.021-0.29-1.895,1.109-2.893,1.313
		C180.662,29.243,177.306,29.465,173.938,28.953z"/>
	<path fill="#609A3A" d="M166.78,12.944c0,0.181,0,0.359,0,0.541c-0.572,0.397-1.227,0.265-1.85,0.265
		c-17.879,0.006-35.757,0.006-53.634,0.006c-0.455,0-0.908,0.004-1.348-0.134c0.068-1.88,1.618-1.454,2.612-1.486
		c4.962-0.167,9.911,0.109,14.832,0.81c10.029,0,20.06,0,30.09,0.001C160.58,12.943,163.683,12.944,166.78,12.944z"/>
	<path fill="#5D952F" d="M217.644,13.499c-0.116,0.401,0.192,1.083-0.383,1.164c-1.398,0.198-2.822,0.358-4.233,0.323
		c-5.194-0.13-10.388-0.343-15.579-0.525c4.008-1.542,8.193-0.839,12.311-0.958C212.386,13.427,215.013,13.496,217.644,13.499z"/>
	<path fill="#FEFEFE" d="M128.54,35.881c0.678,0.231,1.89-0.706,2.192,0.665c0.32,1.461-1.159,1.191-1.844,1.42
		c-1.68,0.562-3.442,0.894-5.187,1.233c-0.595,0.115-1.344,0.147-1.368-0.826c-0.016-0.652-0.001-1.231,0.866-1.429
		C124.94,36.545,126.617,35.842,128.54,35.881z"/>
	<path fill="#5D952F" d="M191.433,21.699c-0.67-0.329-0.775-1.412-1.765-1.32c-0.291-0.462-0.58-0.924-0.871-1.385
		c-1.125-0.85-2.555-1.07-3.362-2.645c-0.688-1.347-5.166-0.875-7.308,0.385c-0.672-1.767,1.111-2.036,1.729-1.901
		c1.732,0.381,3.423,0.314,5.104,0.094c1.627-0.214,1.557,2.194,3.154,1.843l0.004,0.001c0.926,1.444,2.188,2.592,3.512,3.63
		C192.547,21.119,191.991,21.346,191.433,21.699z"/>
	<path fill="#5D952F" d="M188.118,16.77c-0.412-0.987-0.822-1.976-1.271-3.059c2.025-0.849,1.875,1.863,3.25,1.961
		c1.103,0.312,1.725,1.307,2.652,1.86c0.985,0.724,1.467,1.968,2.611,2.524c0.904,0.246,1.111,0.688,0.188,1.146
		c-0.695,0.343-1.598,1.21-2.188-0.134c-0.788-1.783-2.646-2.624-3.608-4.245c-0.491-0.828-1.08-0.234-1.629-0.054H188.118z"/>
	<path fill="#FEFEFE" d="M162.498,23.425c-2.506,0.938-5.099,1.201-7.754,0.946c-0.461-0.5-0.435-1,0.002-1.5
		c2.53-0.19,5.062-0.382,7.594-0.572C162.729,22.627,162.729,23.01,162.498,23.425z"/>
	<path fill="#FEFEFE" d="M192.437,17.957c-0.9-0.636-2.168-0.899-2.34-2.284c0.056-0.75,0.967-0.519,1.207-1.057
		c0.159-0.229,0.364-0.291,0.616-0.157c0.373-0.004,0.744-0.009,1.119-0.014c1.627,0.398,1.695,1.544,1.373,2.878
		C193.924,18.064,193.289,18.351,192.437,17.957z"/>
	<path fill="#5D952F" d="M219.304,10.754c3.1,0.001,6.198,0.001,9.299,0.001C226.681,12.335,220.815,12.333,219.304,10.754z"/>
	<path fill="#5D952F" d="M194.155,17.22c0.064-1.101-0.1-2.107-1.115-2.773c0.03-1.362,1.293-2.152,1.729-1.092
		c0.754,1.838,1.041,4.035,0.596,6.147C194.09,19.203,194.12,18.212,194.155,17.22z"/>
	<g>
		<path fill="none" d="M227.34,14.854c-1.821-0.347-3.719-0.612-5.364-0.132c-2.095,0.611-2.097-0.355-2.101-1.763
			c-0.545-0.398-1.088-0.398-1.635-0.003c-0.2,0.182-0.399,0.362-0.599,0.541c-2.573,1.243-5.326,0.884-8.014,0.784
			c-4.068-0.15-8.125-0.213-12.182,0.178c-0.977,0.551-0.434,1.477-0.549,2.239c0.557,0.461,0.414,1.357,1.091,1.74
			c0.872,0.003,0.831,0.659,1.051,1.267c0.597,1.655,1.864,3.28,3.545,3.009c5.207-0.834,10.345-2.104,15.509-3.208
			c0.649-0.855,1.56-0.351,2.356-0.452c1.475,0.303,2.516-1.412,3.478-1.282c4.309,0.588,8.256-0.858,12.323-1.647
			c0.42-0.52,0.496-1.026-0.049-1.514C233.248,14.878,230.272,15.412,227.34,14.854z"/>
		<path fill="none" d="M267.095,10.862c-0.239,0.146-0.523,0.198-0.823,0.218c0.338,0.005,0.666-0.031,0.96-0.217
			c0.629-0.396,0.134-0.701-0.284-0.917c-0.07-0.001-0.141-0.001-0.211-0.002C267.293,10.082,267.883,10.382,267.095,10.862z"/>
		<path fill="none" d="M265.751,9.934c-2.402-0.021-4.801,0.021-7.198-0.031C260.954,10,263.354,9.93,265.751,9.934z"/>
		<path fill="none" d="M264.69,11.169c-0.012-0.049,0.052-0.06,0.179-0.086c0.172-0.037,0.35-0.044,0.528-0.042
			c-0.26-0.038-0.523-0.085-0.791-0.141C264.377,10.892,264.789,11.52,264.69,11.169z"/>
		<path fill="#5D9632" d="M266.697,9.933c-0.315-0.004-0.631,0.001-0.946,0c0.328,0.003,0.656,0.004,0.985,0.01
			C266.723,9.941,266.71,9.936,266.697,9.933z"/>
		<path fill="#5D9632" d="M265.981,8.68c-1.727-0.009-3.381,0.821-5.122,0.344c-0.9-0.267-1.802-0.273-2.701,0.005
			c-0.187,0.062-0.375,0.125-0.563,0.187c-0.146,0.321-0.056,0.533,0.246,0.646c0.237,0.014,0.475,0.032,0.712,0.042
			c2.397,0.052,4.796,0.01,7.198,0.031c0.315,0,0.631-0.005,0.946,0c0.013,0.003,0.025,0.007,0.039,0.011
			c0.07,0.001,0.141,0,0.211,0.002c0.418,0.216,0.913,0.521,0.284,0.917c-0.294,0.186-0.622,0.222-0.96,0.217
			c-0.276,0.018-0.567,0.006-0.874-0.039c-0.179-0.002-0.356,0.005-0.528,0.042c-0.127,0.026-0.19,0.037-0.179,0.086
			c0.099,0.352-0.313-0.276-0.084-0.269c0.268,0.055,0.531,0.103,0.791,0.141c0.307,0.045,0.598,0.057,0.874,0.039
			c0.3-0.02,0.584-0.072,0.823-0.218c0.788-0.48,0.198-0.78-0.358-0.918c-0.329-0.006-0.657-0.007-0.985-0.01
			c-2.396-0.003-4.797,0.066-7.198-0.031c-0.214-0.005-0.427-0.004-0.641-0.011c-0.029-0.008-0.046-0.021-0.071-0.031
			c-0.436-0.025-0.872-0.037-1.308-0.077c-0.291,0.077-0.522,0.232-0.701,0.479c-0.028,0.191-0.008,0.359,0.084,0.494
			c0.351,0.517,0.933,0.258,1.39,0.416c-0.511,0.096-1.009,0.301-1.537,0.109c-0.164-0.06-0.332-0.105-0.488-0.164
			c-0.793-0.646-1.707-1.063-2.736-1.062c-7.898,0.004-15.797-0.312-23.693,0.174c-3.22,1.294-6.453,1.371-9.692,0.087
			c-0.99-0.32-1.983-0.291-2.968,0.021c-2.383,1.732-4.991,0.836-7.592,0.816c-17.91-0.14-35.82-0.075-53.731-0.051
			c-1.054,0.001-2.229-0.155-2.935,1.079c1.498,1.678,3.685,0.532,5.381,1.309c2.88,0.382,5.766,0.224,8.654,0.11
			c1.354-0.444,2.119-0.241,1.76,1.445c-0.305,1.418-0.86,2.767-1.086,4.206c-0.144,0.933-0.935,0.621-1.528,0.652
			c-0.263-0.016-0.527-0.025-0.791-0.017c-0.7-0.016-1.401-0.018-2.099,0.004c-0.758-0.001-1.453,0.186-2.061,0.651
			c-6.289,0.397-12.618,0.522-18.86,1.307c-3.217,0.402-6.41-0.735-9.544,0.324c-0.838-0.284-1.469,0.259-2.172,0.546
			c-4.396,0.384-8.786,0.851-13.211,0.746c-0.759-0.017-1.647-0.363-2.284,0.42c-1.266,0.83-2.449-0.483-3.695-0.136
			c-0.6,0.031-1.131,0.25-1.611,0.605c-0.361,0.032-0.725,0.104-1.083,0.088c-0.997-0.05-1.617,0.581-1.722,1.375
			c-0.034,0.26,0.99,0.827,1.783,0.779c1.179-0.069,2.363-0.035,3.546-0.046c0.935-0.441,1.991,0.025,2.929-0.396
			c0.739-0.013,1.479-0.022,2.219-0.034c0.837,0.315,1.468-0.245,2.167-0.511c2.689-0.259,5.388-0.298,8.086-0.56
			c6.026-0.584,12.103-0.554,18.098-1.629c1.371-0.245,2.871-0.378,4.285,0.25c0.588,0.261,0.896,0.546,0.791,1.192
			c-0.096,0.583-0.552,0.671-1.003,0.665c-3.739-0.049-7.312,1.689-11.107,1.036c-0.843-0.297-1.476,0.239-2.169,0.542
			c-4.168,0.593-8.344,1.135-12.502,1.795c-5.141,0.813-10.234,1.978-15.467,2.124c-0.661,0.019-0.967,0.3-0.997,0.979
			c-0.036,0.786,0.224,1.199,1.066,1.174c0.543-0.019,1.087,0.043,1.631,0.067c1.023,0.385,1.907,0.062,2.734-0.542
			c0.729-0.012,1.459-0.023,2.188-0.035c1.202,0.498,2.243,0.02,3.273-0.538c0.188-0.001,0.376-0.003,0.564-0.004
			c0.84,0.321,1.474-0.23,2.169-0.518c0.736-0.014,1.472-0.024,2.208-0.036c0.845,0.325,1.48-0.216,2.171-0.526
			c3.873-0.742,7.733-1.586,11.631-2.165c1.017-0.15,2.879-0.895,3.145,0.771c0.268,1.682-1.302,2.341-2.877,2.46
			c-0.452,0.034-0.909,0.038-1.361,0.027c-1.814-0.04-3.942,0.215-5.312,0.687c-6.002,2.065-12.224,2.84-18.358,4.114
			c-0.839-0.23-1.532,0.085-2.177,0.582c-0.368-0.01-0.737-0.021-1.105-0.031c-0.856-0.195-1.543,0.092-2.106,0.734
			c-0.028,0.88,0.072,1.701,1.008,2.122c0.338,0.354,0.818,0.579,1.225,0.405c2.698-1.136,5.672-1.062,8.416-1.982
			c1.087-0.364,2.188-0.656,3.71-0.077c-1.532,0.308-2.689,0.403-3.76,0.916c-1.484,0.709-3.049,1.231-4.725,0.932
			c-2.363-0.423-4.193,0.576-5.874,2.054c-0.712,0.841-1.694,0.48-2.543,0.486c-6.331,0.05-12.662,0.04-18.992,0.04
			c-5.793,0-11.585-0.011-17.377-0.017c-0.267-0.366-0.647-0.473-1.075-0.46c-1.456,0.29-2.911,0.308-4.364,0.004
			c-0.424-0.024-0.808,0.081-1.13,0.369c-10.249,0.031-20.499,0.059-30.747,0.094c-1.552,0.005-3.139,0.22-4.56-1.027
			c0.552,2.048,0.98,3.944-0.194,5.759c0.256,0.881,0.705,1.556,1.741,1.576c1.096-0.115,2.192-0.271,3.27,0.112
			c1.728,0.002,3.457,0.004,5.185,0.004c1.445-0.467,2.929-0.118,4.392-0.217c9.519-0.759,19.076,0.122,28.592-0.676
			c1.734,0.175,3.424,0.925,5.221,0.417c-1.25,0.409-2.739,0.22-3.63,1.486c-2.119,0.359-4.258,0.574-6.377,0.987
			c-2.385,0.465-4.724,1.641-7.267,1.289c-1.905-0.828-3.47-0.12-4.922,1.094c-3.464,0.731-6.93,1.461-10.396,2.191
			c-2.039-0.722-3.817-0.133-5.469,1.091c-2.03,0.369-3.993,0.988-6.051,1.3c-3.415,0.519-4.048,1.618-3.691,4.997
			c0.098,0.927,0.066,1.417,1.409,1.12c8.244-1.824,16.516-3.53,24.795-5.193c7.607-1.529,15.327-2.603,22.834-4.52
			c7.978-2.035,16.139-3.058,24.118-5.15c9.507-2.494,19.374-3.593,28.945-5.878c8.197-1.955,16.495-3.351,24.711-5.19
			c10.598-2.37,21.266-4.419,31.912-6.576c7.482-1.521,14.986-2.941,22.461-4.503c6.201-1.298,12.34-2.896,18.564-4.056
			c3.449-0.642,6.783-1.842,10.211-2.313c7.062-0.97,13.934-2.725,20.883-4.157c2.898-0.598,5.795-1.76,8.809-1.387
			c2.189,0.27,3.049-0.741,3.07-2.574C268.485,11.281,269.556,8.697,265.981,8.68z M150.929,23.349
			c0.785-1.064,1.992-0.376,3.006-0.552c0.259-0.045,0.541,0.045,0.811,0.073c0,0.5,0,1,0,1.501
			c-0.078,0.046-0.158,0.092-0.236,0.136c-1.17,0.644-2.391,0.802-3.553,0.102C150.753,24.486,150.724,23.631,150.929,23.349z
			 M140.965,29.133c4.201-1.914,8.75-1.837,13.175-2.471c0.504,0.536,0.518,1.06-0.033,1.57c-1.584,0.406-3.043,1.353-4.776,1.108
			c-0.621-0.003-1.233,0.021-1.721,0.489c-2.085,0.393-4.162,0.822-6.256,1.153c-0.534,0.085-1.347,0.313-1.47-0.665
			C139.779,29.506,140.328,29.422,140.965,29.133z M166.825,30.409c-5.395,0.396-10.491,2.438-15.893,2.799
			c-2.541,0.289-4.723,1.775-7.401,1.917c-3.126,0.165-6.199,1.252-9.31,1.879c-0.69,0.14-1.444,0.189-2.131-0.209
			c-0.463-0.269-1.04-0.404-0.983-1.122c0.058-0.726,0.562-0.767,1.142-0.854c2.851-0.436,5.485-1.714,8.572-1.44
			c1.271,0.112,3.016-0.844,4.545-1.238c4.896-1.267,9.915-1.976,14.841-3.168c1.97-0.477,4.156-0.833,6.289-0.788
			c0.608,0.015,1.347-0.083,1.394,0.873C167.925,29.82,167.511,30.357,166.825,30.409z M175.67,28.845
			c-0.558,0.328-1.142,0.248-1.731,0.107c-0.67-0.459-1.387-0.062-2.079-0.104c-0.646-0.038-1.616-0.205-1.183-0.93
			c1.075-1.798-1.597-1.899-1.281-3.426c0.299-1.455,0.065-3.025-0.531-4.463c0.111-1.516,0.418-2.947,1.691-3.963
			c0.784-0.493,1.032-1.74,2.263-1.606c1.616-0.423,2.341-0.001,1.653,1.75c-0.269,0.089-0.504,0.204-0.431,0.561
			c0.188,0.534,0.164,1.091-0.062,1.578c-1.575,3.396-0.409,6.218,1.806,8.831C176.058,27.759,176.041,28.314,175.67,28.845z
			 M187.451,20.067c-1.728-0.593-2.388,0.544-3.086,1.699c-1.029,1.235-0.095,2.94-1.007,4.21c-1.688,0.974-3.378,0.817-5.069,0.025
			c0.013,0.011,0.025,0.021,0.039,0.032l-0.041-0.032c0.001,0,0.001,0,0.002,0c-0.529-0.417-1.077-0.822-1.134-1.583
			c-0.061-1.35-0.318-2.643-1.057-3.803c-0.494-0.539-0.429-1.075,0.006-1.611c1.096-0.38,1.815-1.096,2.022-2.269
			c1.267-1.4,6.58-2.189,7.49-0.742c0.869,1.378,2.825,1.314,3.178,3.002C188.865,20.003,188.238,20.337,187.451,20.067z
			 M191.597,24.937c-1.369-0.266-1.685,2.763-3.496,1.122c0.006-1.473,0.071-2.947,0-4.417c-0.062-1.25,0.771-1.186,1.567-1.265
			c1.188-0.36,1.562,0.365,1.765,1.321c0.104,0.134,0.184,0.292,0.309,0.396c0.666,0.562,2.023,0.462,1.91,1.765
			C193.536,25.148,192.03,24.08,191.597,24.937z M236.25,16.125c-4.067,0.789-8.015,2.235-12.323,1.647
			c-0.962-0.13-2.003,1.585-3.478,1.282c-0.797,0.102-1.707-0.403-2.356,0.452c-5.164,1.104-10.302,2.374-15.509,3.208
			c-1.681,0.271-2.948-1.354-3.545-3.009c-0.22-0.607-0.179-1.264-1.051-1.267c-0.677-0.383-0.534-1.279-1.091-1.74
			c0.115-0.763-0.428-1.688,0.549-2.239c4.057-0.391,8.113-0.328,12.182-0.178c2.688,0.1,5.44,0.459,8.014-0.784
			c0.199-0.179,0.398-0.359,0.599-0.541c0.547-0.396,1.09-0.396,1.635,0.003c0.004,1.407,0.006,2.374,2.101,1.763
			c1.646-0.48,3.543-0.215,5.364,0.132c2.933,0.558,5.908,0.023,8.861-0.243C236.746,15.098,236.67,15.605,236.25,16.125z"/>
		<path fill="#5D9632" d="M258.553,9.903c-0.237-0.01-0.475-0.028-0.712-0.042c0.025,0.01,0.042,0.023,0.071,0.031
			C258.126,9.899,258.339,9.898,258.553,9.903z"/>
		<path fill="#FEFEFE" d="M178.328,26.033c-0.014-0.01-0.026-0.021-0.039-0.032c-0.001,0-0.001,0-0.002,0L178.328,26.033z"/>
	</g>
	<path fill="#5D952F" d="M174.476,16.214c0.395-1.479-0.479-1.758-1.655-1.75c1.306-2.107,3.128,0.045,4.69-0.589
		C175.92,14,176.687,17.012,174.476,16.214z"/>
	<path fill="#C5D334" d="M236.246,16.126c-0.017-0.505-0.031-1.01-0.049-1.514c2.03-0.128,4.062-0.256,6.737-0.424
		C240.623,16.241,238.187,15.289,236.246,16.126z"/>
	<path fill="#FEFEFE" d="M160.299,27.225c-1.178,1.035-2.627,0.225-3.903,0.569c-0.969-0.056-0.885-0.641-0.652-1.301
		c1.215-0.898,2.639-0.183,3.926-0.505C160.604,26.031,160.558,26.574,160.299,27.225z"/>
	<path fill="#57912C" d="M255.959,10.203c0.254-1.043,1.119-0.284,1.634-0.557c3.276,0.345,6.627-0.67,9.854,0.558
		C263.616,10.205,259.787,10.204,255.959,10.203z"/>
	<path fill="#5D952F" d="M178.289,26.003c1.668-0.097,3.406,0.646,4.994-0.415c0.26-0.382,0.586-0.392,0.955-0.168
		C182.795,27.556,180.711,27.762,178.289,26.003z"/>
	<path fill="#5D952F" d="M178.17,12.665c0.209-0.086,0.418-0.249,0.627-0.25c2.322-0.02,4.646-0.011,6.97,0.23
		C183.259,13.047,180.731,12.743,178.17,12.665z"/>
	<path fill="#C4D133" d="M160.299,27.225c-0.1-0.47-0.04-1.02-0.633-1.235c1.144-0.828,2.498-0.353,3.733-0.605
		c0.388,0.357,0.427,0.748,0.113,1.174C162.44,26.78,161.37,27.002,160.299,27.225z"/>
	<path fill="#C5D637" d="M184.239,25.419c-0.318,0.056-0.639,0.112-0.955,0.167c0.504-1.231-1.391-3.144,1.084-3.819
		C184.64,22.996,185.021,24.227,184.239,25.419z"/>
	<path fill="#FEFEFE" d="M61.672,43.179c1.535-1.069,3.052-1.165,4.547,0.075C64.696,43.707,63.176,43.891,61.672,43.179z"/>
	<path fill="#5D952F" d="M176.104,19.004c-0.002,0.537-0.004,1.075-0.006,1.611c0,0.886,0,1.771,0,2.884
		C174.571,21.422,174.612,20.403,176.104,19.004z"/>
	<path fill="#BDD33F" d="M194.155,17.22c0.4,0.761,0.803,1.521,1.207,2.283c-0.001,0.186-0.004,0.37-0.004,0.557
		c-1.877,0.556-1.904-1.463-2.924-2.102C193.009,17.712,193.58,17.466,194.155,17.22z"/>
	<path fill="#5D952F" d="M170.558,16.07c-0.562,1.319-1.131,2.641-1.693,3.963C168.343,17.79,168.782,16.768,170.558,16.07z"/>
	<path fill="#5D952F" d="M196.897,16.699c1.188,0.063,0.947,1.022,1.089,1.743c-0.106,0.579,0.185,1.229-0.39,1.827
		C196.345,19.257,196.659,17.969,196.897,16.699z"/>
	<path fill="#C5D93E" d="M162.498,23.425c-0.053-0.375-0.104-0.751-0.158-1.127c1.146,0,2.294,0,3.712,0
		C165.002,23.849,163.616,23.18,162.498,23.425z"/>
	<path fill="#FEFEFE" d="M162.422,20.53c0.009-0.494,0.015-0.987,0.021-1.481c0.698-0.018,1.396-0.036,2.099-0.054
		c0.521,0.5,0.475,1.006,0.014,1.514C163.843,20.514,163.134,20.522,162.422,20.53z"/>
	<path fill="#CAD439" d="M155.741,26.494c0.127,0.481,0.053,1.062,0.654,1.301c-0.676,0.605-1.494,0.458-2.289,0.437
		c0.012-0.521,0.021-1.044,0.033-1.566C154.672,26.61,155.207,26.551,155.741,26.494z"/>
	<path fill="#57912C" d="M267.679,10.447c-1.49,0.984-1.49,0.984-4.179,0.568C264.905,10.417,266.396,11.193,267.679,10.447z"/>
	<path fill="#5D952F" d="M177.155,24.418c0.693,0.318,1.09,0.856,1.174,1.617c-0.805,0.023-1.697,0.14-2.004-0.854
		C176.136,24.567,176.739,24.528,177.155,24.418z"/>
	<path fill="#57912C" d="M255.954,11.845c0.008-0.359,0.018-0.722,0.023-1.08c0.721,0,1.436,0,2.149,0
		C257.284,10.924,257.25,12.795,255.954,11.845z"/>
	<path fill="#FEFEFE" d="M163.513,26.557c-0.037-0.392-0.076-0.78-0.113-1.173c0.447-0.613,1.111-0.346,1.693-0.414
		c0.551,0.525,0.459,1.055,0.004,1.583C164.568,26.554,164.039,26.555,163.513,26.557z"/>
	<path fill="#99BB34" d="M165.097,26.553c-0.002-0.526-0.002-1.056-0.004-1.582c0.672-0.508,1.319-0.12,1.405,0.422
		C166.634,26.266,165.679,26.282,165.097,26.553z"/>
	<path fill="#D9DF3F" d="M218.086,19.509c0.379-2.276,1.416-1.117,2.359-0.452C219.739,19.621,218.911,19.552,218.086,19.509z"/>
	<path fill="#5D952F" d="M179.946,13.835c1.578-0.486,2.609-0.368,3.676,0C182.62,13.835,181.618,13.835,179.946,13.835z"/>
	<path fill="#5D952F" d="M201.147,12.741c-1.146,0.145-2.187,0.423-3.361-0.116C199.068,12.307,200.159,12.239,201.147,12.741z"/>
	<path fill="#AEC33F" d="M164.552,20.506c-0.005-0.503-0.009-1.008-0.013-1.514c0.549,0.021,1.099,0.042,1.646,0.063
		c0.123,0.859-0.705,1.031-1.097,1.521C164.907,20.561,164.729,20.538,164.552,20.506z"/>
	<path fill="#5D952F" d="M219.873,12.962c-0.545-0.001-1.09-0.003-1.633-0.003c0.758-1.129,1.801-0.333,2.793-0.565
		C220.756,13.119,220.246,12.863,219.873,12.962z"/>
	<path fill="#5D952F" d="M191.92,14.46c-0.202,0.051-0.409,0.104-0.614,0.157c-0.64-0.123-1.468,0.132-1.716-0.889
		C190.597,13.291,191.231,13.966,191.92,14.46z"/>
	<path fill="#B5C836" d="M147.608,29.83c0.236-1.342,0.853-1.357,1.72-0.489C148.88,29.949,148.238,29.873,147.608,29.83z"/>
	<path fill="#B9D534" d="M27.336,62.517c-0.158-0.128-0.405-0.235-0.496-0.421c-0.169-0.347-0.039-0.705,0.322-0.822
		c0.144-0.047,0.469,0.169,0.566,0.346C27.923,61.969,27.729,62.26,27.336,62.517z"/>
	<g>
		<path fill="#5E9734" d="M71.84,64.906c-11.526-0.312-22.335,3.653-33.497,5.519c-3.669,0.611-7.305,1.432-10.955,2.156
			c-1.005,0-1.472,0.508-1.471,1.506c0.009,1.984-0.027,3.972,0.02,5.957c0.012,0.519,0.219,0.856,0.822,0.715
			c0.726-0.03,1.451-0.077,2.178-0.092c3.729-0.065,3.866,0.063,3.866,3.724c0,3.812-0.063,7.631-0.006,11.446
			c0.049,3.307,0.234,6.615-3.023,9.654c2.824-0.615,3.181,0.463,3.059,2.203c-0.14,1.992-0.027,3.996-0.058,5.994
			c-0.042,2.787-2.052,4.84-4.87,4.719c-1.367-0.059-1.993,0.644-2.146,1.646c-0.342,2.232-0.931,4.523,0.256,6.713
			c1.273,0.504,2.455,0.428,3.497-0.547c8.862-1.835,17.711-3.757,26.604-5.438c1.756-0.332,2.257-0.886,2.277-2.564
			c0.062-5.2,0.109-5.341-4.816-5.026c-2.391,0.155-2.956-0.666-2.843-2.859c0.156-2.998,0.117-6.01,0.002-9.01
			c-0.088-2.285,0.196-3.855,3.116-3.746c1.508,0.057,3.126-0.443,4.55-1.037c3.551-1.482,7.513-1.08,11.045-2.713
			c7.857-3.629,13.27-8.6,13.208-18.25C82.611,68.43,77.875,65.07,71.84,64.906z M55.049,90.124
			c-0.694,0.146-1.494-0.129-2.078,0.438c-0.545,0.526-0.901,1.621-1.872,0.983c-0.633-0.416-0.371-1.36-0.301-2.049
			c0.399-3.953,0.036-7.899-0.057-11.846c-0.033-1.418,0.399-1.873,1.83-1.892c2.245-0.028,4.486-0.416,6.733-0.471
			c3.783-0.092,4.208,0.385,4.239,4.131c0.005,0.454,0.002,0.907,0.002,1.364C63.872,87.52,61.468,88.78,55.049,90.124z"/>
	</g>
	<path fill="#5D9630" d="M245.015,58.348c-1.787,2.437-4.229,2.393-6.841,1.864c-0.465-0.094-1.147,0.412-1.225-0.465
		c-0.063-0.748,0.584-0.751,1.131-0.849c1.039-0.188,1.904,0.327,3.097,0.807c-0.923-3.133,0.545-5.995-0.097-9.07
		c5.238,2.845,5.81,3.643,4.481,6.073c-0.051,0.081-0.102,0.16-0.145,0.244c-0.15,0.373-0.043,0.789-0.191,1.164
		C245.155,58.197,245.084,58.272,245.015,58.348z"/>
	<path fill="#5D9630" d="M245.562,56.708c2.063-1.854,2.86,0.4,4.272,1.062c-1,1.097-1.836-0.293-2.713,0.231
		c-0.053,1.361,1.532,1.172,1.922,2.237c-1.336-0.708-3.924,1.663-4.028-1.894C245.569,57.925,244.972,57.118,245.562,56.708z"/>
	<path fill="#8EB436" d="M218.226,47.972c1.129,1.327-0.668,2.75,0.129,4.131c0.158,0.271-0.346,0.67-0.705,0.598
		c-0.877-0.178-1.408-0.777-1.545-1.664c-0.15-1.003,0.977-1.2,1.3-1.953c-0.265-1.002-1.601-0.245-1.913-1.144
		C216.405,47.633,217.321,47.34,218.226,47.972z"/>
	<path fill="#AFCB3D" d="M218.226,47.972c-0.912-0.011-1.823-0.021-2.732-0.029c1.434-0.782,2.771-2.083,4.598-0.797
		c0.479-0.846-0.832-1.806,0.238-2.52c0.588,0.209,0.984,0.611,1.211,1.19C221.543,48.241,220.187,48.572,218.226,47.972z"/>
	<path fill="#84AD36" d="M239.368,81.655c-0.238-1.557-1.059-2.41-0.342-3.449c0.062-0.092,0.629-0.024,0.71,0.115
		C240.261,79.198,240.265,80.104,239.368,81.655z"/>
	<path fill="#88B740" d="M202.715,40.334c0.978,0.929,0.781,1.652,0.339,2.574C202.08,42.206,202.286,41.443,202.715,40.334z"/>
	<path fill="#FEFEFE" d="M221.537,45.818c-0.812,0.018-1.226-0.368-1.209-1.189c0.42-0.633,1.117-0.732,1.562-0.314
		C222.399,44.789,222.127,45.419,221.537,45.818z"/>
	<path fill="#9BC647" d="M214.769,86.468c-0.519-1.461-0.476-2.043,0.283-2.301c0.188-0.062,0.631,0.088,0.674,0.226
		C215.984,85.253,214.972,85.223,214.769,86.468z"/>
	<path fill="#90BD3C" d="M222.616,55.235c-0.182,0.279-0.277,0.617-0.451,0.666c-0.453,0.122-0.643-0.238-0.59-0.611
		c0.025-0.191,0.279-0.467,0.459-0.493C222.19,54.774,222.39,55.053,222.616,55.235z"/>
	<path fill="#D3D93D" d="M249.299,110.413c-1.178,0-2.354,0-3.53,0c0-0.279-0.002-0.559-0.002-0.836
		c1.135-0.691,2.436-0.254,3.668-0.271C249.715,109.714,249.674,110.083,249.299,110.413z"/>
	<path fill="#FEFEFE" d="M249.299,110.413c0.046-0.369,0.091-0.738,0.136-1.104c0.701-0.007,1.401-0.013,2.106-0.019
		c0.047,0.396,0.097,0.787,0.144,1.183C250.875,111.018,250.077,111.139,249.299,110.413z"/>
	<path fill="#77A83E" d="M244.767,111.675c-0.828-0.45-1.446-0.817-1.14-1.688c0.113-0.324,0.445-0.613,0.822-0.338
		C245.116,110.132,245.14,110.792,244.767,111.675z"/>
	<path fill="#7CAB34" d="M250.484,113.057c0.562,0.077,1.364-0.218,1.415,0.725c0.014,0.227-0.449,0.688-0.685,0.678
		c-0.952-0.03-0.639-0.846-0.729-1.399h-0.003L250.484,113.057L250.484,113.057z"/>
	<path fill="#7CAB34" d="M250.489,113.057c-0.479-0.349-0.729-0.787-0.301-1.293c0.262-0.312,0.688-0.218,0.887,0.086
		c0.443,0.676-0.5,0.748-0.591,1.207H250.489z"/>
	<path fill="#83B244" d="M242.959,112.501c0.062,0.431-0.176,0.551-0.435,0.49c-0.207-0.049-0.479-0.219-0.545-0.398
		c-0.096-0.271,0.115-0.516,0.423-0.444C242.621,112.198,242.804,112.395,242.959,112.501z"/>
	<path fill="#89B642" d="M246.976,118.221c-0.168,0.073-0.383,0.229-0.604,0.237c-0.25,0.01-0.564-0.125-0.357-0.463
		c0.113-0.186,0.389-0.35,0.604-0.365C246.896,117.604,247.073,117.813,246.976,118.221z"/>
	<path fill="#83AD36" d="M252.662,34.237c2.332,1.414-1.172,1.674-0.543,2.751l-0.013,0.014c-0.813,0.045-1.739,0.262-1.616-1.086
		C251.183,35.314,251.642,34.412,252.662,34.237z"/>
	<path fill="#71A739" d="M259.991,27.481c0.133,1.395-0.648,1.989-1.717,2.311c-0.111,0.034-0.424-0.167-0.424-0.255
		C257.866,28.165,259.235,28.135,259.991,27.481z"/>
	<path fill="#94B93F" d="M256.653,31.352c1.061-0.344,1.846-0.879,2.73-0.316c0.129,0.083,0.172,0.629,0.077,0.688
		C258.633,32.276,257.802,32.222,256.653,31.352z"/>
	<path fill="#C9E256" d="M246.144,39.874c1.563-0.877,2.412-1.27,4.088-0.854C248.881,39.851,247.974,40.104,246.144,39.874z"/>
	<path fill="#A4C03A" d="M245.308,40.547c0.377,0.951,0.543,1.733-0.271,2.378c-0.133,0.105-0.679-0.047-0.681-0.083
		C244.354,42.016,244.347,41.166,245.308,40.547z"/>
	<path fill="#6A9B2D" d="M250.489,35.915c0.54,0.362,1.078,0.726,1.617,1.086c-0.482,0.574-1.027,1.191-1.785,0.526
		C249.756,37.031,249.83,36.391,250.489,35.915z"/>
	<path fill="#8EBA3E" d="M241.104,30.041c0.048,0.408-0.104,0.715-0.51,0.83c-0.388,0.108-0.734,0.024-0.817-0.429
		c-0.075-0.416,0.202-0.676,0.55-0.826C240.739,29.438,241.017,29.589,241.104,30.041z"/>
	<path fill="#79AE43" d="M263.547,27.806c0.222,0.258,0.468,0.416,0.488,0.601c0.024,0.211-0.097,0.586-0.248,0.644
		c-0.403,0.155-0.646-0.144-0.635-0.521C263.159,28.324,263.364,28.124,263.547,27.806z"/>
	<path fill="#8AB638" d="M256.527,32.631c-0.899,0.971-1.235,0.156-1.614-0.512C255.519,32.079,256.144,31.974,256.527,32.631z"/>
	<path fill="#FEFEFE" d="M70.56,38.517c-1.508,1.073-3.012,1.085-4.514-0.011C67.551,37.877,69.057,37.854,70.56,38.517z"/>
	<g>
		<path fill="#5E9833" d="M223.515,125.04c-0.955-0.387-1.484-1.127-1.643-2.035c-0.436-2.502-1.1-5.043-0.822-7.553
			c0.332-2.983-0.063-6.5,3.734-7.922c-1.173-2.51-3.502-2.209-5.67-2.385c-2.898-0.232-5.732-0.015-8.502,0.914
			c-1.217,0.486-0.535,1.852-1.199,2.602c-1.463,0.158-0.938,1.307-0.959,2.082c-0.064,2.156-0.02,4.318-0.02,6.48l0,0
			c0-0.002,0-0.003,0-0.005c0.711,1.215,0.77,2.435,0.007,3.65c0,0.002,0,0.004-0.001,0.006c0.383,1.371,0.787,2.736,1.143,4.115
			c0.641,2.466,2.225,3.642,4.758,3.566c2.438-0.072,4.873-0.242,7.307-0.171c1.436,0.041,2.434-0.401,3.158-1.59
			C225.077,125.696,224.265,125.343,223.515,125.04z M213.619,126.698c-1.252-0.035-1.894-0.881-1.969-2.121
			c-0.06-0.947,0.319-1.66,1.329-1.646c1.392,0.022,1.437,1.085,1.408,2.202C214.215,125.655,214.826,126.73,213.619,126.698z"/>
	</g>
	<path fill="#5D952F" d="M127.393,12.94c-4.896,0-9.79-0.02-14.686,0.02c-0.952,0.007-2.018-0.363-2.82,0.53
		c0.19,0.116,0.254,0.233,0.193,0.354c-0.061,0.121-0.123,0.182-0.186,0.182c-0.189,0-0.38,0-0.57,0.002
		c-1.377-0.646-2.898,0.035-4.295-0.464c-21.651-0.174-43.3-0.025-64.947-0.074c-4.448-0.123-8.897,0.763-13.345,0.003
		c-0.012-0.204-0.024-0.408-0.036-0.612c-0.136-0.351-0.273-0.7-0.41-1.051c0.191-1.68,1.45-1.684,2.653-1.598
		c2.293,0.164,4.57,0.182,6.873,0.136c2.497-0.049,5.015-0.168,7.522-0.166c17.595,0.014,35.188-0.008,52.783,0.014
		c8.445,0.012,16.89,0.093,25.334-0.043c1.433-0.022,2.86,0.733,4.289,0.036c0.368,0,0.734,0,1.102,0
		c0.184,0.121,0.244,0.242,0.184,0.362c-0.061,0.121-0.121,0.182-0.184,0.182c-1.08,0.416-2.161,0.834-3.241,1.251
		c-0.002,0.13-0.006,0.261-0.011,0.391c0.9,0,1.799,0,2.698,0c0.377-0.304,0.745-0.343,1.097,0.042
		C127.393,12.602,127.393,12.771,127.393,12.94z"/>
	<path fill="#609A3A" d="M125.747,10.207c-0.902,0.944-2.066,0.526-3.107,0.527c-25.867,0.023-51.734-0.1-77.599,0.14
		c-4.069,0.038-8.315-0.774-12.327,0.852c-0.562,0.229-0.992-0.312-1.486-0.498c-1.729-0.648-3.48-1.112-4.938,0.603
		c-0.173-0.637-0.626-0.689-1.167-0.559c0-1.086,0.594-1.563,1.628-1.591c1.757,0.725,3.672-0.194,5.432,0.517
		c0.373,0.001,0.744,0.003,1.116,0.004c0.669-0.417,1.417-0.25,2.132-0.25c20.641-0.01,41.282-0.01,61.922,0
		c0.714,0.001,1.461-0.168,2.13,0.255c0.55,0,1.101,0,1.651,0c5.286-0.427,10.57-0.427,15.855,0c0.55-0.001,1.101-0.001,1.651-0.001
		c1.823-0.423,3.645-0.427,5.465,0.002C124.654,10.204,125.201,10.205,125.747,10.207z"/>
	<path fill="#57912C" d="M151.472,9.648c34.239,0,68.481,0,102.725,0c0,0.188,0,0.373,0.002,0.561c-33.697,0-67.395,0-101.092,0
		c-0.558,0.354-1.125,0.302-1.691,0.029c-0.516,0.416-1.033,0.407-1.555,0.018l-0.039-0.053c-0.178-0.116-0.237-0.231-0.178-0.349
		c0.059-0.116,0.117-0.175,0.178-0.175C150.37,9.668,150.92,9.657,151.472,9.648z"/>
	<path fill="#56912D" d="M99.486,10.202c-22.062-0.001-44.122-0.002-66.184-0.003c0.81-0.888,1.877-0.521,2.831-0.521
		C56.307,9.657,76.481,9.658,96.655,9.68C97.61,9.68,98.676,9.317,99.486,10.202z"/>
	<path fill="#56912D" d="M116.992,10.202c-5.285,0-10.57,0-15.855,0c3.31-1.162,6.727-0.394,10.088-0.479
		C113.13,9.673,115.16,9.056,116.992,10.202z"/>
	<path fill="#56912D" d="M143.267,10.213c-2.188,0-4.377,0-6.566,0c2.206-0.351,4.427-1.122,6.564,0.003L143.267,10.213z"/>
	<path fill="#609A3A" d="M126.849,10.751c-0.003-0.182-0.003-0.362,0-0.543c1.653-0.361,3.101-0.312,3.544,1.824
		C129.384,11.065,128.271,10.454,126.849,10.751z"/>
	<path fill="#56912D" d="M32.186,10.195c-1.807-0.221-3.708,0.558-5.433-0.517C28.561,9.89,30.461,9.112,32.186,10.195z"/>
	<path fill="#56912D" d="M124.108,10.203c-1.821-0.001-3.644-0.001-5.465-0.002C120.466,9.361,122.287,9.356,124.108,10.203z"/>
	<path fill="#56912D" d="M149.82,9.677c0.001,0.176,0.001,0.352,0,0.524c-1.828,0.005-3.656,0.011-5.482,0.016l0.002,0.002
		C146.072,9.08,147.997,9.905,149.82,9.677z"/>
	<path fill="#7EB242" d="M149.859,10.253c0.517-0.005,1.036-0.013,1.554-0.018c0.039,0.675-0.176,1.354-0.869,1.384
		C149.624,11.657,149.875,10.826,149.859,10.253z"/>
	<path fill="#609A3A" d="M127.393,12.433c-0.367-0.016-0.732-0.026-1.097-0.042c0.378-0.623,0.8-1.438,1.613-0.692
		C128.511,12.251,127.776,12.323,127.393,12.433z"/>
	<path fill="#8BBB4E" d="M144.337,10.218c-0.02,0.49,0.162,1.261-0.41,1.314c-0.936,0.088-0.572-0.797-0.66-1.32l-0.002,0.003
		c0.355,0.001,0.717,0.002,1.074,0.003H144.337z"/>
	<path fill="#FEFEFE" d="M31.561,28.806c-1.574-0.515-3.604,1.118-4.831-1.023C28.358,28.037,30.33,26.674,31.561,28.806z"/>
	<path fill="#FEFEFE" d="M94.002,27.23c0.005,0.538,0.011,1.075,0.017,1.611c-1.782-0.191-3.526-0.722-5.352-0.53
		c-0.51,0.055-1.14,0.082-1.211-0.704c-0.085-0.934,0.548-0.991,1.229-0.986C90.479,26.634,92.302,26.397,94.002,27.23z"/>
	<path fill="#57912F" d="M105.5,13.486c1.269,0.222,2.671-0.501,3.823,0.54c-26.584,0.003-53.169,0.011-79.754-0.007
		c-0.955,0-2.026,0.366-2.833-0.528c4.396,0.344,8.742-0.491,13.121-0.549c0.938,0.532,1.961,0.267,2.94,0.268
		c19.919,0.019,39.837,0.011,59.756,0.026C103.535,13.237,104.555,12.989,105.5,13.486z"/>
	<path fill="#57912F" d="M109.894,14.025c-0.005-0.18-0.008-0.357-0.007-0.535c18.964-0.002,37.93-0.003,56.895-0.005
		c-0.807,0.897-1.877,0.531-2.83,0.532C145.931,14.034,127.912,14.027,109.894,14.025z"/>
	<path fill="#5E923D" d="M79.631,35.012c5.575,0,11.149,0,16.724,0c0.005,0.173,0.011,0.347,0.016,0.521c-5.576,0-11.153,0-16.729,0
		C79.639,35.359,79.635,35.185,79.631,35.012z"/>
	<path fill="#5E9734" d="M92.412,111.469c0.166-0.034,0.332-0.059,0.5-0.071c0.83,0.02,0.988,0.362,0.5,1.022
		C92.733,112.464,92.42,112.13,92.412,111.469z"/>
	<path fill="#D4D940" d="M192.5,133.753c-1.101,0-2.196,0-3.295,0C190.304,132.167,191.401,132.167,192.5,133.753z"/>
	<path fill="#D4D940" d="M183.748,133.753c-1.101,0-2.199,0-3.297,0C181.549,132.167,182.647,132.167,183.748,133.753z"/>
	<path fill="#93BD3E" d="M175.465,27.193c0.486,0.19,1.017,0.398,0.98,1.021c-0.031,0.578-0.562,0.538-0.98,0.572
		C175.465,28.254,175.465,27.723,175.465,27.193z"/>
	<path fill="#C3D02F" d="M61.161,83.862c-0.101,0.143,0.037,0.658-0.396,0.396c-0.359-0.221-0.604-0.629-0.9-0.95
		c0.193-0.107,0.379-0.295,0.581-0.314C61.037,82.934,61.251,83.266,61.161,83.862z"/>
	<path fill="#5E9734" d="M242.916,58.717c-0.803,0.111-1.065-0.229-1.123-0.715c-0.062-0.566,0.05-1.125,0.763-1.167
		c0.364-0.022,0.655,0.22,0.735,0.636C243.403,58.052,243.25,58.498,242.916,58.717z"/>
	<path fill="#75AB3E" d="M242.127,55.953c-0.387-1.55,0.666-1.759,1.522-2.105c0.056-0.022,0.438,0.411,0.412,0.601
		C243.912,55.554,242.543,55.094,242.127,55.953z"/>
	<path fill="#5E9734" d="M245.562,56.708c-0.019,0.603,0.098,1.249-0.547,1.642c-0.218-0.64-0.638-1.3-0.571-1.911
		C244.474,56.114,245.159,56.624,245.562,56.708z"/>
	<path fill="#5D9B3B" d="M105.5,13.486c-20.846,0-41.692,0.008-62.54-0.019c-1.041-0.001-2.204,0.422-3.104-0.525
		c20.846,0,41.692-0.007,62.538,0.019C103.436,12.962,104.599,12.54,105.5,13.486z"/>
	<path fill="#609A3A" d="M117.096,12.12c1.085-0.293,2.119-0.413,3.47,0.003C119.181,12.534,118.114,12.424,117.096,12.12z"/>
</g>
   
</svg>
