<?xml version="1.0" encoding="utf-8"?>
<!-- Generator: Adobe Illustrator 16.0.0, SVG Export Plug-In . SVG Version: 6.00 Build 0)  -->
<!DOCTYPE svg PUBLIC "-//W3C//DTD SVG 1.1//EN" "http://www.w3.org/Graphics/SVG/1.1/DTD/svg11.dtd">
<svg version="1.1"  xmlns="http://www.w3.org/2000/svg" xmlns:xlink="http://www.w3.org/1999/xlink" x="0px" y="0px"
	 width="156.5px" height="160.5px" viewBox="0 0 156.5 160.5" enable-background="new 0 0 156.5 160.5" xml:space="preserve">
<g>
	<g >
		<circle fill="#010002" cx="79.004" cy="75.89" r="9.434"/>
		<path fill="#010002" d="M79.004,3.748c-39.844,0-72.143,32.299-72.143,72.143c0,39.843,32.299,72.142,72.143,72.142
			s72.143-32.299,72.143-72.144C151.146,36.046,118.848,3.748,79.004,3.748z M51.498,21.689c8.258-4.198,17.605-6.565,27.507-6.565
			c0.582,0,1.157,0.008,1.731,0.022c0.955,0.026,1.613,2.404,1.473,5.28l-0.734,14.803c-0.145,2.875-0.754,5.178-1.363,5.16
			c-0.364-0.01-0.732-0.016-1.104-0.016c-5.207,0-10.153,1.121-14.61,3.134c-2.625,1.187-5.768,0.479-7.233-2l-7.551-12.77
			C48.145,26.262,48.929,22.996,51.498,21.689z M48.546,48.845l-11.155-9.757c-2.169-1.896-2.393-5.2-0.311-7.188
			c0.05-0.047,0.097-0.091,0.148-0.139c2.091-1.98,5.369-1.577,7.136,0.694l9.111,11.691c1.771,2.271,2.182,4.926,1.021,6.034
			C53.33,51.296,50.716,50.739,48.546,48.845z M53.477,75.891c0-14.1,11.429-25.526,25.527-25.526s25.525,11.43,25.525,25.526
			c0,14.098-11.428,25.526-25.525,25.526C64.905,101.417,53.477,89.988,53.477,75.891z M106.391,130.148
			c-8.229,4.16-17.535,6.507-27.387,6.507c-0.646,0-1.291-0.015-1.933-0.028c-1.065-0.033-1.805-2.423-1.647-5.298l0.809-14.804
			c0.158-2.875,0.84-5.166,1.527-5.143c0.412,0.014,0.827,0.021,1.244,0.021c4.781,0,9.339-0.943,13.504-2.653
			c2.665-1.096,5.934-0.375,7.503,2.039l8.085,12.438C109.666,125.643,108.962,128.85,106.391,130.148z M120.6,120.188
			c-1.998,1.879-5.229,1.438-7.049-0.795l-9.361-11.49c-1.815-2.23-2.282-4.817-1.135-5.881c1.152-1.062,3.764-0.467,5.932,1.435
			l11.16,9.762C122.314,115.111,122.598,118.312,120.6,120.188z"/>
	</g>
</g>
</svg>
